<?xml version="1.0" encoding="UTF-8"?>
<svg width="37px" height="38px" viewBox="0 0 37 38" version="1.1" xmlns="http://www.w3.org/2000/svg" xmlns:xlink="http://www.w3.org/1999/xlink">
    <!-- Generator: Sketch 61.1 (89650) - https://sketch.com -->
    <desc>Created with Sketch.</desc>
    <defs>
        <linearGradient x1="58.3009141%" y1="40.0295068%" x2="50%" y2="61.9021447%" id="linearGradient-1">
            <stop stop-color="#FFFFFF" offset="0%"></stop>
            <stop stop-color="#9AB8FA" offset="100%"></stop>
        </linearGradient>
        <linearGradient x1="72.6050363%" y1="42.7070497%" x2="8.45038931%" y2="58.623617%" id="linearGradient-2">
            <stop stop-color="#FFFFFF" offset="0%"></stop>
            <stop stop-color="#9AB8FA" offset="100%"></stop>
        </linearGradient>
        <linearGradient x1="85.1010085%" y1="30.4477198%" x2="20.5602186%" y2="54.9853733%" id="linearGradient-3">
            <stop stop-color="#FFFFFF" offset="0%"></stop>
            <stop stop-color="#9AB8FA" offset="100%"></stop>
        </linearGradient>
        <linearGradient x1="79.0731371%" y1="17.001051%" x2="25.6158915%" y2="58.4139588%" id="linearGradient-4">
            <stop stop-color="#FFFFFF" offset="0%"></stop>
            <stop stop-color="#9AB8FA" offset="100%"></stop>
        </linearGradient>
    </defs>
    <g id="页面-1" stroke="none" stroke-width="1" fill="none" fill-rule="evenodd">
        <g id="导航栏" transform="translate(-53.000000, -1740.000000)">
            <g id="编组备份-3" transform="translate(53.000000, 1740.000000)">
                <polygon id="Fill-1" fill="url(#linearGradient-1)" points="12.1275 26.279925 23.1525 26.279925 23.1525 18.929925 12.1275 18.929925"></polygon>
                <path d="M3.08295366,27.7037289 C3.08295366,27.7037289 1.41880609,27.8819748 0.636059605,31.5315035 L0.0493242654,35.8181156 C0.0493242654,35.8181156 -0.440054546,37.5983185 1.66414454,37.5983185 L34.8341625,37.5983185 C34.8341625,37.5983185 36.6436958,37.5091955 36.3503282,35.7289926 C36.0569605,33.9487898 35.5182544,29.7513007 35.5182544,29.7513007 C35.5182544,29.7513007 35.1275302,28.371587 32.3379411,27.2152448 C29.5496502,26.0577745 21.8714654,24.2595214 18.2978318,24.2549736 C14.408763,24.2504963 7.58342141,25.9686516 3.08295366,27.7037289 Z" id="Fill-1" fill="url(#linearGradient-2)"></path>
                <path d="M9.74982728,13.1775972 C9.7246233,13.0759222 9.65021156,12.6667722 8.92529717,11.0595722 C8.19918258,9.45114722 8.49922993,5.87904722 8.60004584,4.90884722 C8.69966156,3.93864722 9.27455228,0.774472222 12.4754574,0.237922222 C15.6751623,-0.297402778 22.2269962,0.237922222 22.2269962,0.237922222 C22.2269962,0.237922222 24.677783,0.366547222 24.2517157,2.45884722 C24.2517157,2.45884722 26.8275,3.30042222 26.8275,6.15957222 L26.8275,9.62999722 C26.8275,9.62999722 26.8525261,10.9064472 26.3028394,11.6463472 L25.3786936,14.1441222 L9.74982728,13.1775972 Z" id="Fill-1" fill="url(#linearGradient-3)"></path>
                <path d="M13.99244,5.78739 C13.99244,5.78739 9.75639,5.31944 9.70494,8.895215 C9.65349,12.469765 9.321515,18.535965 13.457115,20.72994 C17.59149,22.92514 18.790765,23.220365 22.108065,20.385715 C25.425365,17.54984 25.961915,12.001815 25.50254,8.82049 C25.043165,5.639165 20.24484,4.97399 20.24484,4.97399 C20.24484,4.97399 18.491865,4.67754 17.480015,5.27044 C16.468165,5.862115 14.503265,5.80699 13.99244,5.78739" id="Fill-1" fill="url(#linearGradient-4)"></path>
            </g>
        </g>
    </g>
</svg>