<?xml version="1.0" encoding="UTF-8"?>
<svg width="25px" height="27px" viewBox="0 0 25 27" version="1.1" xmlns="http://www.w3.org/2000/svg" xmlns:xlink="http://www.w3.org/1999/xlink">
    <!-- Generator: Sketch 61.1 (89650) - https://sketch.com -->
    <desc>Created with Sketch.</desc>
    <g id="页面-1" stroke="none" stroke-width="1" fill="none" fill-rule="evenodd" stroke-linecap="round" stroke-linejoin="round">
        <g id="导航栏" transform="translate(-123.000000, -490.000000)" stroke="#FFFFFF" stroke-width="0.888888889">
            <g id="编组" transform="translate(124.000000, 491.000000)">
                <path d="M23.5152,17.6426 C23.5152,21.6366 20.2778667,24.8739333 16.2838667,24.8739333 C12.2905333,24.8739333 9.0532,21.6366 9.0532,17.6426 C9.0532,13.6492667 12.2905333,10.4112667 16.2838667,10.4112667 C20.2778667,10.4112667 23.5152,13.6492667 23.5152,17.6426 Z" id="Stroke-1"></path>
                <path d="M16.7789333,10.3594 L16.7789333,4.25006667 C16.7789333,4.25006667 16.7236,6.66666667e-05 8.39026667,6.66666667e-05 C0.0569333333,6.66666667e-05 0.000933333333,3.69473333 0.000933333333,3.69473333 L0.000933333333,19.6314 C0.000933333333,19.6314 -0.253066667,23.7340667 7.32293333,24.0134 C9.00093333,24.0754 10.6749333,24.0120667 12.1149333,23.8260667" id="Stroke-3"></path>
                <path d="M0.000933333333,3.55733333 C0.000933333333,3.55733333 0.6676,6.932 8.3896,6.932 C16.1122667,6.932 16.7789333,4.076 16.7789333,4.076" id="Stroke-5"></path>
                <path d="M0.000933333333,7.92906667 C0.000933333333,7.92906667 0.6676,11.5404 8.3896,11.5404 C9.35493333,11.5404 11.1496,11.4890667 11.9062667,11.4057333" id="Stroke-7"></path>
                <path d="M0.000933333333,12.1726 C0.000933333333,12.1726 0.6676,15.7832667 8.3896,15.7832667" id="Stroke-9"></path>
                <path d="M0.000933333333,16.4154 C0.000933333333,16.4154 0.6676,20.0267333 8.3896,20.0267333 C8.68426667,20.0267333 8.96893333,20.0220667 9.2436,20.0134" id="Stroke-11"></path>
                <polyline id="Stroke-13" points="13.7812 13.9252 16.4185333 16.6245333 19.0652 13.9252"></polyline>
                <line x1="12.9748667" y1="17.9388667" x2="19.8622" y2="17.9388667" id="Stroke-15"></line>
                <line x1="12.9748667" y1="20.0248" x2="19.8622" y2="20.0248" id="Stroke-17"></line>
                <line x1="16.4185333" y1="16.6244" x2="16.4185333" y2="22.0710667" id="Stroke-19"></line>
            </g>
        </g>
    </g>
</svg>