<?xml version="1.0" encoding="UTF-8"?>
<svg width="24px" height="31px" viewBox="0 0 24 31" version="1.1" xmlns="http://www.w3.org/2000/svg" xmlns:xlink="http://www.w3.org/1999/xlink">
    <!-- Generator: Sketch 61.1 (89650) - https://sketch.com -->
    <desc>Created with Sketch.</desc>
    <g id="页面-1" stroke="none" stroke-width="1" fill="none" fill-rule="evenodd" stroke-linecap="round" stroke-linejoin="round">
        <g id="导航栏" transform="translate(-123.000000, -559.000000)" stroke="#FFFFFF" stroke-width="0.92">
            <g id="编组" transform="translate(124.000000, 560.000000)">
                <path d="M16.0683194,2.43636774 L19.4545129,2.43636774 C21.0615452,2.43636774 22.3762548,3.75033548 22.3762548,5.35810968 L22.3762548,25.6314968 C22.3762548,27.238529 21.0615452,28.5524968 19.4545129,28.5524968 L2.92122258,28.5524968 C1.31493226,28.5524968 0.000222580645,27.238529 0.000222580645,25.6314968 L0.000222580645,5.35810968 C0.000222580645,3.75033548 1.31493226,2.43636774 2.92122258,2.43636774 L6.51515806,2.43636774" id="Stroke-1"></path>
                <path d="M5.7776,4.19705484 C5.7776,4.19705484 6.27840645,0.890990323 9.5852129,0.890990323 C9.5852129,0.890990323 10.987471,-1.11297742 12.9914387,0.890990323 C12.9914387,0.890990323 15.7966968,0.239570968 16.4985677,4.19705484 L5.7776,4.19705484 Z" id="Stroke-3"></path>
                <line x1="5.82612258" y1="9.68693226" x2="16.9952194" y2="9.68693226" id="Stroke-5"></line>
                <line x1="5.82612258" y1="14.2066548" x2="16.9952194" y2="14.2066548" id="Stroke-7"></line>
                <line x1="5.82612258" y1="18.7256355" x2="16.9952194" y2="18.7256355" id="Stroke-9"></line>
                <line x1="5.82612258" y1="23.5989645" x2="12.2416387" y2="23.5989645" id="Stroke-11"></line>
            </g>
        </g>
    </g>
</svg>