<?xml version="1.0" encoding="UTF-8"?>
<svg width="27px" height="22px" viewBox="0 0 27 22" version="1.1" xmlns="http://www.w3.org/2000/svg" xmlns:xlink="http://www.w3.org/1999/xlink">
    <!-- Generator: Sketch 61.1 (89650) - https://sketch.com -->
    <desc>Created with Sketch.</desc>
    <g id="页面-1" stroke="none" stroke-width="1" fill="none" fill-rule="evenodd">
        <g id="导航栏" transform="translate(-122.000000, -2364.000000)">
            <g id="编组" transform="translate(123.000000, 2365.000000)">
                <path d="M22.2913125,16.9738125 L2.2125625,16.9738125 C0.9900625,16.9738125 6.25e-05,15.9831875 6.25e-05,14.7613125 L6.25e-05,2.2125625 C6.25e-05,0.9906875 0.9900625,6.25e-05 2.2125625,6.25e-05 L22.2913125,6.25e-05 C23.5131875,6.25e-05 24.5038125,0.9906875 24.5038125,2.2125625 L24.5038125,14.7613125 C24.5038125,15.9831875 23.5131875,16.9738125 22.2913125,16.9738125 Z" id="Stroke-1" stroke="rgb(153, 153, 153)" stroke-linecap="round" stroke-linejoin="round"></path>
                <line x1="7.161875" y1="20.429" x2="17.341875" y2="20.429" id="Stroke-3" stroke="rgb(153, 153, 153)" stroke-linecap="round" stroke-linejoin="round"></line>
                <path d="M5.3354375,4.4170625 C5.3354375,4.4170625 4.2129375,4.4764375 4.2129375,5.4801875 L4.2129375,7.3995625 C4.2129375,7.3995625 3.9473125,8.4926875 3.0316875,8.4926875 C3.0316875,8.4926875 4.1835625,8.8770625 4.1835625,9.7926875 L4.1835625,11.4758125 C4.1835625,11.4758125 4.1835625,12.5389375 5.3354375,12.7451875" id="Stroke-5" stroke="rgb(153, 153, 153)" stroke-linecap="round" stroke-linejoin="round"></path>
                <path d="M19.168125,4.4170625 C19.168125,4.4170625 20.32,4.4764375 20.32,5.4801875 L20.32,7.3995625 C20.32,7.3995625 20.55625,8.4926875 21.471875,8.4926875 C21.471875,8.4926875 20.32,8.8770625 20.32,9.7926875 L20.32,11.4758125 C20.32,11.4758125 20.32,12.5389375 19.168125,12.7451875" id="Stroke-7" stroke="rgb(153, 153, 153)" stroke-linecap="round" stroke-linejoin="round"></path>
                <path d="M6.9574375,7.153875 C6.9574375,7.153875 7.1843125,6.437625 8.2761875,6.437625 C9.5586875,6.437625 9.5586875,7.695125 9.5586875,7.695125 L9.5586875,10.943875" id="Stroke-9" stroke="rgb(153, 153, 153)" stroke-linecap="round" stroke-linejoin="round"></path>
                <path d="M9.5584375,8.69625 C9.5584375,8.69625 8.7178125,8.314375 7.9290625,8.35375 C7.2296875,8.389375 6.5709375,8.61125 6.5709375,9.483125 C6.5709375,10.52 7.2915625,10.804375 8.1321875,10.804375 C8.8653125,10.804375 9.5584375,10.15125 9.5584375,10.15125" id="Stroke-11" stroke="rgb(153, 153, 153)" stroke-linecap="round" stroke-linejoin="round"></path>
                <line x1="11.643125" y1="12.98825" x2="11.643125" y2="6.678875" id="Stroke-13" stroke="rgb(153, 153, 153)" stroke-linecap="round" stroke-linejoin="round"></line>
                <path d="M11.643125,7.9229375 C11.643125,7.9229375 12.09875,6.6410625 13.124375,6.6410625 C14.15,6.6410625 14.86625,7.4529375 14.86625,8.6348125 C14.86625,9.8166875 14.178125,10.5179375 13.3475,10.5179375 C12.079375,10.5179375 11.643125,9.5891875 11.643125,9.5891875" id="Stroke-15" stroke="rgb(153, 153, 153)" stroke-linecap="round" stroke-linejoin="round"></path>
                <line x1="17.0810625" y1="6.7760625" x2="17.0810625" y2="11.1329375" id="Stroke-17" stroke="rgb(153, 153, 153)" stroke-linecap="round" stroke-linejoin="round"></line>
                <path d="M17.586125,5.0456875 C17.586125,5.3244375 17.359875,5.5513125 17.081125,5.5513125 C16.80175,5.5513125 16.5755,5.3244375 16.5755,5.0456875 C16.5755,4.7669375 16.80175,4.5400625 17.081125,4.5400625 C17.359875,4.5400625 17.586125,4.7669375 17.586125,5.0456875" id="Fill-19" fill="#FFFFFF"></path>
                <line x1="10.2261875" y1="17.264375" x2="9.3293125" y2="20.094375" id="Stroke-21" stroke="rgb(153, 153, 153)" stroke-linecap="round" stroke-linejoin="round"></line>
                <line x1="14.2770625" y1="17.264375" x2="15.1739375" y2="20.094375" id="Stroke-23" stroke="rgb(153, 153, 153)" stroke-linecap="round" stroke-linejoin="round"></line>
            </g>
        </g>
    </g>
</svg>