<?xml version="1.0" encoding="UTF-8"?>
<svg width="32px" height="22px" viewBox="0 0 32 22" version="1.1" xmlns="http://www.w3.org/2000/svg" xmlns:xlink="http://www.w3.org/1999/xlink">
    <!-- Generator: Sketch 61.1 (89650) - https://sketch.com -->
    <desc>Created with Sketch.</desc>
    <g id="页面-1" stroke="none" stroke-width="1" fill="none" fill-rule="evenodd" stroke-linecap="round" stroke-linejoin="round">
        <g id="导航栏" transform="translate(-120.000000, -879.000000)" stroke="rgb(153, 153, 153)">
            <g id="编组" transform="translate(121.000000, 880.000000)">
                <path d="M27.0269231,20.4030769 L2.72307692,20.4030769 C1.21923077,20.4030769 0,19.1838462 0,17.68 L0,2.72307692 C0,1.21923077 1.21923077,0 2.72307692,0 L27.0269231,0 C28.5307692,0 29.75,1.21923077 29.75,2.72307692 L29.75,17.68 C29.75,19.1838462 28.5307692,20.4030769 27.0269231,20.4030769 Z" id="Stroke-1"></path>
                <path d="M10.1786154,8.62269231 C10.1786154,9.92807692 9.12015385,10.9873077 7.814,10.9873077 C6.50784615,10.9873077 5.44938462,9.92807692 5.44938462,8.62269231 C5.44938462,7.31653846 6.50784615,6.25807692 7.814,6.25807692 C9.12015385,6.25807692 10.1786154,7.31653846 10.1786154,8.62269231 Z" id="Stroke-3"></path>
                <path d="M3.58307692,15.376 C3.67230769,15.2644615 3.82769231,11.1498462 7.80923077,11.1498462 C11.7907692,11.1498462 12.2053846,15.5983077 12.0353846,15.376 L3.58307692,15.376 Z" id="Stroke-5"></path>
                <path d="M15.5933077,4.79453846 C15.6594615,4.76915385 25.171,4.79453846 25.171,4.79453846" id="Stroke-7"></path>
                <path d="M15.5933077,8.643 C15.6594615,8.61761538 22.2325385,8.643 22.2325385,8.643" id="Stroke-9"></path>
                <path d="M15.5933077,12.4906154 C15.6594615,12.466 25.171,12.4906154 25.171,12.4906154" id="Stroke-11"></path>
                <path d="M15.5933077,16.3390769 C15.6325385,16.3144615 20.9340769,16.3390769 20.9340769,16.3390769" id="Stroke-13"></path>
            </g>
        </g>
    </g>
</svg>