<?xml version="1.0" encoding="UTF-8"?>
<svg width="22px" height="22px" viewBox="0 0 22 22" version="1.1" xmlns="http://www.w3.org/2000/svg" xmlns:xlink="http://www.w3.org/1999/xlink">
    <!-- Generator: Sketch 56.3 (81716) - https://sketch.com -->
    <desc>Created with Sketch.</desc>
    <g id="页面-1" stroke="none" stroke-width="1" fill="none" fill-rule="evenodd">
        <g id="切图" transform="translate(-114.000000, -602.000000)" fill-rule="nonzero">
            <g id="bb_blacklist_pre" transform="translate(114.000000, 602.000000)">
                <rect id="矩形" fill="#000000" opacity="0" x="0" y="0" width="22" height="22"></rect>
                <path d="M20.7402344,13.0177734 L18.3021484,10.5759766 C18.1351563,10.4071289 17.9069336,10.3125 17.6675781,10.3125 L13.6894531,10.3125 C13.1365234,10.3125 12.6875,10.759668 12.6875,11.3107422 L12.6875,18.7771484 C12.6875,19.3282227 13.1365234,19.7753906 13.6894531,19.7753906 L19.9980469,19.7753906 C20.5509766,19.7753906 21,19.3282227 21,18.7771484 L21,13.6467773 C21,13.4111328 20.9072266,13.1847656 20.7402344,13.0177734 Z M19.8125,18.5878906 L13.875,18.5878906 L13.875,11.5 L17.5469727,11.5 L19.8125,13.7692383 L19.8125,18.5878906 Z M14.8342773,13.875 L16.5394531,13.875 C16.8678711,13.875 17.1332031,13.609668 17.1332031,13.28125 C17.1332031,12.952832 16.8678711,12.6875 16.5394531,12.6875 L14.8342773,12.6875 C14.5058594,12.6875 14.2405273,12.952832 14.2405273,13.28125 C14.2405273,13.609668 14.5058594,13.875 14.8342773,13.875 Z M14.2405273,15.0625 C14.2405273,15.390918 14.5058594,15.65625 14.8342773,15.65625 L18.6732422,15.65625 C19.0016602,15.65625 19.2669922,15.390918 19.2669922,15.0625 C19.2669922,14.734082 19.0016602,14.46875 18.6732422,14.46875 L14.8342773,14.46875 C14.5058594,14.46875 14.2405273,14.734082 14.2405273,15.0625 Z M18.6732422,16.25 L14.8342773,16.25 C14.5058594,16.25 14.2405273,16.515332 14.2405273,16.84375 C14.2405273,17.172168 14.5058594,17.4375 14.8342773,17.4375 L18.6732422,17.4375 C19.0016602,17.4375 19.2669922,17.172168 19.2669922,16.84375 C19.2669922,16.515332 18.9998047,16.25 18.6732422,16.25 Z M12.1364258,19.8125 L3.1875,19.8125 L3.1875,16.815918 C3.1875,13.8935547 5.4734375,11.5482422 8.39208984,11.4740234 C8.48486328,11.472168 8.57763672,11.472168 8.66855469,11.4740234 C9.35693359,11.4907227 10.0230469,11.6373047 10.6501953,11.9100586 C10.9507812,12.0399414 11.3014648,11.9026367 11.4313477,11.6001953 C11.5612305,11.2996094 11.4239258,10.9489258 11.1214844,10.819043 C11.0324219,10.7800781 10.9433594,10.7448242 10.8542969,10.7095703 C12.2533203,9.90429688 13.1958984,8.39394531 13.1958984,6.66464844 C13.1958984,4.08925781 11.1084961,2 8.53125,2 C5.95400391,2 3.86660156,4.08925781 3.86660156,6.66464844 C3.86660156,8.39394531 4.80732422,9.90429688 6.20634766,10.7095703 C5.33056641,11.0416992 4.53085937,11.5649414 3.85917969,12.2533203 C2.66054688,13.4797852 2,15.1014648 2,16.815918 L2,19.9646484 C2,20.5361328 2.46386719,21 3.03349609,21 L12.1345703,21 C12.4629883,21 12.7283203,20.734668 12.7283203,20.40625 C12.7283203,20.077832 12.4629883,19.8125 12.1364258,19.8125 Z M5.05410156,6.66464844 C5.05410156,5.73505859 5.41591797,4.86298828 6.07275391,4.20615234 C6.72958984,3.54931641 7.60166016,3.1875 8.53125,3.1875 C9.46083984,3.1875 10.3329102,3.54931641 10.9897461,4.20615234 C11.646582,4.86298828 12.0083984,5.73691406 12.0083984,6.66464844 C12.0083984,7.59423828 11.646582,8.46630859 10.9897461,9.12314453 C10.3329102,9.77998047 9.45898438,10.1417969 8.53125,10.1417969 C7.60166016,10.1417969 6.72958984,9.77998047 6.07275391,9.12314453 C5.41591797,8.46816406 5.05410156,7.59423828 5.05410156,6.66464844 Z" id="形状" fill="#63B0F5"></path>
            </g>
        </g>
    </g>
</svg>