<?xml version="1.0" encoding="UTF-8"?>
<svg width="26px" height="20px" viewBox="0 0 26 20" version="1.1" xmlns="http://www.w3.org/2000/svg" xmlns:xlink="http://www.w3.org/1999/xlink">
    <!-- Generator: Sketch 61.1 (89650) - https://sketch.com -->
    <desc>Created with Sketch.</desc>
    <g id="页面-1" stroke="none" stroke-width="1" fill="none" fill-rule="evenodd" stroke-linecap="round" stroke-linejoin="round">
        <g id="导航栏" transform="translate(-122.000000, -2145.000000)" stroke="#FFFFFF">
            <g id="编组" transform="translate(123.000000, 2146.000000)">
                <path d="M22.3190854,18.3928659 L2.15871951,18.3928659 C0.966036585,18.3928659 0.000182926829,17.4264024 0.000182926829,16.234939 L0.000182926829,2.15810976 C0.000182926829,0.966036585 0.966036585,0.000182926829 2.15871951,0.000182926829 L22.3190854,0.000182926829 C23.5111585,0.000182926829 24.477622,0.966036585 24.477622,2.15810976 L24.477622,16.234939 C24.477622,17.4264024 23.5111585,18.3928659 22.3190854,18.3928659 Z" id="Stroke-1"></path>
                <path d="M4.54322702,8.26518293 L4.54322702,11.6151829 C4.54322702,11.6151829 4.52554878,13.6785976 6.66213415,13.6785976 C8.81640244,13.6785976 8.77985655,11.5066463 8.77985655,11.5066463 L8.77985655,8.26518293" id="Stroke-3"></path>
                <line x1="11.4196951" y1="13.4743293" x2="11.4196951" y2="8.05664634" id="Stroke-5"></line>
                <path d="M11.4196951,8.05676829 L13.6075,8.05676829 C13.6075,8.05676829 15.1007927,8.19579268 15.1007927,9.61957317 C15.1007927,11.0433537 13.7812805,11.2171341 13.7812805,11.2171341 L11.4196951,11.2171341" id="Stroke-7"></path>
                <path d="M13.7812805,11.2168902 C13.7812805,11.2168902 15.3038415,11.5296951 15.3038415,13.4742073" id="Stroke-9"></path>
                <polyline id="Stroke-11" points="17.6014634 8.05676829 17.6014634 13.4744512 21.2478049 13.4744512"></polyline>
                <line x1="0.00012195122" y1="4.39707317" x2="24.477561" y2="4.39707317" id="Stroke-13"></line>
                <line x1="3.09536585" y1="2.25042683" x2="4.78804878" y2="2.25042683" id="Stroke-15"></line>
            </g>
        </g>
    </g>
</svg>