<?xml version="1.0" encoding="UTF-8"?>
<svg width="29px" height="29px" viewBox="0 0 29 29" version="1.1" xmlns="http://www.w3.org/2000/svg" xmlns:xlink="http://www.w3.org/1999/xlink">
    <!-- Generator: Sketch 61.1 (89650) - https://sketch.com -->
    <desc>Created with Sketch.</desc>
    <g id="页面-1" stroke="none" stroke-width="1" fill="none" fill-rule="evenodd" stroke-linecap="round" stroke-linejoin="round">
        <g id="导航栏" transform="translate(-121.000000, -1340.000000)" stroke="#FFFFFF">
            <g id="编组" transform="translate(122.000000, 1341.000000)">
                <path d="M10.7780556,11.3220333 C10.7780556,11.3220333 11.3015,8.15258889 14.1870556,8.15258889 C17.0726111,8.15258889 17.1612778,11.3220333 17.1612778,11.3220333 C17.1612778,11.3220333 20.5500556,12.3347 19.2737222,15.4598111 C17.9973889,18.5849222 15.1763889,17.1289222 15.1763889,17.1289222 L15.7651667,18.5320333 C15.7651667,18.5320333 16.1190556,19.2779222 15.3926111,19.2779222 L12.7831667,19.2779222 C12.7831667,19.2779222 11.9260556,19.2779222 12.3172778,18.4760333 L12.9068333,17.0775889 C12.9068333,17.0775889 9.25983333,18.4153667 8.5715,14.5435889 C8.40038889,13.5822556 8.77605556,11.6922556 10.7780556,11.3220333 Z" id="Stroke-1"></path>
                <path d="M23.5179,13.7153333 C23.5179,19.1286667 19.1289,23.5184444 13.7147889,23.5184444 C8.30145556,23.5184444 3.91167778,19.1286667 3.91167778,13.7153333 C3.91167778,8.30122222 8.30145556,3.91222222 13.7147889,3.91222222 C19.1289,3.91222222 23.5179,8.30122222 23.5179,13.7153333 Z" id="Stroke-3"></path>
                <path d="M27.4299667,13.7153333 C27.4299667,21.2893333 21.2894111,27.4298889 13.7154111,27.4298889 C6.14063333,27.4298889 7.77777777e-05,21.2893333 7.77777777e-05,13.7153333 C7.77777777e-05,6.14055556 6.14063333,0 13.7154111,0 C21.2894111,0 27.4299667,6.14055556 27.4299667,13.7153333 Z" id="Stroke-5"></path>
                <line x1="26.4919667" y1="8.7213" x2="22.9204111" y2="10.3406333" id="Stroke-7"></line>
                <line x1="26.2545889" y1="19.2775333" x2="23.0983667" y2="17.6278667" id="Stroke-9"></line>
                <line x1="19.0757" y1="26.3420889" x2="17.4975889" y2="22.6935333" id="Stroke-11"></line>
                <line x1="8.72005556" y1="26.4909556" x2="10.2305" y2="22.8999556" id="Stroke-13"></line>
                <line x1="1.09456667" y1="19.0921889" x2="4.66767778" y2="17.6276333" id="Stroke-15"></line>
                <line x1="1.17545556" y1="8.15243333" x2="4.66767778" y2="9.77643333" id="Stroke-17"></line>
                <line x1="8.48454444" y1="0.945077778" x2="10.0642111" y2="4.61618889" id="Stroke-19"></line>
                <line x1="19.3191444" y1="0.945077778" x2="17.4975889" y2="4.66907778" id="Stroke-21"></line>
            </g>
        </g>
    </g>
</svg>