<?xml version="1.0" encoding="UTF-8"?>
<svg width="26px" height="31px" viewBox="0 0 26 31" version="1.1" xmlns="http://www.w3.org/2000/svg" xmlns:xlink="http://www.w3.org/1999/xlink">
    <!-- Generator: Sketch 61.1 (89650) - https://sketch.com -->
    <desc>Created with Sketch.</desc>
    <g id="页面-1" stroke="none" stroke-width="1" fill="none" fill-rule="evenodd" stroke-linecap="round" stroke-linejoin="round">
        <g id="导航栏" transform="translate(-123.000000, -1969.000000)" stroke="rgb(153, 153, 153)">
            <g id="编组" transform="translate(123.000000, 1970.000000)">
                <path d="M0.000151515152,27.3192424 C0.000151515152,27.3192424 4.57363636,25.17 6.46,23.7707576 C6.85242424,23.4798485 7.27893939,23.0881818 7.27893939,21.9965152 L7.27893939,20.2677273 C7.27893939,20.2677273 4.84484848,17.4684848 4.95924242,15.5821212 C4.95924242,15.5821212 3.48348485,14.8480303 3.35621212,13.4434848 C3.21833333,11.9192424 3.31454545,11.5601515 3.40166667,10.9412121 C3.47818182,10.4010606 3.52136364,9.68666667 4.7319697,9.21242424 C4.7319697,9.21242424 4.37136364,7.42606061 4.52893939,6.10030303 C4.80242424,3.78893939 5.85621212,0.162424242 12.2607576,0.00409090909 C19.0418182,-0.162575758 19.9213636,4.20484848 20.1084848,5.74121212 C20.315303,7.43287879 20.1084848,9.43969697 20.1084848,9.43969697 C20.1084848,9.43969697 20.9357576,9.63590909 21.1312121,10.9412121 C21.3516667,12.414697 21.2471212,13.2359091 21.1312121,13.9889394 C21.0304545,14.645 20.7448485,15.3684848 19.2440909,15.8548485" id="Stroke-1"></path>
                <path d="M24.8573485,23.7163636 C24.8573485,26.5095455 22.5929545,28.7739394 19.7997727,28.7739394 C17.0065909,28.7739394 14.742197,26.5095455 14.742197,23.7163636 C14.742197,20.9231818 17.0065909,18.6587879 19.7997727,18.6587879 C22.5929545,18.6587879 24.8573485,20.9231818 24.8573485,23.7163636 Z" id="Stroke-3"></path>
                <polyline id="Stroke-5" points="17.2509091 23.7918182 18.9289394 25.365303 22.3486364 22.0675758"></polyline>
            </g>
        </g>
    </g>
</svg>