<?xml version="1.0" encoding="UTF-8"?>
<svg width="31px" height="30px" viewBox="0 0 31 30" version="1.1" xmlns="http://www.w3.org/2000/svg" xmlns:xlink="http://www.w3.org/1999/xlink">
    <!-- Generator: Sketch 61.1 (89650) - https://sketch.com -->
    <desc>Created with Sketch.</desc>
    <g id="页面-1" stroke="none" stroke-width="1" fill="none" fill-rule="evenodd" stroke-linecap="round" stroke-linejoin="round">
        <g id="导航栏" transform="translate(-120.000000, -949.000000)" stroke="#FFFFFF">
            <g id="编组" transform="translate(121.000000, 950.000000)">
                <path d="M29.499225,20.2568 C29.499225,24.27905 26.238225,27.5408 22.215975,27.5408 C18.192975,27.5408 14.931975,24.27905 14.931975,20.2568 C14.931975,16.23455 18.192975,12.9728 22.215975,12.9728 C26.238225,12.9728 29.499225,16.23455 29.499225,20.2568 Z" id="Stroke-1"></path>
                <path d="M17.04075,25.8422 L2.6445,25.8422 C1.19025,25.8422 5.86197757e-14,24.65195 5.86197757e-14,23.1977 L5.86197757e-14,4.84895 C5.86197757e-14,3.39395 1.19025,2.20445 2.6445,2.20445 L5.8965,2.20445" id="Stroke-3"></path>
                <path d="M14.542875,2.20475 L17.607375,2.20475 C19.061625,2.20475 20.251875,3.39425 20.251875,4.8485 L20.251875,13.046" id="Stroke-5"></path>
                <path d="M5.229375,3.7985 C5.229375,3.7985 5.682375,0.806 8.674875,0.806 C8.674875,0.806 9.944625,-1.0075 11.758125,0.806 C11.758125,0.806 14.296875,0.2165 14.932125,3.7985 L5.229375,3.7985 Z" id="Stroke-7"></path>
                <line x1="5.10885" y1="8.76725" x2="12.74385" y2="8.76725" id="Stroke-9"></line>
                <line x1="5.10885" y1="12.85715" x2="12.74385" y2="12.85715" id="Stroke-11"></line>
                <line x1="5.10885" y1="16.947725" x2="12.74385" y2="16.947725" id="Stroke-13"></line>
                <line x1="5.10885" y1="21.358325" x2="9.49485" y2="21.358325" id="Stroke-15"></line>
                <polygon id="Stroke-17" points="18.88245 19.127375 21.1122 18.631625 22.4037 16.611125 23.64495 18.631625 25.97895 19.127375 24.4182 21.099875 24.8307 23.484125 22.56795 22.373375 20.05845 23.484125 20.4702 20.828375"></polygon>
            </g>
        </g>
    </g>
</svg>