<?xml version="1.0" encoding="UTF-8"?>
<svg width="36px" height="26px" viewBox="0 0 36 26" version="1.1" xmlns="http://www.w3.org/2000/svg" xmlns:xlink="http://www.w3.org/1999/xlink">
    <!-- Generator: Sketch 61.1 (89650) - https://sketch.com -->
    <desc>Created with Sketch.</desc>
    <g id="页面-1" stroke="none" stroke-width="1" fill="none" fill-rule="evenodd" stroke-linecap="round" stroke-linejoin="round">
        <g id="导航栏" transform="translate(-117.000000, -1170.000000)" stroke="rgb(153, 153, 153)">
            <g id="编组" transform="translate(118.000000, 1171.000000)">
                <path d="M8.07654212,23.6986522 C7.11252038,23.7846304 6.00012908,23.8645217 4.88165082,23.8234348 C-0.169001358,23.6370217 0.000672554818,20.9016957 0.000672554818,20.9016957 L0.000672554818,10.2761522 C0.000672554818,10.2761522 0.0371942939,7.81397826 5.59306386,7.81397826 C11.1489334,7.81397826 11.1854552,10.6474565 11.1854552,10.6474565 L11.1854552,21.8664783 C11.1854552,21.8664783 10.7570856,23.4582174 8.07654212,23.6986522 Z" id="Stroke-1"></path>
                <path d="M0.000520380905,10.1850761 C0.000520380905,10.1850761 0.444868207,12.4357283 5.59291169,12.4357283 C10.741716,12.4357283 11.1860639,10.5312717 11.1860639,10.5312717" id="Stroke-3"></path>
                <path d="M0.000520380905,18.108087 C0.000520380905,18.108087 0.589433424,20.5626522 5.59291169,20.5154783 C7.04769429,20.5017826 10.3871508,20.5162391 11.1860639,18.6445" id="Stroke-5"></path>
                <path d="M0.000520380905,13.9507717 C0.000520380905,13.9507717 0.589433424,16.405337 5.59291169,16.358163 C7.04769429,16.3444674 10.3871508,16.3589239 11.1860639,14.4871848" id="Stroke-7"></path>
                <path d="M6.57192255,7.46108696 L6.57192255,2.9651087 C6.57192255,0.951086957 7.28257473,-3.64153152e-14 9.35290082,-3.64153152e-14 L27.6617052,-3.64153152e-14 C29.7320313,-3.64153152e-14 30.661053,0.951086957 30.661053,2.9651087 L30.661053,15.6548913" id="Stroke-9"></path>
                <path d="M11.1586726,16.1494565 C15.1844334,16.233913 34.4587813,16.1494565 34.4587813,16.1494565 C34.4587813,16.1494565 33.6994334,19.6205435 30.6605204,19.985 C29.7254117,20.1059783 19.6811726,20.066413 11.3785639,20.0268478" id="Stroke-11"></path>
                <polygon id="Stroke-13" points="15.5050639 4.7593913 15.5324552 9.03471739 16.8312595 7.73591304 21.1020204 12.0066739 22.8086508 10.3008043 18.5371291 6.03004348 19.7811508 4.78678261"></polygon>
            </g>
        </g>
    </g>
</svg>