<?xml version="1.0" encoding="UTF-8"?>
<svg width="31px" height="30px" viewBox="0 0 31 30" version="1.1" xmlns="http://www.w3.org/2000/svg" xmlns:xlink="http://www.w3.org/1999/xlink">
    <!-- Generator: Sketch 61.1 (89650) - https://sketch.com -->
    <desc>Created with Sketch.</desc>
    <g id="页面-1" stroke="none" stroke-width="1" fill="none" fill-rule="evenodd" stroke-linecap="round" stroke-linejoin="round">
        <g id="导航栏" transform="translate(-120.000000, -1023.000000)" stroke="#FFFFFF">
            <g id="编组" transform="translate(121.000000, 1024.000000)">
                <path d="M29.4993,20.25705 C29.4993,24.2793 26.2383,27.54105 22.2153,27.54105 C18.19305,27.54105 14.93205,24.2793 14.93205,20.25705 C14.93205,16.2348 18.19305,12.97305 22.2153,12.97305 C26.2383,12.97305 29.4993,16.2348 29.4993,20.25705 Z" id="Stroke-1"></path>
                <path d="M17.04045,25.84245 L2.6442,25.84245 C1.18995,25.84245 -0.0003,24.6522 -0.0003,23.19795 L-0.0003,4.8492 C-0.0003,3.3942 1.18995,2.2047 2.6442,2.2047 L5.8962,2.2047" id="Stroke-3"></path>
                <path d="M14.542875,2.205 L17.607375,2.205 C19.061625,2.205 20.251875,3.3945 20.251875,4.84875 L20.251875,13.04625" id="Stroke-5"></path>
                <path d="M5.229075,3.79875 C5.229075,3.79875 5.682075,0.80625 8.675325,0.80625 C8.675325,0.80625 9.944325,-1.00725 11.758575,0.80625 C11.758575,0.80625 14.297325,0.21675 14.931825,3.79875 L5.229075,3.79875 Z" id="Stroke-7"></path>
                <line x1="5.10855" y1="8.7675" x2="12.74355" y2="8.7675" id="Stroke-9"></line>
                <line x1="5.10855" y1="12.8574" x2="12.74355" y2="12.8574" id="Stroke-11"></line>
                <line x1="5.10855" y1="16.947975" x2="12.74355" y2="16.947975" id="Stroke-13"></line>
                <line x1="5.10855" y1="21.358575" x2="9.49455" y2="21.358575" id="Stroke-15"></line>
                <polyline id="Stroke-17" points="19.729875 16.920075 22.215375 19.464825 24.709875 16.920075"></polyline>
                <line x1="18.97005" y1="20.703075" x2="25.4613" y2="20.703075" id="Stroke-19"></line>
                <line x1="18.97005" y1="22.6689" x2="25.4613" y2="22.6689" id="Stroke-21"></line>
                <line x1="22.215375" y1="19.464525" x2="22.215375" y2="24.597525" id="Stroke-23"></line>
            </g>
        </g>
    </g>
</svg>