<?xml version="1.0" encoding="UTF-8"?>
<svg width="26px" height="25px" viewBox="0 0 26 25" version="1.1" xmlns="http://www.w3.org/2000/svg" xmlns:xlink="http://www.w3.org/1999/xlink">
    <title>红包记录1</title>
    <g id="页面-1" stroke="none" stroke-width="1" fill="none" fill-rule="evenodd">
        <g id="红包记录1" fill="#FFFFFF" fill-rule="nonzero">
            <path d="M7.48007127,4.20918966 L18.5199287,4.20918966 C18.8486738,4.20918966 19.1176471,3.95035728 19.1176471,3.63400659 C19.1176471,3.31765591 18.8486738,3.05882353 18.5199287,3.05882353 L7.48007127,3.05882353 C7.15132619,3.05882353 6.88235294,3.31765591 6.88235294,3.63400659 C6.88235294,3.95035728 7.15132619,4.20918966 7.48007127,4.20918966 Z M7.48007127,6.8837909 L14.0699158,6.8837909 C14.3986609,6.8837909 14.6676341,6.62495852 14.6676341,6.30860784 C14.6676341,5.99225715 14.3986609,5.73342477 14.0699158,5.73342477 L7.48007127,5.73342477 C7.15132619,5.73342477 6.88235294,5.99225715 6.88235294,6.30860784 C6.88235294,6.62495852 7.15132619,6.8837909 7.48007127,6.8837909 Z M7.48007127,9.56126806 L10.7346475,9.56126806 C11.0633926,9.56126806 11.3323659,9.30243568 11.3323659,8.98608499 C11.3323659,8.66973431 11.0633926,8.41090193 10.7346475,8.41090193 L7.48007127,8.41090193 C7.15132619,8.41090193 6.88235294,8.66973431 6.88235294,8.98608499 C6.88235294,9.30243568 7.15132619,9.56126806 7.48007127,9.56126806 Z M15.1637403,13.4897684 L14.2253226,13.4897684 L14.8409724,12.8973298 C15.0740826,12.6730084 15.0740826,12.3077672 14.8409724,12.0834458 C14.6078623,11.8591244 14.2283112,11.8591244 13.995201,12.0834458 L12.9820685,13.0583811 L11.9689359,12.0834458 C11.7358257,11.8591244 11.3562746,11.8591244 11.1231645,12.0834458 C10.8900543,12.3077672 10.8900543,12.6730084 11.1231645,12.8973298 L11.7388143,13.4897684 L10.8003966,13.4897684 C10.4716515,13.4897684 10.2026782,13.7486008 10.2026782,14.0649514 C10.2026782,14.3813021 10.4716515,14.6401345 10.8003966,14.6401345 L12.3843501,14.6401345 L12.3843501,15.0945291 L10.8003966,15.0945291 C10.4716515,15.0945291 10.2026782,15.3533615 10.2026782,15.6697122 C10.2026782,15.9860629 10.4716515,16.2448953 10.8003966,16.2448953 L12.3843501,16.2448953 L12.3843501,17.7777581 C12.3843501,18.0941088 12.6533234,18.3529412 12.9820685,18.3529412 C13.3108135,18.3529412 13.5797868,18.0941088 13.5797868,17.7777581 L13.5797868,16.2448953 L15.1637403,16.2448953 C15.4924854,16.2448953 15.7614587,15.9860629 15.7614587,15.6697122 C15.7614587,15.3533615 15.4924854,15.0945291 15.1637403,15.0945291 L13.5797868,15.0945291 L13.5797868,14.6401345 L15.1637403,14.6401345 C15.4924854,14.6401345 15.7614587,14.3813021 15.7614587,14.0649514 C15.7614587,13.7486008 15.4924854,13.4897684 15.1637403,13.4897684 L15.1637403,13.4897684 Z" id="形状"></path>
            <path d="M25.9941964,10.8459605 L25.9941964,10.4362435 C25.9941964,9.52736411 25.2484375,8.78583395 24.334375,8.78583395 L22.2160714,8.78583395 L22.2160714,1.65040953 C22.2160714,0.741530156 21.4703125,0 20.55625,0 L5.43794643,0 C4.52388393,0 3.778125,0.741530156 3.778125,1.65040953 L3.778125,8.78583395 L1.65982143,8.78583395 C0.745758929,8.78583395 0,9.52736411 0,10.4362435 L0,22.0554728 C0,22.9643522 0.745758929,23.7058824 1.65982143,23.7058824 L24.3401786,23.7058824 C25.2542411,23.7058824 26,22.9643522 26,22.0554728 L26,10.8603872 C25.9941964,10.8575019 25.9941964,10.8517312 25.9941964,10.8459605 Z M24.334375,9.93996649 C24.6100446,9.93996649 24.8334821,10.162137 24.8334821,10.4362435 L24.8334821,10.5228034 L22.2131696,11.9856664 L22.2131696,9.93996649 L24.334375,9.93996649 L24.334375,9.93996649 Z M5.43504464,1.15413254 L20.5533482,1.15413254 C20.8290179,1.15413254 21.0524554,1.37630305 21.0524554,1.65040953 L21.0524554,12.6319806 L18.2,14.2246835 C17.7502232,11.7606106 15.5825893,9.89091586 12.9767857,9.89091586 C10.4058036,9.89091586 8.26138393,11.7086746 7.77098214,14.1236969 L4.9359375,12.53965 L4.9359375,1.65040953 C4.9359375,1.37630305 5.159375,1.15413254 5.43504464,1.15413254 Z M17.1263393,15.1739576 C17.1263393,16.2761541 16.6939732,17.3119881 15.9104911,18.0910276 C15.1270089,18.870067 14.0852679,19.2999814 12.9767857,19.2999814 C11.8683036,19.2999814 10.8265625,18.870067 10.0430804,18.0910276 C9.25959821,17.3119881 8.82723214,16.2761541 8.82723214,15.1739576 C8.82723214,14.071761 9.25959821,13.035927 10.0430804,12.2568876 C10.8265625,11.4778481 11.8683036,11.0479337 12.9767857,11.0479337 C14.0852679,11.0479337 15.1270089,11.4778481 15.9104911,12.2568876 C16.6939732,13.035927 17.1263393,14.071761 17.1263393,15.1739576 L17.1263393,15.1739576 Z M1.65401786,9.93996649 L3.77232143,9.93996649 L3.77232143,11.8962211 L1.15491071,10.4333582 C1.1578125,10.1592517 1.38125,9.93996649 1.65401786,9.93996649 Z M24.334375,22.5517498 L1.65401786,22.5517498 C1.37834821,22.5517498 1.15491071,22.3295793 1.15491071,22.0554728 L1.15491071,11.7577252 L4.06540179,13.3821668 L4.0828125,13.3908228 L7.66941964,15.3932427 C7.78549107,18.2064408 10.115625,20.4512286 12.9738839,20.4512286 C15.7944196,20.4512286 18.0984375,18.2670328 18.2725446,15.5057707 L24.8306083,11.8442852 L24.8306083,22.0525875 C24.8334821,22.3295793 24.6100446,22.5517498 24.334375,22.5517498 Z" id="形状"></path>
        </g>
    </g>
</svg>