<?xml version="1.0" encoding="UTF-8"?>
<svg width="30px" height="32px" viewBox="0 0 30 32" version="1.1" xmlns="http://www.w3.org/2000/svg" xmlns:xlink="http://www.w3.org/1999/xlink">
    <!-- Generator: Sketch 61.1 (89650) - https://sketch.com -->
    <desc>Created with Sketch.</desc>
    <g id="页面-1" stroke="none" stroke-width="1" fill="none" fill-rule="evenodd" stroke-linecap="round" stroke-linejoin="round">
        <g id="导航栏" transform="translate(-121.000000, -1411.000000)" stroke="rgb(153, 153, 153)">
            <g id="编组" transform="translate(122.000000, 1412.000000)">
                <path d="M27.5484222,22.1190667 C27.5484222,26.3097333 24.1518667,29.7062889 19.9612,29.7062889 C15.7713111,29.7062889 12.3747556,26.3097333 12.3747556,22.1190667 C12.3747556,17.9291778 15.7713111,14.5326222 19.9612,14.5326222 C24.1518667,14.5326222 27.5484222,17.9291778 27.5484222,22.1190667 Z" id="Stroke-1"></path>
                <polyline id="Stroke-3" points="17.3355778 18.2187444 20.1021333 21.0514111 22.8788 18.2187444"></polyline>
                <line x1="16.4894333" y1="22.4297111" x2="23.7149889" y2="22.4297111" id="Stroke-5"></line>
                <line x1="16.4894333" y1="24.6187667" x2="23.7149889" y2="24.6187667" id="Stroke-7"></line>
                <line x1="20.1022111" y1="21.0511" x2="20.1022111" y2="26.7654333" id="Stroke-9"></line>
                <path d="M13.2825778,26.4371333 L3.00735556,26.4371333 C3.00735556,26.4371333 2.70946667,25.3809111 2.11913333,24.5720222 C1.33668889,23.4994667 -0.000311111111,23.1735778 -0.000311111111,23.1735778 L-0.000311111111,3.5028 C-0.000311111111,3.5028 1.3328,2.77946667 1.98846667,1.79557778 C2.25291111,1.39813333 2.64413333,0.000466666667 2.64413333,0.000466666667 L18.9938,0.000466666667 C18.9938,0.000466666667 19.2395778,0.922911111 19.9994667,1.83913333 C20.6333556,2.60446667 21.9960222,3.0198 21.9960222,3.0198 L21.9960222,14.5324667" id="Stroke-11"></path>
                <line x1="3.95266667" y1="5.28748889" x2="6.82033333" y2="8.15515556" id="Stroke-13"></line>
                <line x1="6.82033333" y1="5.28748889" x2="3.95266667" y2="8.15515556" id="Stroke-15"></line>
                <line x1="9.9505" y1="5.28748889" x2="12.8181667" y2="8.15515556" id="Stroke-17"></line>
                <line x1="12.8181667" y1="5.28748889" x2="9.9505" y2="8.15515556" id="Stroke-19"></line>
                <line x1="15.9482556" y1="5.28748889" x2="18.8159222" y2="8.15515556" id="Stroke-21"></line>
                <line x1="18.8159222" y1="5.28748889" x2="15.9482556" y2="8.15515556" id="Stroke-23"></line>
                <line x1="3.95266667" y1="12.9839889" x2="6.82033333" y2="15.8516556" id="Stroke-25"></line>
                <line x1="6.82033333" y1="12.9839889" x2="3.95266667" y2="15.8516556" id="Stroke-27"></line>
                <line x1="9.9505" y1="12.9839889" x2="12.8181667" y2="15.8516556" id="Stroke-29"></line>
                <line x1="12.8181667" y1="12.9839889" x2="9.9505" y2="15.8516556" id="Stroke-31"></line>
                <line x1="4.70197778" y1="19.3246667" x2="9.15475556" y2="19.3246667" id="Stroke-33"></line>
                <line x1="4.70197778" y1="21.9474111" x2="7.69797778" y2="21.9474111" id="Stroke-35"></line>
            </g>
        </g>
    </g>
</svg>