<?xml version="1.0" encoding="UTF-8"?>
<svg width="40px" height="39px" viewBox="0 0 40 39" version="1.1" xmlns="http://www.w3.org/2000/svg" xmlns:xlink="http://www.w3.org/1999/xlink">
    <!-- Generator: Sketch 61.1 (89650) - https://sketch.com -->
    <desc>Created with Sketch.</desc>
    <defs>
        <linearGradient x1="98.6476089%" y1="68.1500956%" x2="66.4462003%" y2="64.1458531%" id="linearGradient-1">
            <stop stop-color="#FFFFFF" offset="0%"></stop>
            <stop stop-color="#9AB8FA" offset="100%"></stop>
        </linearGradient>
        <linearGradient x1="94.8661804%" y1="37.7418518%" x2="43.8785456%" y2="100%" id="linearGradient-2">
            <stop stop-color="#FFFFFF" offset="0%"></stop>
            <stop stop-color="#9AB8FA" offset="100%"></stop>
        </linearGradient>
        <linearGradient x1="81.1230659%" y1="3.61938477%" x2="36.2615108%" y2="93.737793%" id="linearGradient-3">
            <stop stop-color="#FFFFFF" offset="0%"></stop>
            <stop stop-color="#9AB8FA" offset="100%"></stop>
        </linearGradient>
        <polygon id="path-4" points="0 -0.000280406524 19.9412034 -0.000280406524 19.9412034 28.5945488 0 28.5945488"></polygon>
        <linearGradient x1="21.4694801%" y1="4.07388637%" x2="67.0713273%" y2="95.5745738%" id="linearGradient-6">
            <stop stop-color="#FFFFFF" offset="0%"></stop>
            <stop stop-color="#9AB8FA" offset="100%"></stop>
        </linearGradient>
        <polygon id="path-7" points="0 9.34688414e-05 11.5365202 9.34688414e-05 11.5365202 14.6830203 0 14.6830203"></polygon>
        <linearGradient x1="43.8785456%" y1="20.4713025%" x2="43.8785456%" y2="100%" id="linearGradient-9">
            <stop stop-color="#FFFFFF" offset="0%"></stop>
            <stop stop-color="#9AB8FA" offset="100%"></stop>
        </linearGradient>
        <linearGradient x1="50%" y1="120.188906%" x2="36.312525%" y2="10.6735255%" id="linearGradient-10">
            <stop stop-color="#FFFFFF" offset="0%"></stop>
            <stop stop-color="#9AB8FA" offset="100%"></stop>
        </linearGradient>
    </defs>
    <g id="页面-1" stroke="none" stroke-width="1" fill="none" fill-rule="evenodd">
        <g id="导航栏" transform="translate(-51.000000, -1253.000000)">
            <g id="编组-7备份-2" transform="translate(51.000000, 1253.000000)">
                <path d="M14.1850768,33.457258 L7.36978922,21.239492 C6.57027802,19.8055606 7.11087278,17.9886885 8.57047862,17.2032408 L28.7062107,6.36350234 C30.166765,5.57805456 32.0152197,6.10820852 32.8156793,7.54213988 L39.6300185,19.7599059 C40.4295297,21.1938373 39.8898833,23.0107094 38.4293291,23.7961571 L18.293597,34.6358955 C16.8339911,35.4222751 14.984588,34.8921211 14.1850768,33.457258" id="Fill-1" fill="url(#linearGradient-1)"></path>
                <path d="M18.0641697,33.1668867 L7.91627984,23.4503054 C6.72557147,22.3100418 6.69068928,20.4096024 7.83897336,19.2262747 L23.6811455,2.91058159 C24.8303724,1.72725383 26.7451219,1.69261529 27.9358303,2.83381507 L38.0837202,12.5494602 C39.2744285,13.69066 39.3093107,15.5910993 38.1610266,16.7744271 L22.3179117,33.0901201 C21.1696276,34.2725117 19.2558208,34.3071503 18.0641697,33.1668867" id="Fill-1" fill="url(#linearGradient-2)"></path>
                <path d="M22.3400347,31.8299474 L9.01025308,27.1617073 C7.44521416,26.6142093 6.6187223,24.8987153 7.17192337,23.3498104 L14.8079894,1.98989794 C15.3621361,0.440993098 17.0945538,-0.377914295 18.6595927,0.170519685 L31.9893744,4.83782387 C33.5544133,5.38625785 34.3818508,7.10081596 33.8277041,8.6497208 L26.1916381,30.0105692 C25.638437,31.5585381 23.9050737,32.3774455 22.3400347,31.8299474" id="Fill-1" fill="url(#linearGradient-3)"></path>
                <g id="编组" transform="translate(5.000000, 1.000000)">
                    <mask id="mask-5" fill="white">
                        <use xlink:href="#path-4"></use>
                    </mask>
                    <g id="Clip-2"></g>
                    <path d="M16.9586127,28.5945488 L2.98315154,28.5945488 C1.34183869,28.5945488 -0.000373875366,27.2523362 -0.000373875366,25.611958 L-0.000373875366,2.98315154 C-0.000373875366,1.34183869 1.34183869,-0.000373875366 2.98315154,-0.000373875366 L16.9586127,-0.000373875366 C18.5989909,-0.000373875366 19.9412034,1.34183869 19.9412034,2.98315154 L19.9412034,25.611958 C19.9412034,27.2523362 18.5989909,28.5945488 16.9586127,28.5945488" id="Fill-1" fill="url(#linearGradient-6)" mask="url(#mask-5)"></path>
                </g>
                <g id="编组" transform="translate(10.000000, 8.000000)">
                    <mask id="mask-8" fill="white">
                        <use xlink:href="#path-7"></use>
                    </mask>
                    <g id="Clip-2"></g>
                    <path d="M5.47353535,0.306671269 C5.47353535,0.306671269 3.41027832,5.13977051 2.7533531e-14,7.58789401 C2.7533531e-14,7.58789401 4.21325684,10 5.47353535,14.6831138 C5.47353535,14.6831138 7,9.65808105 11.4966675,7.58789401 C10.1678467,6.76879883 7,4.4699707 5.47353535,9.34688414e-05" id="Fill-1" fill="#0A1E3E" mask="url(#mask-8)"></path>
                </g>
                <g id="编组" transform="translate(0.000000, 22.000000)">
                    <path d="M8.16824205,0 C12.6762443,0 16.3364841,3.66023983 16.3364841,8.16824205 C16.3364841,12.677179 12.6762443,16.3374188 8.16824205,16.3374188 C3.66023983,16.3374188 0,12.677179 0,8.16824205 C0,3.66023983 3.66023983,0 8.16824205,0" id="Fill-1" fill="url(#linearGradient-9)"></path>
                    <path d="M11.9448515,8.38415507 C11.9448515,10.591475 10.153116,12.3841551 7.94485152,12.3841551 C5.73753156,12.3841551 3.94485152,10.591475 3.94485152,8.38415507 C3.94485152,6.17589061 5.73753156,4.38415507 7.94485152,4.38415507 C10.153116,4.38415507 11.9448515,6.17589061 11.9448515,8.38415507 Z" id="Fill-1" fill="url(#linearGradient-10)"></path>
                </g>
            </g>
        </g>
    </g>
</svg>