<?xml version="1.0" encoding="UTF-8"?>
<svg width="42px" height="37px" viewBox="0 0 42 37" version="1.1" xmlns="http://www.w3.org/2000/svg" xmlns:xlink="http://www.w3.org/1999/xlink">
    <!-- Generator: Sketch 61.1 (89650) - https://sketch.com -->
    <desc>Created with Sketch.</desc>
    <defs>
        <linearGradient x1="29.4348454%" y1="35.4977433%" x2="86.065075%" y2="65.7542804%" id="linearGradient-1">
            <stop stop-color="#FFFFFF" offset="0%"></stop>
            <stop stop-color="#9AB8FA" offset="100%"></stop>
        </linearGradient>
        <linearGradient x1="30.3276337%" y1="40.1221726%" x2="73.3836269%" y2="59.678395%" id="linearGradient-2">
            <stop stop-color="#FFFFFF" offset="0%"></stop>
            <stop stop-color="#9AB8FA" offset="100%"></stop>
        </linearGradient>
    </defs>
    <g id="页面-1" stroke="none" stroke-width="1" fill="none" fill-rule="evenodd">
        <g id="导航栏" transform="translate(-50.000000, -233.000000)">
            <g id="编组-2" transform="translate(50.000000, 233.000000)">
                <path d="M6.00845178,19.6 L6.00845178,34.5331467 C6.00845178,34.5331467 5.77791845,36.6779467 7.72485178,36.6779467 L14.8779184,36.6779467 C14.8779184,36.6779467 16.6755184,36.5622133 16.6755184,34.7646133 L16.6755184,27.3446133 C16.6755184,27.3446133 16.4655184,25.6058133 18.4143184,25.6058133 L23.9209851,25.6058133 C23.9209851,25.6058133 25.3125851,25.7215467 25.3125851,27.3446133 L25.3125851,34.7646133 C25.3125851,34.7646133 25.1697851,36.6779467 26.9132518,36.6779467 L34.7168518,36.6779467 C34.7168518,36.6779467 36.4435184,36.9682133 36.4435184,34.5331467 L36.4435184,19.6 L6.00845178,19.6 Z" id="Fill-1" fill="url(#linearGradient-1)"></path>
                <path d="M22.7073097,0.729869559 C22.7073097,0.729869559 20.8817097,-0.953863775 18.8909097,0.793336225 L0.868836332,17.7786214 C0.868836332,17.7786214 -1.59295566,20.0573362 1.77123705,20.0573362 L40.081255,20.0573362 C41.6963591,20.0573362 42.0468148,18.7900553 41.0084359,17.7786214 L22.7073097,0.729869559 Z" id="Fill-1" fill="url(#linearGradient-2)"></path>
            </g>
        </g>
    </g>
</svg>