<?xml version="1.0" encoding="UTF-8"?>
<svg width="28px" height="28px" viewBox="0 0 28 28" version="1.1" xmlns="http://www.w3.org/2000/svg" xmlns:xlink="http://www.w3.org/1999/xlink">
    <!-- Generator: Sketch 56.3 (81716) - https://sketch.com -->
    <title>bb_home_pre</title>
    <desc>Created with Sketch.</desc>
    <g id="页面-1" stroke="none" stroke-width="1" fill="none" fill-rule="evenodd">
        <g id="切图" transform="translate(-106.000000, -126.000000)">
            <g id="bb_home_pre" transform="translate(106.000000, 125.000000)">
                <rect id="矩形" x="0" y="0" width="28" height="28"></rect>
                <path d="M25.8742337,12.1994018 L15.502567,1.55760696 C14.7772486,0.814131012 13.6378854,0.814131012 12.912567,1.55760696 L2.54090033,12.1994018 C2.0145986,12.7742126 1.8560324,13.6309821 2.13748073,14.3791704 C2.41892905,15.1273588 3.08650181,15.6237072 3.83590033,15.641966 L4.29090033,15.641966 L4.29090033,25.9570942 C4.18183079,27.0765701 4.9321519,28.0810064 5.97090033,28.2060685 L10.3692337,28.2060685 C11.4079821,28.0810064 12.1583032,27.0765701 12.0492337,25.9570942 L12.0492337,19.4740172 C12.0492337,18.9086326 12.317567,18.4814531 12.562567,18.4814531 L15.852567,18.4814531 C16.097567,18.4814531 16.3659003,18.9086326 16.3659003,19.4740172 L16.3659003,25.9947865 C16.2771407,27.1003066 17.0220975,28.0808481 18.0459003,28.2060685 L22.4442337,28.2060685 C23.4829821,28.0810064 24.2333032,27.0765701 24.1242337,25.9570942 L24.1242337,15.641966 L24.5792337,15.641966 C25.3286322,15.6237072 25.996205,15.1273588 26.2776533,14.3791704 C26.5591016,13.6309821 26.4005354,12.7742126 25.8742337,12.1994018 Z" id="路径" fill="#63B0F5" fill-rule="nonzero"></path>
            </g>
        </g>
    </g>
</svg>