<?xml version="1.0" encoding="UTF-8"?>
<svg width="27px" height="26px" viewBox="0 0 27 26" version="1.1" xmlns="http://www.w3.org/2000/svg" xmlns:xlink="http://www.w3.org/1999/xlink">
    <!-- Generator: Sketch 61.1 (89650) - https://sketch.com -->
    <desc>Created with Sketch.</desc>
    <g id="页面-1" stroke="none" stroke-width="1" fill="none" fill-rule="evenodd">
        <g id="导航栏" transform="translate(-122.000000, -2214.000000)">
            <g id="编组" transform="translate(123.000000, 2215.000000)">
                <path d="M16.4732895,22.4879605 L2.42855263,22.4879605 C1.09302632,22.4879605 -0.000394736842,21.3951974 -0.000394736842,20.0596711 L-0.000394736842,2.42875 C-0.000394736842,1.09256579 1.09302632,-0.000197368421 2.42855263,-0.000197368421 L16.5963158,-0.000197368421 C17.9318421,-0.000197368421 19.0246053,1.09256579 19.0246053,2.42875 L19.0246053,15.8425658" id="Stroke-1" stroke="#FFFFFF" stroke-linecap="round" stroke-linejoin="round"></path>
                <path d="M19.4482237,16.5425 C19.4482237,16.5425 19.9192763,14.6596053 22.7126974,14.8477632 C25.0929605,15.0082895 25.4120395,17.9865789 24.3449342,19.6188158 C23.2778289,21.2510526 19.4482237,24.3273684 19.4482237,24.3273684 C19.4482237,24.3273684 14.5442763,20.6813158 13.7982237,18.9911842 C12.7311184,16.5740789 14.37125,15.0017105 15.8699342,14.8477632 C18.0041447,14.6280263 19.4482237,16.5425 19.4482237,16.5425 Z" id="Stroke-3" stroke="#FFFFFF" stroke-linecap="round" stroke-linejoin="round"></path>
                <line x1="6.84322368" y1="4.89125" x2="14.5471711" y2="4.89125" id="Stroke-5" stroke="#FFFFFF" stroke-linecap="round" stroke-linejoin="round"></line>
                <line x1="6.65368421" y1="13.6282895" x2="12.1385526" y2="13.6282895" id="Stroke-7" stroke="#FFFFFF" stroke-linecap="round" stroke-linejoin="round"></line>
                <line x1="6.84322368" y1="17.9964474" x2="10.3596711" y2="17.9964474" id="Stroke-9" stroke="#FFFFFF" stroke-linecap="round" stroke-linejoin="round"></line>
                <line x1="6.84322368" y1="9.25940789" x2="14.5471711" y2="9.25940789" id="Stroke-15" stroke="#FFFFFF" stroke-linecap="round" stroke-linejoin="round"></line>
                <path d="M4.50006579,4.89125 C4.50006579,5.37546053 4.10730263,5.76822368 3.62309211,5.76822368 C3.13822368,5.76822368 2.74546053,5.37546053 2.74546053,4.89125 C2.74546053,4.40703947 3.13822368,4.01361842 3.62309211,4.01361842 C4.10730263,4.01361842 4.50006579,4.40703947 4.50006579,4.89125" id="Fill-11" fill="#FFFFFF"></path>
                <path d="M4.50006579,13.6282895 C4.50006579,14.1125 4.10730263,14.5052632 3.62309211,14.5052632 C3.13822368,14.5052632 2.74546053,14.1125 2.74546053,13.6282895 C2.74546053,13.1440789 3.13822368,12.7506579 3.62309211,12.7506579 C4.10730263,12.7506579 4.50006579,13.1440789 4.50006579,13.6282895" id="Fill-13" fill="#FFFFFF"></path>
                <path d="M4.50006579,9.25940789 C4.50006579,9.74361842 4.10730263,10.1370395 3.62309211,10.1370395 C3.13822368,10.1370395 2.74546053,9.74361842 2.74546053,9.25940789 C2.74546053,8.77519737 3.13822368,8.38243421 3.62309211,8.38243421 C4.10730263,8.38243421 4.50006579,8.77519737 4.50006579,9.25940789" id="Fill-17" fill="#FFFFFF"></path>
                <path d="M4.50006579,17.9964474 C4.50006579,18.4806579 4.10730263,18.8740789 3.62309211,18.8740789 C3.13822368,18.8740789 2.74546053,18.4806579 2.74546053,17.9964474 C2.74546053,17.5122368 3.13822368,17.1194737 3.62309211,17.1194737 C4.10730263,17.1194737 4.50006579,17.5122368 4.50006579,17.9964474" id="Fill-19" fill="#FFFFFF"></path>
            </g>
        </g>
    </g>
</svg>