<?xml version="1.0" encoding="UTF-8"?>
<svg width="57px" height="64px" viewBox="0 0 57 64" version="1.1" xmlns="http://www.w3.org/2000/svg" xmlns:xlink="http://www.w3.org/1999/xlink">
    <title>形状结合备份 268</title>
    <g id="页面-1" stroke="none" stroke-width="1" fill="none" fill-rule="evenodd">
        <path d="M36.1449665,63.9899363 L36.144,63.988 L18.8799198,63.9885805 L18.8799198,61.2738278 L21.4062002,61.2738278 C23.3428475,61.2738278 25.1354815,59.8899559 25.24912,57.8895255 L25.2548304,57.6874557 L25.2548304,54.5589973 C27.3038668,54.0694857 29.3555222,53.0925059 31.2149492,51.8904172 L31.6103845,51.6294769 L31.6103845,57.6874557 C31.6103845,59.5814766 32.90557,61.0846644 35.0255547,61.2604198 L35.2477864,61.2738278 L35.7984634,61.2730496 C35.7967572,61.2737183 35.7950494,61.2743881 35.79334,61.2750589 C36.5824192,61.2828493 37.4608904,61.2896236 38.3920091,61.2732961 L38.637356,61.2739789 L38.7193338,61.2684453 L38.9381012,61.2726839 C41.9667709,61.1981596 44.239057,60.9223745 45.7549596,60.4453288 C48.6810906,59.5244925 52.1443949,57.7695224 53.0633437,53.3927126 C53.6759761,50.4748394 53.0029107,47.8816918 51.0441473,45.6132698 C55.1527065,48.7313403 56.5035053,52.2865177 55.0965438,56.2788018 C53.0244731,62.1583474 46.2824868,63.9258822 43.0071724,63.9882126 L42.8288287,63.9899363 L42.712011,63.9896343 C42.5659194,63.9952495 42.4337419,63.9981632 42.3169096,63.9993529 L42.0410323,63.9990768 C41.8656084,63.9967999 41.7562337,63.9910287 41.7246484,63.9891683 L36.1449665,63.9899363 Z M42.3580907,37.12708 C43.0362386,41.4124608 45.1211065,42.9404576 47.2002175,44.1321344 L47.5464405,44.3280482 C47.7192831,44.4248632 47.8915409,44.5202767 48.0623963,44.6156898 L48.4019952,44.8069306 C48.7954473,45.0310128 49.1782978,45.2601781 49.5401624,45.5122253 C52.1249098,47.3125628 53.5068454,51.1702935 51.4574721,55.5221569 C49.1317088,59.3247714 44.9369773,60.139775 41.9963586,60.6235459 C48.0116086,59.1557451 49.4842446,56.204019 49.8435481,55.0856475 C50.2028516,53.967276 50.2028516,52.6569523 49.1664875,51.8173457 C48.1301234,50.9777392 46.0551946,52.1224762 44.9369773,52.0499667 C43.81876,51.9774572 43.4256446,51.4692015 43.4443992,50.9035928 C43.4631538,50.3379841 43.4256446,49.8819146 43.2999628,49.6800591 C43.1785789,49.3920017 42.5428764,49.4627889 42.3580907,49.116896 C42.2756053,48.9683376 42.1275404,48.4771932 42.9428693,48.3376425 C41.618612,48.3843218 41.7710573,47.6213311 41.7710573,47.4403371 C41.7710573,47.2593432 42.7817188,46.0281883 41.4076918,45.7669559 C40.1481671,45.5274929 40.3226412,45.1161359 40.5827719,44.6660113 L40.6548274,44.5423888 C40.9434397,44.0448547 42.4120596,43.5693294 42.1475855,41.7620949 C41.8843226,40.4268045 41.6533295,38.5542212 42.3580907,37.12708 Z M49.8174694,15.4194891 C52.6912063,17.7357986 54.4136507,21.2664183 54.3460238,24.980275 C54.449278,30.1262639 51.0300134,34.6481456 46.6061533,36.4116319 L46.5037829,36.4503015 C46.5212906,36.4545421 46.5388559,36.4588009 46.5564789,36.4630781 C50.4270937,37.4024879 53.9546611,40.5441193 55.6611677,44.7531059 C57.3676743,48.9620925 56.5591219,51.9777087 56.0956686,53.7458682 C56.30625,47.7685707 52.2651859,45.2183086 49.9599616,44.2496978 C47.6547373,43.2810869 46.303125,42.7563976 44.7413696,40.9899953 C43.7499897,39.8687085 43.0323048,38.2346099 42.5883149,36.0876995 L42.5609773,36.0824621 C42.555671,36.0154982 42.551102,35.9482466 42.5472706,35.8807073 C42.5389832,35.8414534 42.5311898,35.8009861 42.5234899,35.7603436 L42.5406044,35.7444254 L42.5406044,35.7444254 L42.5396248,35.7214771 L42.5396248,35.7214771 C42.8092622,35.449545 43.1179904,35.1382175 43.4658093,34.7874946 L43.4998517,34.7514953 C43.8903561,34.3380365 44.2607875,34.0056243 45.0321439,33.026164 C46.7042069,30.9644723 47.4581331,27.8900987 47.4581331,25.8983598 C47.5765525,21.4484559 46.5071204,19.0067394 45.1239436,17.0824127 C44.0977156,15.6546865 42.6390544,15.1830029 41.9545409,15.0346359 L41.7943266,15.0028497 C41.6814733,14.9826224 41.6069068,14.9740806 41.5815943,14.9714729 L41.5720164,14.97054 L31.629741,14.97054 C31.647025,19.0329629 31.6562072,22.7000121 31.6572875,25.9716878 L31.6572875,27.2592714 C31.6562072,30.4255141 31.647025,33.1963832 31.629741,35.5718786 C31.5754023,43.0401028 25.4746427,47.0867737 25.2605977,47.2264636 L25.2548304,47.2302066 L25.2549606,47.155793 L25.255007,47.1292596 L25.2559527,46.5873128 L25.2560763,46.5163869 L25.2567818,46.1111318 C25.2568853,46.0516107 25.2569925,45.9899407 25.2571034,45.9261772 L25.2578109,45.518914 C25.2581854,45.3031622 25.2585906,45.0695615 25.2590236,44.8196023 L25.259926,44.298314 C25.2641466,41.8583404 25.2704762,38.1738125 25.2769167,34.3312852 L25.278349,33.475231 C25.2788265,33.1893071 25.2793038,32.9029579 25.27978,32.616625 L25.281205,31.7581168 C25.286886,28.3278126 25.292304,24.9634501 25.2960557,22.4281515 L25.2969581,21.8120406 C25.2973911,21.5130629 25.2977963,21.2280329 25.2981708,20.9584412 L25.2988783,20.4402838 L25.2990419,20.3174875 L25.2997759,19.7460351 C25.2998642,19.6747049 25.2999486,19.605366 25.300029,19.5380737 L25.3009215,18.6890832 C25.3009592,18.6436368 25.3009925,18.6005129 25.3010211,18.5597669 L25.3011513,18.2587433 C25.3280824,16.5832838 23.5570084,14.939899 21.8736265,14.9762311 C21.4736372,14.9778682 21.1313361,14.9794508 20.8114866,14.9802769 L20.191283,14.9807125 C19.865337,14.980185 19.5382086,14.9782644 19.167134,14.9740986 L18.8799198,14.97054 L18.8799198,12.7062083 L40.5111953,12.7062083 C43.9266432,12.481462 46.9437324,13.1031795 49.8174694,15.4194891 Z M20.5129992,4.97034165e-05 C30.4066004,-0.0131575546 35.9277952,8.40317176 36.8953986,10.316164 L36.9362438,10.3985873 L31.4270516,10.3985873 C31.0259851,9.33440349 29.1065383,6.69431591 28.3349681,5.96685237 C26.5908129,4.32240166 24.3300026,2.22577029 20.4736099,2.22577029 C16.6172171,2.22577029 12.814919,4.813942 10.0427703,9.71438505 C7.27062153,14.6148281 6.03541958,20.3270644 6.03541958,26.2615188 C5.97556684,31.8916359 7.53682414,38.6121142 9.85661054,42.8395229 C12.1763969,47.0669316 16.2073746,50.5909342 20.5598945,50.5909342 C22.5288585,50.5909342 26.9120769,49.7255681 30.5565035,44.0454209 C32.1013337,41.6376723 33.6770463,37.6831851 34.2254018,34.8331805 C34.884418,31.4080316 35.1413462,28.7044424 35.1217872,25.4113499 C35.125993,22.4735467 34.6413661,20.0770758 34.0371117,17.339884 C37.408101,17.339884 39.3638647,17.3585434 39.9044029,17.3958622 C41.4891156,23.4041889 41.5872452,29.0889645 40.1987917,34.450189 C38.7016478,39.9526528 36.4403094,43.7761898 34.5682423,45.8021195 C32.6961752,47.8280493 28.4094468,52.8051829 20.5857508,52.8302337 C12.7620548,52.8549413 7.50758798,47.4816173 4.75169908,43.3925848 C1.99581018,39.3035523 -0.172762277,32.4592333 0.0108578255,26.4551154 C0.0108578255,19.0005051 2.02806889,12.8265142 6.03541958,7.75624142 C10.0427703,2.68596867 15.1510199,-0.0133576646 20.5129992,4.97034165e-05 Z" id="形状结合备份-268" fill="#FFFFFF" fill-rule="nonzero"></path>
    </g>
</svg>