<svg xmlns="http://www.w3.org/2000/svg" width="72.969" height="80" viewBox="0 0 72.969 80">
  <defs>
    <style>
      .cls-1 {
        fill: #fff;
        fill-rule: evenodd;
      }
    </style>
  </defs>
  <path id="形状_1" data-name="形状 1" class="cls-1" d="M72.762,46.723c-0.444-4.256-4.4-9.94-4.547-10.168A192.73,192.73,0,0,0,36.506,0S15.5,18.929,3.548,38.678C3.426,38.879,0,44.5.016,49.537c0.022,5.929,1.51,11.649,8.2,15.761a16.518,16.518,0,0,0,21.063-3.636,2.006,2.006,0,0,1,2.958-.217c1.286,0.928,1.41,2.625.067,6.36S27.737,77.132,22.29,80H50.764a18.781,18.781,0,0,1-7.477-7.179c-1.777-3.205-3.533-6.276-4.4-10.343-0.726-3.419-4.352-6.048-8.151-6.048-7.152,0-10.316-1.2-9.686-4.206a8.977,8.977,0,0,1,.722-2.1,1.747,1.747,0,0,0-.756-2.389c-0.749-.544-1.008-0.964-0.688-1.683a1.581,1.581,0,0,1,1.947-.74s-2.222-.744-2.233-2.2a1.284,1.284,0,0,1,.47-1.06c0.623-.535,2.378-2.536,1.363-3.512a5.669,5.669,0,0,0-1.439-.955c-1.364-.724-1.712-2.07.176-3.306s4.957-3.091,5.515-5.1c0.638-2.3.564-6.144,3.47-11.048a28.025,28.025,0,0,1,6.9-7.689A26.556,26.556,0,0,0,34.162,22.19a21.388,21.388,0,0,0,3.371,11.5A31.809,31.809,0,0,0,44.265,41.3c5.269,4.4,5.137,7.5,5.02,9.83-0.135,2.685-1.8,6.561-6.291,9.572,5.214,7.45,14.77,7.911,19.87,5.57C75,60.7,72.952,48.538,72.762,46.723ZM42.725,60.889l0.106-.115a0.018,0.018,0,0,1-.011,0l0,0Zm0.752-2.018a7.1,7.1,0,0,0,3.613-5.656,10.287,10.287,0,0,0-2.623-7.364c-1.655-2.031-3.777-3.682-5.388-5.753A30.577,30.577,0,0,1,33.626,28.67,27.587,27.587,0,0,1,33.8,16.4,21.58,21.58,0,0,0,31.5,28.652a25.411,25.411,0,0,0,2.718,9.441c2.462,4.522,5.474,6.7,8.068,9.775,1.284,1.522,2.827,3.713,3.141,5.681S44.925,57.146,43.477,58.87Z" transform="translate(-0.031)"/>
</svg>
