<?xml version="1.0" encoding="UTF-8"?>
<svg width="50px" height="56px" viewBox="0 0 50 56" version="1.1" xmlns="http://www.w3.org/2000/svg" xmlns:xlink="http://www.w3.org/1999/xlink">
    <title>编组 47</title>
    <g id="页面-1" stroke="none" stroke-width="1" fill="none" fill-rule="evenodd">
        <g id="编组-47" fill="#BD9F7B" fill-rule="nonzero">
            <path d="M31.875,55.9911943 L31.875,55.99 L16.6495505,55.9900079 L16.6495505,53.6145993 L18.8773901,53.6145993 C20.5813265,53.6145993 22.1588457,52.4092723 22.2656141,50.6653978 L22.2713644,50.4765237 L22.2713644,47.7391226 C24.0584821,47.3155068 25.847859,46.4746792 27.4732684,45.438719 L27.8761085,45.1757922 L27.8761085,50.4765237 C27.8761085,52.1297101 29.0126683,53.4426 30.8740283,53.6017098 L31.0838078,53.6145993 L31.5669489,53.614884 C31.5662705,53.615148 31.5655918,53.6154122 31.5649128,53.6156765 C31.8787328,53.6187507 32.2085858,53.621644 32.5514998,53.622584 L32.9690756,53.6226609 C33.230308,53.62199 33.4980462,53.6198601 33.7710847,53.6155522 L34.0676503,53.6150252 L34.1479882,53.6099335 L34.3485596,53.6133438 C37.0142462,53.5477633 39.0146336,53.3065363 40.3497217,52.8896627 C42.9301757,52.0839309 45.9843445,50.5483321 46.7947337,46.7186236 C47.3349932,44.1654845 46.74144,41.8964803 45.0140741,39.911611 C48.6372708,42.6399228 49.8284937,45.750703 48.5877428,49.2439516 C46.763839,54.379027 40.8369361,55.9294065 37.9426209,55.9893676 L37.7692677,55.9911943 L37.6693021,55.9910195 C37.2079856,56.0084249 36.9031535,55.9961354 36.8141554,55.9915416 L31.875,55.9911943 Z M37.3541402,32.486195 C37.9861218,36.448749 40.0034725,37.7169112 41.9361937,38.7907246 L42.2664141,38.9733695 C42.7596782,39.2458807 43.2417921,39.5149872 43.6877616,39.8231971 C45.9671612,41.3984924 47.1858426,44.7740068 45.3785709,48.5818872 C43.3275604,51.909175 39.6283713,52.6223032 37.035141,53.0456026 C42.3397827,51.761277 43.6384496,49.1785167 43.955307,48.1999416 C44.2721644,47.2213665 44.2721644,46.0748332 43.3582306,45.3401775 C42.4442968,44.6055218 40.6144886,45.6071667 39.6283713,45.5437209 C38.642254,45.480275 38.2955791,45.0355513 38.3121181,44.5406437 C38.3286572,44.045736 38.2955791,43.6466753 38.1847447,43.4700517 C38.0777004,43.2180015 37.5170963,43.2799403 37.3541402,42.977284 C37.2813991,42.8472954 37.1508257,42.4175441 37.8698362,42.2954372 C36.7020193,42.3362815 36.8364556,41.6686647 36.8364556,41.510295 C36.8364556,41.3519253 37.7277231,40.2746647 36.5160161,40.0460864 C35.3043091,39.8175081 35.5975736,39.4099327 35.8520909,38.9745902 C36.1066082,38.5392478 37.4017334,38.1231632 37.1685028,36.541833 C36.9363403,35.373454 36.7326355,33.7349436 37.3541402,32.486195 Z M43.9323091,13.4920529 C46.4665586,15.5188238 47.985523,18.6081161 47.9258851,21.8577406 C48.0167435,26.3506924 45.0147053,30.299922 41.1257904,31.8500803 L41.009838,31.8939549 C41.0253586,31.8976849 41.0409306,31.901431 41.0565539,31.9051933 C44.4699157,32.7271769 47.5807558,35.4761044 49.0856652,39.1589677 C50.5905745,42.841831 49.8775401,45.4804951 49.4688365,47.0276347 C49.654541,41.7974993 46.0908658,39.56602 44.057968,38.7184855 C42.0250702,37.8709511 40.8331299,37.4118479 39.4558716,35.8662458 C38.5817003,34.8852236 37.9488401,33.4555859 37.557291,31.5773326 L37.5330876,31.5725146 C37.5283561,31.5133043 37.5242886,31.4538368 37.5208853,31.3941122 C37.513525,31.3605605 37.5067221,31.3255057 37.5,31.2903007 L37.5150484,31.2763225 C37.514767,31.269649 37.5144938,31.2629723 37.5142288,31.2562925 L37.6027808,31.1676833 L38.3289675,30.4410903 L38.3662894,30.4020264 L38.5245614,30.2387005 C38.8175713,29.939612 39.1396507,29.619371 39.7122955,28.8978935 C41.1869071,27.0936023 41.8516917,24.4037357 41.8516917,22.6610648 C41.9561217,18.7673989 41.0130264,16.6308969 39.7932504,14.9471112 C38.6155357,13.3213869 36.7920043,13.1123469 36.6676439,13.0998634 L27.8931783,13.0992225 C27.9072689,16.3852712 27.9152536,19.3756703 27.9171323,22.0704197 L27.9171323,24.4739092 C27.9152536,26.9867204 27.9072689,29.2038819 27.8931783,31.1253938 C27.8453064,37.6536071 22.4758788,41.1938986 22.2770275,41.3227818 L22.2713644,41.3264308 L22.2718963,41.0243674 C22.271954,40.9915553 22.2720162,40.9561963 22.2720827,40.9183532 L22.2727956,40.5123794 C22.2728872,40.4601937 22.2729827,40.4057115 22.2730822,40.3489951 L22.2737244,39.9823884 C22.2738389,39.9169859 22.2739571,39.8494743 22.2740787,39.7799163 L22.2748503,39.3385108 C22.2788763,37.033567 22.2858243,33.0287862 22.2926447,28.9696529 L22.294684,27.7519278 C22.3004338,24.3064113 22.3058712,20.9405113 22.3091233,18.6647612 L22.3098532,18.1456412 L22.3100222,18.0226087 L22.310782,17.4502765 C22.3108735,17.3788808 22.3109611,17.3095032 22.3110445,17.2422065 L22.3119731,16.396627 L22.3120287,16.3310408 L22.3122132,15.9764004 C22.3359628,14.5103733 20.7741137,13.0724117 19.2895973,13.1042022 C18.3636632,13.1079624 17.7882772,13.111394 17.0013803,13.1033868 L16.6495505,13.0992225 L16.6495505,11.1179323 L35.7254267,11.1179323 C38.7373925,10.9212792 41.3980595,11.4652821 43.9323091,13.4920529 Z M18.0897069,4.34904894e-05 C26.803872,-0.0114987396 31.6715797,7.33478951 32.5336343,9.02048213 L32.5728002,9.09876392 L27.7144335,9.09876392 C27.3607468,8.16760305 25.6680529,5.85752642 24.9876316,5.22099582 C23.4495214,3.78210146 21.4557907,1.94754901 18.0549708,1.94754901 C14.654151,1.94754901 11.3010354,4.21219925 8.85637294,8.50008692 C6.41171052,12.7879746 5.32242849,17.7861813 5.32242849,22.9788289 C5.26964642,27.9051814 6.64646542,33.7855999 8.69220508,37.4845825 C10.7379447,41.1835652 14.292725,44.2670674 18.1310623,44.2670674 C19.8674238,44.2670674 23.732833,43.5098721 26.9467271,38.5397433 C28.3090597,36.4329632 29.6986263,32.972787 30.1822021,30.4790329 C30.7633658,27.4820277 30.9899419,25.1163871 30.9726935,22.2349312 C30.9761171,19.8620901 30.612226,17.8928459 30.1371049,15.7201597 L30.0161555,15.1723985 L30.6800224,15.1726883 C33.2468716,15.175007 34.7503033,15.1912373 35.1903174,15.2213794 C36.587821,20.4786653 36.6743581,25.4528439 35.4499287,30.1439154 C34.1296492,34.9585712 32.1354528,38.3041661 30.4845414,40.0768546 C28.8336299,41.8495431 25.0533119,46.2045351 18.1538641,46.2264545 C11.2544162,46.2480737 6.62068306,41.5464152 4.19035963,37.9685117 C1.7600362,34.3906083 -0.152353097,28.4018291 0.00957514202,23.148226 C0.00957514202,16.6254419 1.78848405,11.2231999 5.32242849,6.78671124 C8.85637294,2.35022259 13.3611622,-0.0116879565 18.0897069,4.34904894e-05 Z" id="形状结合备份-267"></path>
        </g>
    </g>
</svg>