<?xml version="1.0" encoding="UTF-8"?>
<svg width="24px" height="31px" viewBox="0 0 24 31" version="1.1" xmlns="http://www.w3.org/2000/svg" xmlns:xlink="http://www.w3.org/1999/xlink">
    <!-- Generator: Sketch 61.1 (89650) - https://sketch.com -->
    <desc>Created with Sketch.</desc>
    <g id="页面-1" stroke="none" stroke-width="1" fill="none" fill-rule="evenodd" stroke-linecap="round" stroke-linejoin="round">
        <g id="导航栏" transform="translate(-123.000000, -414.000000)" stroke="#FFFFFF" stroke-width="0.92">
            <g id="编组" transform="translate(124.000000, 415.000000)">
                <path d="M16.0683935,2.43659032 L19.4545871,2.43659032 C21.0616194,2.43659032 22.376329,3.75055806 22.376329,5.35833226 L22.376329,25.6317194 C22.376329,27.2387516 21.0616194,28.5527194 19.4545871,28.5527194 L2.92129677,28.5527194 C1.31500645,28.5527194 0.000296774194,27.2387516 0.000296774194,25.6317194 L0.000296774194,5.35833226 C0.000296774194,3.75055806 1.31500645,2.43659032 2.92129677,2.43659032 L6.51523226,2.43659032" id="Stroke-1"></path>
                <path d="M5.7776,4.19720323 C5.7776,4.19720323 6.27840645,0.890396774 9.5852129,0.890396774 C9.5852129,0.890396774 10.987471,-1.11282903 12.9914387,0.890396774 C12.9914387,0.890396774 15.7966968,0.238977419 16.4985677,4.19720323 L5.7776,4.19720323 Z" id="Stroke-3"></path>
                <line x1="11.1378613" y1="8.54672581" x2="19.3036032" y2="8.54672581" id="Stroke-5"></line>
                <line x1="11.1378613" y1="11.1181258" x2="14.3942161" y2="11.1181258" id="Stroke-7"></line>
                <line x1="11.1378613" y1="15.3110258" x2="19.3036032" y2="15.3110258" id="Stroke-9"></line>
                <line x1="11.1378613" y1="17.8825" x2="14.3942161" y2="17.8825" id="Stroke-11"></line>
                <line x1="11.1378613" y1="22.1515226" x2="19.3036032" y2="22.1515226" id="Stroke-13"></line>
                <line x1="11.1378613" y1="24.7229226" x2="14.3942161" y2="24.7229226" id="Stroke-15"></line>
                <path d="M6.13699355,18.0795581 L4.08257419,18.0795581 C3.78431613,18.0795581 3.54021935,17.8354613 3.54021935,17.5372032 L3.54021935,15.4827839 C3.54021935,15.1845258 3.78431613,14.940429 4.08257419,14.940429 L6.13699355,14.940429 C6.43525161,14.940429 6.67934839,15.1845258 6.67934839,15.4827839 L6.67934839,17.5372032 C6.67934839,17.8354613 6.43525161,18.0795581 6.13699355,18.0795581 Z" id="Stroke-17"></path>
                <path d="M6.13699355,24.9902419 L4.08257419,24.9902419 C3.78431613,24.9902419 3.54021935,24.7461452 3.54021935,24.4478871 L3.54021935,22.3934677 C3.54021935,22.0952097 3.78431613,21.8511129 4.08257419,21.8511129 L6.13699355,21.8511129 C6.43525161,21.8511129 6.67934839,22.0952097 6.67934839,22.3934677 L6.67934839,24.4478871 C6.67934839,24.7461452 6.43525161,24.9902419 6.13699355,24.9902419 Z" id="Stroke-19"></path>
                <polyline id="Stroke-21" points="3.2062 9.74940323 4.57507097 11.1182742 7.44784516 8.07930645"></polyline>
            </g>
        </g>
    </g>
</svg>