<?xml version="1.0" encoding="UTF-8"?>
<svg width="22px" height="22px" viewBox="0 0 22 22" version="1.1" xmlns="http://www.w3.org/2000/svg" xmlns:xlink="http://www.w3.org/1999/xlink">
    <!-- Generator: Sketch 56.3 (81716) - https://sketch.com -->
    <desc>Created with Sketch.</desc>
    <g id="页面-1" stroke="none" stroke-width="1" fill="none" fill-rule="evenodd">
        <g id="切图" transform="translate(-114.000000, -506.000000)" fill-rule="nonzero">
            <g id="bb_management_role_pre" transform="translate(114.000000, 506.000000)">
                <rect id="矩形" fill="#000000" opacity="0" x="0" y="0" width="22" height="22"></rect>
                <path d="M15.6802276,14.0297737 C14.5938836,14.0297737 13.7100207,14.9139281 13.7100207,16.0002721 C13.7100207,17.0868104 14.5938836,17.9709648 15.6802276,17.9709648 C16.7668631,17.9709648 17.650726,17.0868104 17.650726,16.0002721 C17.650726,14.9139281 16.7668631,14.0297737 15.6802276,14.0297737 Z M15.6802276,16.9555475 C15.1535242,16.9555475 14.7251465,16.5269755 14.7251465,16.0002721 C14.7251465,15.473763 15.1535242,15.045191 15.6802276,15.045191 C16.2070282,15.045191 16.6356002,15.473763 16.6356002,16.0002721 C16.6356002,16.5269755 16.2070282,16.9555475 15.6802276,16.9555475 Z M20.8900151,14.9707666 C20.8160765,14.5805727 20.5656956,14.3283458 20.2441938,14.3283458 L20.1995974,14.3283458 C19.5845757,14.3283458 19.0839112,13.8279727 19.0839112,13.2130482 C19.0839112,13.0515686 19.1545463,12.8531682 19.1813625,12.7909859 C19.3336119,12.4480117 19.2164371,12.0271154 18.8780295,11.7927659 L17.5735617,11.0704797 C17.4713495,11.0263692 17.3608788,11.0038281 17.2451615,11.0038281 C17.0088688,11.0038281 16.7753937,11.1001135 16.6207153,11.2604272 C16.4581669,11.4279307 16.026583,11.7736254 15.7292739,11.7736254 C15.4292443,11.7736254 14.9949399,11.4212267 14.8321001,11.251197 C14.6766443,11.0868997 14.4410318,10.9887683 14.2021158,10.9887683 C14.0876615,10.9887683 13.9788425,11.0106293 13.8810997,11.0528938 L13.8567126,11.0629013 L12.5292179,11.7919886 L12.4976409,11.8123921 C12.1890613,12.0271153 12.0712065,12.4478174 12.2224843,12.7877796 C12.2325889,12.8120696 12.3212959,13.0279587 12.3212959,13.2130482 C12.3212959,13.8279727 11.8207285,14.3283458 11.2054153,14.3283458 L11.1534348,14.3283458 C10.839764,14.3283458 10.5891888,14.5805727 10.5152891,14.9711552 C10.5040185,15.0312 10.405207,15.5707285 10.405207,16.0068789 C10.405207,16.4432237 10.5040185,16.982655 10.5152891,17.0432828 C10.5891694,17.4333795 10.8395503,17.6856064 11.1612076,17.6856064 L11.2053181,17.6856064 C11.8206313,17.6856064 12.3212959,18.1860766 12.3212959,18.800904 C12.3212959,18.9623836 12.2506607,19.160784 12.2238446,19.2230634 C12.0717894,19.5655518 12.1885756,19.9860595 12.5258173,20.2211863 L13.8057037,20.9343394 C13.9077215,20.9786443 14.0181922,21.001574 14.134201,21.001574 C14.3747688,21.001574 14.61077,20.9009164 14.7649626,20.7327328 C14.9225558,20.5616343 15.3701712,20.1868889 15.6759331,20.1868889 C15.9849014,20.1868889 16.4274644,20.5624116 16.5929275,20.7439062 C16.7481889,20.9150046 16.9857447,21.0170224 17.2282556,21.0170224 C17.3423213,21.0170224 17.4509459,20.9951615 17.5829861,20.9366713 L18.8770579,20.2216721 L18.9080518,20.2011714 C19.2162428,19.986934 19.3338062,19.5666206 19.1827226,19.2262697 C19.172618,19.2018826 19.0839111,18.9860906 19.0839111,18.800904 C19.0839111,18.1860766 19.5845757,17.6856064 20.1995974,17.6856064 L20.2509949,17.6856064 C20.565307,17.6856064 20.8159793,17.4333795 20.8896264,17.0442544 C20.890598,17.0388134 21,16.4657648 21,16.0068789 C21,15.5707285 20.9012857,15.0312 20.8900151,14.9707666 Z M19.9202824,16.6884551 C18.8694989,16.8259363 18.0689019,17.7232072 18.0689019,18.800904 C18.0689019,19.0497303 18.1289467,19.286023 18.1818016,19.4459481 L17.2479986,19.9621582 C17.1640525,19.8798639 17.0300691,19.756568 16.8640229,19.6334665 C16.451288,19.3272188 16.0514753,19.1713744 15.6760497,19.1713744 C15.3037333,19.1713744 14.9071269,19.3242068 14.4969181,19.6248193 C14.333301,19.7451032 14.2006778,19.8644155 14.1153715,19.9470985 L13.2227642,19.447697 C13.2757163,19.2874804 13.3362469,19.0497303 13.3362469,18.800904 C13.3362469,17.7232073 12.5358442,16.8259363 11.4849636,16.6884551 C11.4580503,16.514539 11.4203523,16.2310267 11.4203523,16.006879 C11.4203523,15.7817597 11.457856,15.4990246 11.4849636,15.3255943 C12.5356499,15.188016 13.3362469,14.2905507 13.3362469,13.2130482 C13.3362469,12.964902 13.2762021,12.7287065 13.2234443,12.5686843 L14.1872698,12.0397462 C14.2709244,12.1184456 14.4051021,12.2368835 14.5699823,12.3542526 C14.974653,12.6427201 15.3648468,12.7891399 15.7292933,12.7891399 C16.0901449,12.7891399 16.4770353,12.6455377 16.8789855,12.362414 C17.0425055,12.2475711 17.1749344,12.1327282 17.2592691,12.0544173 L18.1821903,12.5672269 C18.1293353,12.7273463 18.0689991,12.9642219 18.0689991,13.2130483 C18.0689991,14.290745 18.8693045,15.188016 19.920088,15.3255943 C19.9475843,15.5026195 19.9849908,15.7847717 19.9849908,16.0070733 C19.9849908,16.2308323 19.9476814,16.51211 19.9202824,16.6884551 Z M2.31713746,19.5736161 L2.31713746,18.4577355 C2.31713746,14.6636444 5.24300841,11.5367692 8.97068109,11.1843705 L8.96906824,11.1835932 C8.96906824,11.1835932 8.9728186,11.1835932 8.97878422,11.1837876 C9.20730412,11.1623152 9.43848621,11.1502674 9.67254424,11.1502674 C9.70777438,11.1502674 9.74249932,11.1522106 9.77757401,11.1525992 C10.6019751,11.0886681 11.8494101,10.8949702 12.5013525,10.3130412 L12.8204254,10.0643704 C14.0667916,9.09108152 14.7816936,7.63698761 14.7816936,6.07520173 C14.7816936,3.276649 12.4894018,1 9.67153375,1 C6.85366566,1 4.56139336,3.276649 4.56139336,6.07518228 C4.56139336,7.63696816 5.2763342,9.09106209 6.52270043,10.0643509 L6.84167613,10.3130218 L6.46582306,10.4622592 C3.14548324,11.7805432 1,14.9188832 1,18.4577355 L1,20.226433 C1,20.5865073 1.29521042,20.8794441 1.65845213,20.8794441 L11.2803644,20.8794441 C10.9671211,20.4782712 10.7001259,20.0406634 10.4842951,19.5736161 L2.31713746,19.5736161 L2.31713746,19.5736161 Z M5.8785308,6.07518228 C5.8785308,3.99664217 7.57999364,2.30573086 9.67153375,2.30573086 C11.763035,2.30573086 13.4647893,3.99664215 13.4647893,6.07518228 C13.4647893,8.15376127 11.763035,9.84459481 9.67153375,9.84459481 C7.57999364,9.84459481 5.8785308,8.15376127 5.8785308,6.07518228 Z" id="形状" fill="#63B0F5"></path>
            </g>
        </g>
    </g>
</svg>