<?xml version="1.0" encoding="UTF-8"?>
<svg width="40px" height="35px" viewBox="0 0 40 35" version="1.1" xmlns="http://www.w3.org/2000/svg" xmlns:xlink="http://www.w3.org/1999/xlink">
    <!-- Generator: Sketch 61.1 (89650) - https://sketch.com -->
    <desc>Created with Sketch.</desc>
    <defs>
        <linearGradient x1="36.7348967%" y1="60.0864447%" x2="72.460838%" y2="42.2997218%" id="linearGradient-1">
            <stop stop-color="#FFFFFF" offset="0%"></stop>
            <stop stop-color="#9AB8FA" offset="100%"></stop>
            <stop stop-color="#9AB8FA" offset="100%"></stop>
        </linearGradient>
        <linearGradient x1="-8.66357481%" y1="49.5610245%" x2="85.1015366%" y2="50.4356154%" id="linearGradient-2">
            <stop stop-color="#FFFFFF" offset="0%"></stop>
            <stop stop-color="#9AB8FA" offset="100%"></stop>
        </linearGradient>
        <linearGradient x1="19.4661841%" y1="92.3487101%" x2="66.7064917%" y2="28.9487475%" id="linearGradient-3">
            <stop stop-color="#FFFFFF" offset="0%"></stop>
            <stop stop-color="#9AB8FA" offset="100%"></stop>
        </linearGradient>
    </defs>
    <g id="页面-1" stroke="none" stroke-width="1" fill="none" fill-rule="evenodd">
        <g id="导航栏" transform="translate(-51.000000, -720.000000)">
            <g id="编组备份-2" transform="translate(51.000000, 720.000000)">
                <path d="M33.2951628,0 L5.75655814,0 L0.668186047,6.46139535 L0.668186047,9.64372093 C0.668186047,9.64372093 1.02911628,11.9274419 3.38725581,11.9274419 C5.74446512,11.9274419 6.10539535,9.42511628 6.10539535,9.42511628 L6.10539535,9.64372093 C6.10539535,9.64372093 6.46725581,11.9274419 8.82446512,11.9274419 C11.1826047,11.9274419 11.5435349,9.42511628 11.5435349,9.42511628 L11.5435349,9.64372093 C11.5435349,9.64372093 11.9044651,11.9274419 14.2626047,11.9274419 C16.6207442,11.9274419 16.9816744,9.42511628 16.9816744,9.42511628 L16.9816744,9.64372093 C16.9816744,9.64372093 17.3426047,11.9274419 19.7007442,11.9274419 C22.0579535,11.9274419 22.419814,9.42511628 22.419814,9.42511628 L22.419814,9.64372093 C22.419814,9.64372093 22.7807442,11.9274419 25.1379535,11.9274419 C27.496093,11.9274419 27.8570233,9.42511628 27.8570233,9.42511628 L27.8570233,9.64372093 C27.8570233,9.64372093 28.2179535,11.9274419 30.576093,11.9274419 C32.9342326,11.9274419 33.2951628,9.42511628 33.2951628,9.42511628 L33.2951628,9.64372093 C33.2951628,9.64372093 33.6505116,11.7702326 35.8179535,11.9023256 C35.8867907,11.9069767 35.9416744,11.9274419 36.0142326,11.9274419 C38.3723721,11.9274419 38.7333023,9.42511628 38.7333023,9.42511628 L38.7333023,6.46139535 L33.2951628,0 Z" id="Fill-1" fill="url(#linearGradient-1)"></path>
                <path d="M1.37655814,34.320753 C0.619348837,34.320753 -0.000186046511,33.7012182 -0.000186046511,32.9449391 L-0.000186046511,31.844474 C-0.000186046511,31.0872647 0.619348837,30.46866 1.37655814,30.46866 L38.0249302,30.46866 C38.7821395,30.46866 39.4007442,31.0872647 39.4007442,31.844474 L39.4007442,32.9449391 C39.4007442,33.7012182 38.7821395,34.320753 38.0249302,34.320753 L1.37655814,34.320753 Z" id="Fill-3" fill="url(#linearGradient-2)"></path>
                <path d="M7.92186047,24.6223344 L17.7413953,24.6223344 L17.7413953,17.1562879 L7.92186047,17.1562879 L7.92186047,24.6223344 Z M33.2951628,9.42511628 C33.2951628,9.42511628 32.9342326,11.9274419 30.576093,11.9274419 C28.2179535,11.9274419 27.8570233,9.42511628 27.8570233,9.42511628 C27.8570233,9.42511628 27.5070343,11.8997345 25.1379535,11.9274419 C22.7688727,11.9551492 22.419814,9.42511628 22.419814,9.42511628 C22.419814,9.42511628 21.989563,11.9274419 19.6533966,11.9274419 C17.3172302,11.9274419 16.9816744,9.42511628 16.9816744,9.42511628 C16.9816744,9.42511628 16.6009674,11.9274419 14.2362671,11.9274419 C11.8715668,11.9274419 11.5435349,9.42511628 11.5435349,9.42511628 C11.5435349,9.42511628 11.1406408,11.9274419 8.78250122,11.9274419 C6.42436169,11.9274419 6.10539535,9.42511628 6.10539535,9.42511628 C6.10539535,9.42511628 5.71194458,11.8451385 3.48465116,11.9274419 L3.48465116,30.4688461 L24.0827907,30.4688461 L24.0827907,15.6595437 L31.9451163,15.6595437 L31.9451163,30.4688461 L35.9162791,30.4688461 L35.9162791,11.9274419 C34.4713178,11.8387597 33.5976124,11.0046512 33.2951628,9.42511628 Z" id="Fill-5" fill="url(#linearGradient-3)"></path>
            </g>
        </g>
    </g>
</svg>