<?xml version="1.0" encoding="UTF-8"?>
<svg width="29px" height="26px" viewBox="0 0 29 26" version="1.1" xmlns="http://www.w3.org/2000/svg" xmlns:xlink="http://www.w3.org/1999/xlink">
    <!-- Generator: Sketch 61.1 (89650) - https://sketch.com -->
    <desc>Created with Sketch.</desc>
    <g id="页面-1" stroke="none" stroke-width="1" fill="none" fill-rule="evenodd" stroke-linecap="round" stroke-linejoin="round">
        <g id="导航栏" transform="translate(-121.000000, -804.000000)" stroke="rgb(153, 153, 153)">
            <g id="编组" transform="translate(122.000000, 805.000000)">
                <path d="M0,8.28784865 C0,8.28784865 0.187675676,11.2566054 2.65167568,11.2566054 C5.11567568,11.2566054 5.62421622,8.05552432 5.62421622,8.05552432 C5.62421622,8.05552432 5.73167568,11.2566054 8.46356757,11.2566054 C11.1947027,11.2566054 11.0615135,8.05552432 11.0615135,8.05552432 C11.0615135,8.05552432 11.1417297,11.2566054 13.7396757,11.2566054 C16.3368649,11.2566054 16.3641081,8.05552432 16.3641081,8.05552432 C16.3641081,8.05552432 16.5245405,11.2566054 19.1224865,11.2566054 C21.7204324,11.2566054 21.7741622,8.05552432 21.7741622,8.05552432 C21.7741622,8.05552432 21.8816216,11.2566054 24.6127568,11.2566054 C27.3446486,11.2566054 27.318167,8.25909189 27.318167,8.25909189 L23.0598919,-0.000151351351 L4.17805405,-0.000151351351 L0,8.28784865 Z" id="Stroke-1"></path>
                <path d="M2.38113514,11.2432108 L2.38113514,22.9509946 C2.38113514,22.9509946 2.33043243,24.1391669 3.66913514,24.1391669 L23.9971351,24.1391669 C23.9971351,24.1391669 24.7470811,24.1678595 24.7470811,23.0085081 L24.7470811,11.2568324" id="Stroke-3"></path>
                <path d="M6.08621622,24.1391027 L6.08621622,15.6263459 C6.08621622,14.9694811 6.60686486,14.4321838 7.2432973,14.4321838 L11.5174595,14.4321838 C12.1538919,14.4321838 12.6745405,14.9694811 12.6745405,15.6263459 L12.6745405,24.1391027" id="Stroke-5"></path>
                <path d="M19.5928865,20.0671459 L17.1107243,20.0671459 C16.3607784,20.0671459 15.7478054,19.454173 15.7478054,18.7049838 L15.7478054,15.5182811 C15.7478054,14.7690919 16.3607784,14.1553622 17.1107243,14.1553622 L19.5928865,14.1553622 C20.3420757,14.1553622 20.9550486,14.7690919 20.9550486,15.5182811 L20.9550486,18.7049838 C20.9550486,19.454173 20.3420757,20.0671459 19.5928865,20.0671459 Z" id="Stroke-7"></path>
            </g>
        </g>
    </g>
</svg>