<?xml version="1.0" encoding="UTF-8"?>
<svg width="22px" height="22px" viewBox="0 0 22 22" version="1.1" xmlns="http://www.w3.org/2000/svg" xmlns:xlink="http://www.w3.org/1999/xlink">
    <!-- Generator: Sketch 56.3 (81716) - https://sketch.com -->
    <desc>Created with Sketch.</desc>
    <g id="页面-1" stroke="none" stroke-width="1" fill="none" fill-rule="evenodd">
        <g id="切图" transform="translate(-44.000000, -538.000000)" fill-rule="nonzero">
            <g id="bb_management_user" transform="translate(44.000000, 538.000000)">
                <rect id="矩形" fill="#000000" opacity="0" x="0" y="0" width="22" height="22"></rect>
                <path d="M17.2351943,19 C16.8998491,19 16.6806865,18.7238397 16.6113731,18.4500652 L16.4450207,17.8476421 C16.2811334,17.798313 16.1215911,17.7378998 15.967748,17.6669152 L15.3657111,18.0140541 C15.2328079,18.0953372 15.0759904,18.1387591 14.9155036,18.1387139 C14.751081,18.1414876 14.5921909,18.0850487 14.4738778,17.9818453 L14.0844021,17.6299348 C13.8474161,17.4158062 13.9081479,17.08 14.0731799,16.842013 L14.4553942,16.2658341 C14.3960248,16.1558937 14.3442164,16.0427494 14.3002641,15.9270457 L13.6223123,15.7737558 C13.3206337,15.7117241 13.0149943,15.5131034 13.0149943,15.210699 L13.0149943,14.7120596 C13.0149943,14.4036906 13.3245945,14.1680895 13.6236326,14.1203728 L14.2877216,13.9873625 C14.3299698,13.8698602 14.3860807,13.7487791 14.4560543,13.6181547 L14.0725198,13.0407829 C13.9206903,12.8218826 13.831573,12.4813048 14.083742,12.2540541 L14.4745379,11.9015471 C14.5930244,11.7987227 14.7519158,11.7427126 14.9161637,11.7458714 C15.0765749,11.7458714 15.2409468,11.7923952 15.3690117,11.8711277 L15.9664278,12.2158807 C16.1189174,12.1454986 16.2780083,12.0858527 16.4403998,12.0363467 L16.6074123,11.4321342 C16.6767258,11.1589562 16.8965485,10.8833924 17.2305734,10.8833924 L17.7831007,10.8833924 C18.1250472,10.8833924 18.3838174,11.1625349 18.4392682,11.4327307 L18.5877971,12.0405219 C18.7383063,12.0870457 18.8835345,12.1425163 19.0267823,12.2081267 L19.6129762,11.8699348 C19.7370803,11.7923952 19.9014523,11.7458714 20.0612033,11.7458714 C20.2387778,11.7458714 20.3912674,11.7995527 20.5034892,11.9015471 L20.8942852,12.2540541 C21.1471143,12.4830941 21.0573369,12.8218826 20.9048472,13.0419758 L20.5437571,13.5871389 C20.6153517,13.7162952 20.6762504,13.8500697 20.7259525,13.9873625 L21.3953225,14.1203728 C21.69106,14.1680895 22,14.404287 22,14.7120596 L22,15.210699 C22,15.5136999 21.6937005,15.7123206 21.3907016,15.7743523 L20.71341,15.9270457 C20.6658813,16.0535203 20.6087547,16.1768823 20.5424368,16.2962535 L20.9055074,16.8438024 C21.0705394,17.08 21.1312712,17.4158062 20.8942852,17.6299348 L20.5034892,17.9830382 C20.3846412,18.0857289 20.2256138,18.1417033 20.0612033,18.1387139 C19.9014523,18.1387139 19.7377405,18.0927866 19.6103357,18.0122647 L19.024802,17.6758621 C18.8852327,17.7398723 18.7407287,17.7946903 18.592418,17.8398882 L18.4419087,18.4524511 C18.3890985,18.720261 18.1290079,18.9994035 17.7883817,18.9994035 L17.2351943,18.9994035 L17.2351943,19 L17.2351943,19 Z M17.7877216,18.467959 C17.8249109,18.4387635 17.8510051,18.3997461 17.8623161,18.3564212 L18.0801584,17.4641193 C18.0864286,17.4417561 18.1048204,17.4237908 18.1290079,17.4164026 L18.3706149,17.3460205 C18.5151375,17.3026215 18.6557248,17.2491782 18.7911166,17.1861696 L19.0175406,17.0788071 C19.0280471,17.0741432 19.0395116,17.0715027 19.0512071,17.0710531 C19.0650698,17.0710531 19.0789325,17.0758248 19.0914749,17.0817894 L19.9443606,17.575657 C19.9747265,17.5935508 20.0215956,17.6066729 20.0605432,17.6066729 C20.0714491,17.6067165 20.0823174,17.605514 20.0928895,17.6030941 L20.4625613,17.267288 C20.4564554,17.2162734 20.4367485,17.1673577 20.4051301,17.1247344 L19.8908902,16.3493383 C19.8775917,16.3297636 19.8765902,16.3053307 19.8882497,16.2849208 L19.9998114,16.0880895 C20.0664843,15.9693942 20.1232554,15.8459273 20.1661637,15.7272321 L20.2420785,15.5166822 C20.250886,15.4955474 20.2702163,15.4794081 20.2942286,15.4731407 L21.248774,15.2578192 C21.3075054,15.247921 21.3627456,15.2254195 21.4098453,15.1922088 L21.4098453,14.7126561 C21.3775784,14.6784749 21.3341153,14.6544527 21.2857412,14.6440634 L21.269238,14.6416775 L20.3080913,14.4490214 C20.2826796,14.4434773 20.2619313,14.4269621 20.2526405,14.4048835 L20.178046,14.1824045 C20.1300682,14.0497993 20.0702396,13.9209376 19.9991513,13.7970923 L19.8875896,13.600261 C19.8759424,13.5796402 19.8769414,13.5550409 19.8902301,13.535247 L20.3998491,12.7693942 C20.4334232,12.7242223 20.4546869,12.6725113 20.4619012,12.6184902 L20.0862882,12.2797018 C20.0882686,12.2814911 20.0876084,12.2814911 20.0836477,12.2814911 L20.0605432,12.2802982 C20.0195035,12.2808779 19.9793851,12.2913818 19.9443606,12.3107176 C19.9443606,12.3107176 19.9291777,12.320261 19.9291777,12.3220503 L19.0927952,12.8027959 C19.0706984,12.8168401 19.041584,12.8180041 19.0182007,12.8057782 L18.7924368,12.6996086 C18.6555021,12.6351251 18.5128615,12.5810581 18.365994,12.5379683 L18.1257073,12.4675862 C18.1009871,12.4605998 18.0823303,12.4421478 18.0768578,12.4192731 L17.8629762,11.5484436 L17.8583553,11.5299534 C17.8470453,11.4845185 17.8176862,11.4444092 17.7758393,11.4172227 L17.2523576,11.4184157 C17.2172329,11.4585816 17.1928358,11.5055272 17.1810637,11.5556011 L16.9434176,12.4198695 C16.9368244,12.4421453 16.9181861,12.4598841 16.893908,12.4669897 L16.6595624,12.534986 C16.5083931,12.577931 16.3552433,12.636384 16.2053942,12.7073625 L15.9783101,12.815918 C15.9674533,12.820753 15.9554129,12.823011 15.9433233,12.822479 C15.9296081,12.8226544 15.9161137,12.8193479 15.9043757,12.8129357 L15.0336665,12.3113141 C14.9984632,12.2918485 14.9580932,12.2813384 14.9168238,12.2808947 C14.9063265,12.2803602 14.8958099,12.2815733 14.8857978,12.2844734 L14.516126,12.6196831 C14.5225309,12.6709129 14.5424528,12.720005 14.5742173,12.7628332 L15.1069408,13.5650699 C15.1204774,13.5840943 15.121736,13.6082032 15.1102414,13.6282945 L15.0026405,13.8245294 C14.9374554,13.941013 14.882282,14.0618539 14.8376084,14.1859832 L14.7616937,14.4060764 C14.7528295,14.4281919 14.7322319,14.4447848 14.7069031,14.4502144 L13.7497171,14.6416775 L13.728593,14.6452563 C13.6678612,14.6553961 13.6117503,14.7031128 13.605149,14.7198136 L13.6064693,15.1934017 C13.625613,15.2101025 13.6790834,15.2411184 13.7576386,15.2572227 L14.7214259,15.4743336 C14.7455454,15.4804284 14.7649504,15.4966302 14.773576,15.5178751 L14.8488306,15.7290214 C14.8897586,15.8405592 14.9399283,15.9491146 15.0019804,16.0636347 L15.1095813,16.2598695 C15.1219699,16.2799175 15.1209514,16.3045343 15.1069408,16.3236906 L14.5788382,17.1175769 C14.5459598,17.1631799 14.524345,17.2146497 14.5154659,17.2684809 L14.891739,17.6078658 C14.8910788,17.6072693 14.891739,17.6060764 14.8937194,17.6060764 C14.8990004,17.6060764 14.907582,17.6078658 14.9155036,17.6078658 C14.9569119,17.6077083 14.9974237,17.5969545 15.0323463,17.57685 L15.9050358,17.0740354 C15.9271546,17.0613927 15.9550228,17.0602584 15.9783101,17.0710531 L16.2047341,17.180205 C16.3559034,17.2511836 16.5090532,17.3096365 16.6615428,17.353178 L16.8952282,17.4205778 C16.9200645,17.42742 16.9391082,17.4455325 16.945398,17.4682945 L17.1810637,18.3224231 C17.1929344,18.3755166 17.2179886,18.4254827 17.254338,18.4685555 L17.7877216,18.4685555 L17.7877216,18.467959 L17.7877216,18.467959 Z M17.5098076,16.6052191 C16.4919912,16.6045621 15.6668651,15.8595536 15.6654093,14.9399068 C15.6654093,14.0190273 16.4916179,13.272507 17.5107978,13.272507 C18.5299778,13.272507 19.3561863,14.0190273 19.3561863,14.9399068 C19.3547292,15.860252 18.5283973,16.6055491 17.5098076,16.6052191 L17.5098076,16.6052191 Z M17.5144285,13.8084243 C16.8187471,13.807764 16.253787,14.3160987 16.2516032,14.9446785 C16.2516032,15.5746846 16.8168416,16.0854054 17.5140985,16.0854054 C18.2113553,16.0854054 18.7765937,15.5746846 18.7765937,14.9446785 C18.7747732,14.316195 18.2100023,13.8077647 17.5144285,13.8084243 L17.5144285,13.8084243 Z M12.3759902,18.7667847 L4.12438702,18.7667847 C2.39933238,18.7651404 1.0014554,17.5018226 1,15.94315 L1,5.82363467 C1.0014554,4.26496216 2.39933238,3.00164431 4.12438702,3 L17.8068653,3 C19.5315115,3.00230091 20.9287745,4.26533072 20.9305922,5.82363467 L20.9305922,10.1634669 C20.9305922,10.3705042 20.7448394,10.5383411 20.5157016,10.5383411 C20.2865639,10.5383411 20.100811,10.3705042 20.100811,10.1634669 L20.100811,5.82363467 C20.0989923,4.67936628 19.0726205,3.75225536 17.8062052,3.75094129 L4.12438702,3.75094129 C2.85822957,3.75258384 1.83225923,4.67959878 1.83044134,5.82363467 L1.83044134,15.9425536 C1.83153328,17.0868616 2.85792838,18.0142604 4.12438702,18.015247 L12.3759902,18.015247 C12.6056748,18.015247 12.791871,18.1834844 12.791871,18.3910158 C12.791871,18.5985473 12.6056748,18.7667847 12.3759902,18.7667847 Z M8.48651452,11.8961789 C6.52635059,11.8938774 4.93816314,10.4583379 4.93634478,8.68723206 C4.93852759,6.91645605 6.52671477,5.48145038 8.48651452,5.4794781 C10.4464215,5.48144972 12.0347979,6.91635958 12.0373444,8.68723206 C12.0347995,10.4582984 10.4466351,11.8935503 8.48651452,11.8961789 L8.48651452,11.8961789 Z M8.48651452,6.22922647 C6.98483939,6.23086973 5.76794466,7.3303943 5.76612599,8.68723206 C5.76612599,10.0423858 6.98670313,11.1446412 8.48651452,11.1446412 C9.98632591,11.1446412 11.2069031,10.0423858 11.2069031,8.68723206 C11.2050844,7.3303943 9.98818966,6.23086973 8.48651452,6.22922647 Z M3.62929083,16.2884995 C3.51899234,16.2883415 3.4132809,16.2486 3.33541189,16.1780178 C3.25754288,16.1074355 3.21389495,16.0117943 3.21406964,15.9121342 C3.21406964,13.2853308 5.57930969,11.1487788 8.48651452,11.1487788 C10.1493968,11.1428348 11.7164361,11.851337 12.7080347,13.0574837 C12.8407026,13.2232838 12.801889,13.4545547 12.6207848,13.5773635 C12.4396806,13.7001723 12.183071,13.6692311 12.0439457,13.5078099 C11.2085289,12.4914837 9.8882822,11.8943654 8.48717465,11.8991612 C6.03528106,11.9021184 4.04844447,13.6973235 4.04517163,15.9127307 C4.04480816,16.1201259 3.85882473,16.2881711 3.62929083,16.2884995 L3.62929083,16.2884995 Z M18.4168238,7.78717614 L14.4006035,7.78717614 C14.248191,7.792666 14.1046822,7.72232663 14.0266678,7.60389528 C13.9486533,7.48546392 13.9486533,7.33794708 14.0266678,7.21951572 C14.1046822,7.10108436 14.248191,7.030745 14.4006035,7.03623486 L18.4168238,7.03623486 C18.6463262,7.03623486 18.8323746,7.20433879 18.8323746,7.4117055 C18.8323746,7.61907221 18.6463262,7.78717614 18.4168238,7.78717614 Z M18.4168238,10.1646598 L14.4006035,10.1646598 C14.1711012,10.1646598 13.9850528,9.9965559 13.9850528,9.78918919 C13.9850528,9.58182248 14.1711012,9.41371855 14.4006035,9.41371855 L18.4168238,9.41371855 C18.6463262,9.41371855 18.8323746,9.58182248 18.8323746,9.78918919 C18.8323746,9.9965559 18.6463262,10.1646598 18.4168238,10.1646598 L18.4168238,10.1646598 Z" id="形状" fill="#A4A4A4"></path>
            </g>
        </g>
    </g>
</svg>