<?xml version="1.0" encoding="UTF-8"?>
<svg width="28px" height="28px" viewBox="0 0 28 28" version="1.1" xmlns="http://www.w3.org/2000/svg" xmlns:xlink="http://www.w3.org/1999/xlink">
    <!-- Generator: Sketch 56.3 (81716) - https://sketch.com -->
    <desc>Created with Sketch.</desc>
    <g id="页面-1" stroke="none" stroke-width="1" fill="none" fill-rule="evenodd">
        <g id="切图" transform="translate(-36.000000, -468.000000)" fill-rule="nonzero">
            <g id="bb_management_system" transform="translate(36.000000, 468.000000)">
                <g id="system_Icon">
                    <rect id="矩形" fill="#000000" opacity="0" x="0" y="0.965517241" width="27.9726829" height="27.0081077"></rect>
                    <path d="M15.1401579,12.4069891 L13.6016661,12.035629 C13.4713158,11.5044667 13.2528752,10.9971472 12.9548002,10.5333087 L13.7764947,9.21666839 C13.8815413,9.07544524 13.8815413,8.88525141 13.7764947,8.74402827 L12.7100401,7.71434802 C12.5637733,7.61292369 12.3667868,7.61292369 12.22052,7.71434802 L10.8044083,8.44018819 C10.3240041,8.15239161 9.79856601,7.94148348 9.2484336,7.81562805 L8.86381066,6.31330768 C8.80988902,6.14256855 8.64657978,6.02602402 8.46170484,6.02634695 L6.99314451,6.02634695 C6.81279089,6.02789102 6.6555651,6.14519428 6.60852156,6.31330768 L6.22389862,7.81562805 C5.66770488,7.93975158 5.13622909,8.15071285 4.65044111,8.44018819 L3.28677792,7.64682801 C3.1405111,7.54540368 2.94352463,7.54540368 2.7972578,7.64682801 L1.74828613,8.74402827 C1.63752142,8.88342594 1.63752142,9.07727072 1.74828613,9.21666839 L2.55249776,10.5333087 C2.2684246,11.0019952 2.05641415,11.5080584 1.92311474,12.035629 L0.367140098,12.4069891 C0.165360519,12.4238388 0.008052523,12.5829549 0,12.7783492 L0,14.2300296 C0.00159852802,14.4041641 0.123091182,14.5559683 0.297208636,14.6013896 L1.85318331,14.9727497 C1.9864827,15.5003203 2.19849315,16.0063836 2.48256629,16.4750701 L1.74828613,17.7917104 C1.63752142,17.9311081 1.63752142,18.1249528 1.74828613,18.2643505 L2.81474068,19.2940308 C2.9610075,19.3954551 3.15799395,19.3954551 3.30426077,19.2940308 L4.65044111,18.5681906 C5.13084524,18.8559872 5.65628335,19.0668953 6.20641575,19.1927507 L6.59103869,20.6950711 C6.63808223,20.8631845 6.79530802,20.9804878 6.97566164,20.9820318 L8.46170484,20.9820318 C8.64657978,20.9823548 8.80988902,20.8658102 8.86381066,20.6950711 L9.2484336,19.1927507 C9.79856601,19.0668953 10.3240041,18.8559872 10.8044083,18.5681906 L12.1680715,19.3615508 C12.3143383,19.4629751 12.5113247,19.4629751 12.6575915,19.3615508 L13.7240461,18.3318705 C13.8290927,18.1906474 13.8290927,18.0004536 13.7240461,17.8592304 L12.9023516,16.5425901 C13.2004266,16.0787516 13.4188672,15.5714321 13.5492175,15.0402698 L15.0877093,14.6689097 C15.2687589,14.6300133 15.3987644,14.4765968 15.4024732,14.2975496 L15.4024732,12.7783492 C15.4056311,12.6133256 15.3004429,12.4643694 15.1401579,12.4069891 Z M7.72742468,16.23875 C6.57595951,16.2662092 5.52196015,15.6176465 5.06146713,14.598293 C4.6009741,13.5789395 4.82572017,12.3918561 5.62993376,11.5957162 C6.43414736,10.7995763 7.65762468,10.5529755 8.72456431,10.9719707 C9.79150394,11.3909659 10.4893656,12.3920909 10.4897168,13.5041894 C10.4995559,14.9921293 9.26826973,16.2110542 7.72742468,16.23875 L7.72742468,16.23875 Z M27.4306093,5.16546743 L26.2242919,4.86162735 C26.1041921,4.43110054 25.9279537,4.01704179 25.6998061,3.62938706 L26.3641548,2.5659468 C26.4489334,2.449477 26.4489334,2.29417651 26.3641548,2.1777067 L25.4025974,1.36746653 C25.2916709,1.27657292 25.128901,1.27657292 25.0179745,1.36746653 L23.8990713,2.00890666 C23.5428231,1.76258831 23.1471109,1.57440611 22.7277196,1.45186655 L22.3256138,0.236506246 C22.286778,0.0989558527 22.1585614,0.00267057915 22.0109223,9.06405629e-05 L20.8046049,9.06405629e-05 C20.6548147,-0.00342087957 20.5231639,0.0954433338 20.4899134,0.236506246 L20.1752219,1.45186655 C19.7242566,1.55296386 19.2932492,1.72398239 18.898973,1.95826667 L17.7975528,1.31682652 C17.6809945,1.22336491 17.5120052,1.22336491 17.395447,1.31682652 L16.5562696,2.12706671 C16.4518383,2.23684002 16.4518383,2.40553347 16.5562696,2.51530678 L17.2031355,3.57874704 C16.9732743,3.9636452 16.802493,4.37871905 16.6961325,4.81098734 L15.4373665,5.11482741 C15.2912656,5.14693132 15.1888705,5.27404246 15.1925075,5.41866749 L15.1925075,6.58338775 C15.1951795,6.72593579 15.2949036,6.84973115 15.4373665,6.88722783 L16.6961325,7.19106791 C16.7794761,7.6277244 16.9328368,8.04916112 17.1506869,8.44018819 L16.503821,9.52050844 C16.4016966,9.6246595 16.4016966,9.78771748 16.503821,9.89186855 L17.3429984,10.7189887 C17.4636278,10.800844 17.6244747,10.800844 17.7451042,10.7189887 L18.898973,10.1281886 C19.3004726,10.3484691 19.7293191,10.5186302 20.1752219,10.6345887 L20.4899134,11.849949 C20.5231639,11.9910119 20.6548147,12.0898761 20.8046049,12.0863646 L22.0109223,12.0863646 C22.1690642,12.0801235 22.3007519,11.9671042 22.3256138,11.816189 L22.7277196,10.6514687 C23.1691512,10.5385636 23.5926226,10.3682015 23.9864857,10.1450686 L25.1053888,10.7865087 C25.2186788,10.8709581 25.3767217,10.8709581 25.4900117,10.7865087 L26.2242919,9.90874853 C26.3117573,9.79936504 26.3117573,9.64677195 26.2242919,9.53738845 L25.6473575,8.44018819 C25.8784594,8.05990667 26.0549058,7.65103764 26.1718433,7.22482791 L27.4306093,6.92098783 C27.5730722,6.88349115 27.6727963,6.75969579 27.6754684,6.61714776 L27.6754684,5.46930748 C27.6791053,5.32468246 27.5767102,5.19757134 27.4306093,5.16546743 L27.4306093,5.16546743 Z M21.3990222,8.23762815 C20.1438049,8.23762815 19.1262502,7.25516157 19.1262502,6.04322763 C19.1262502,4.83129369 20.1438049,3.84882711 21.3990222,3.84882711 C22.6542395,3.84882711 23.6717941,4.83129369 23.6717941,6.04322763 C23.6717941,7.25516157 22.6542395,8.23762815 21.3990222,8.23762815 L21.3990222,8.23762815 Z M27.727818,20.0705109 L26.4690519,19.7666709 C26.3674939,19.3355726 26.1900924,18.9244906 25.9445661,18.5513106 L26.6089148,17.4709903 C26.7030547,17.3638889 26.7030547,17.2067317 26.6089148,17.0996302 L25.7697375,16.27251 C25.6491081,16.1906548 25.4882611,16.1906548 25.3676317,16.27251 L24.2662114,16.9139502 C23.8647119,16.6936697 23.4358653,16.5235085 22.9899626,16.4075501 L22.6228225,15.1921898 C22.589572,15.0511269 22.4579212,14.9522627 22.308131,14.9557742 L21.1018135,14.9557742 C20.9541745,14.9583541 20.8259579,15.0546394 20.787122,15.1921898 L20.4724306,16.4075501 C20.038785,16.5112307 19.6213595,16.6701727 19.2311474,16.8801902 L18.1122443,16.23875 C17.9989542,16.1543006 17.8409114,16.1543006 17.7276213,16.23875 L16.8709611,17.0658702 C16.7834957,17.1752537 16.7834957,17.3278468 16.8709611,17.4372303 L17.4828613,18.5681906 C17.2517594,18.9484721 17.0753129,19.3573411 16.9583754,19.7835509 L15.7345751,20.0705109 C15.5921122,20.1080076 15.4923882,20.231803 15.4897161,20.374351 L15.4897161,21.5390713 C15.4860792,21.6836963 15.5884743,21.8108074 15.7345751,21.8429113 L16.9933411,22.1467514 C17.113441,22.5772782 17.2896793,22.991337 17.517827,23.3789917 L16.8534783,24.442432 C16.7686996,24.5589018 16.7686996,24.7142023 16.8534783,24.8306721 L17.7101385,25.6409122 C17.821065,25.7318059 17.9838349,25.7318059 18.0947614,25.6409122 L19.2136645,24.9994721 C19.6001724,25.236532 20.0259359,25.4078162 20.4724306,25.5058722 L20.787122,26.7212325 C20.8259579,26.8587829 20.9541745,26.9550682 21.1018135,26.9576481 L22.308131,26.9576481 C22.4579212,26.9611596 22.589572,26.8622954 22.6228225,26.7212325 L22.937514,25.5058722 C23.3884793,25.4047749 23.8194867,25.2337564 24.2137629,24.9994721 L25.3151831,25.6409122 C25.4317414,25.7343738 25.6007307,25.7343738 25.7172889,25.6409122 L26.5564663,24.8306721 C26.6532658,24.7181331 26.6532658,24.554971 26.5564663,24.442432 L25.8921175,23.3789917 C26.1347691,22.9983113 26.3118955,22.5821662 26.4166034,22.1467514 L27.6753694,21.8429113 C27.8214703,21.8108074 27.9238653,21.6836963 27.9201294,21.5390713 L27.9201294,20.374351 C27.9254933,20.2448583 27.8496143,20.1249742 27.727818,20.0705109 L27.727818,20.0705109 Z M21.7137137,23.1426717 C20.7913196,23.1494964 19.9561359,22.6173657 19.5998779,21.795858 C19.24362,20.9743502 19.4369548,20.026419 20.0892051,19.3966601 C20.7414554,18.7669012 21.7232413,18.5802331 22.5740886,18.9242063 C23.4249359,19.2681795 23.9760713,20.0745637 23.9690028,20.9651511 C23.9594882,22.1639367 22.9553131,23.1334852 21.7137137,23.1426717 L21.7137137,23.1426717 Z" id="形状" fill="#EBEBEB"></path>
                </g>
            </g>
        </g>
    </g>
</svg>