<?xml version="1.0" encoding="UTF-8"?>
<svg width="40px" height="35px" viewBox="0 0 40 35" version="1.1" xmlns="http://www.w3.org/2000/svg" xmlns:xlink="http://www.w3.org/1999/xlink">
    <!-- Generator: Sketch 61.1 (89650) - https://sketch.com -->
    <desc>Created with Sketch.</desc>
    <defs>
        <linearGradient x1="-8.66357481%" y1="17.8807554%" x2="85.1015366%" y2="81.8733889%" id="linearGradient-1">
            <stop stop-color="#FFFFFF" offset="0%"></stop>
            <stop stop-color="#9AB8FA" offset="100%"></stop>
        </linearGradient>
        <linearGradient x1="-6.89131351%" y1="4.07388637%" x2="84.0410985%" y2="95.5745738%" id="linearGradient-2">
            <stop stop-color="#FFFFFF" offset="0%"></stop>
            <stop stop-color="#9AB8FA" offset="100%"></stop>
        </linearGradient>
        <linearGradient x1="-8.66357481%" y1="7.22557583%" x2="85.1015366%" y2="92.4470088%" id="linearGradient-3">
            <stop stop-color="#FFFFFF" offset="0%"></stop>
            <stop stop-color="#9AB8FA" offset="100%"></stop>
        </linearGradient>
        <linearGradient x1="-8.66357481%" y1="24.5951724%" x2="85.1015366%" y2="75.2103672%" id="linearGradient-4">
            <stop stop-color="#FFFFFF" offset="0%"></stop>
            <stop stop-color="#9AB8FA" offset="100%"></stop>
        </linearGradient>
        <linearGradient x1="-8.66357481%" y1="20.1126591%" x2="85.1015366%" y2="79.6585693%" id="linearGradient-5">
            <stop stop-color="#FFFFFF" offset="0%"></stop>
            <stop stop-color="#9AB8FA" offset="100%"></stop>
        </linearGradient>
        <linearGradient x1="24.8299953%" y1="27.9319822%" x2="78.0444552%" y2="53.3964159%" id="linearGradient-6">
            <stop stop-color="#FFFFFF" offset="0%"></stop>
            <stop stop-color="#9AB8FA" offset="100%"></stop>
        </linearGradient>
        <linearGradient x1="47.0989215%" y1="-21.5455551%" x2="48.3189085%" y2="92.74999%" id="linearGradient-7">
            <stop stop-color="#FFFFFF" offset="0%"></stop>
            <stop stop-color="#9AB8FA" offset="100%"></stop>
        </linearGradient>
        <linearGradient x1="74.637369%" y1="17.001051%" x2="29.3362416%" y2="58.4139588%" id="linearGradient-8">
            <stop stop-color="#FFFFFF" offset="0%"></stop>
            <stop stop-color="#9AB8FA" offset="100%"></stop>
        </linearGradient>
    </defs>
    <g id="页面-1" stroke="none" stroke-width="1" fill="none" fill-rule="evenodd">
        <g id="导航栏" transform="translate(-51.000000, -331.000000)">
            <g id="编组-14备份" transform="translate(51.000000, 331.000000)">
                <polygon id="Fill-1" fill="url(#linearGradient-1)" points="9 -8.8817842e-16 9.02389274e-13 10.446 12.491 10.446"></polygon>
                <polygon id="Fill-1" fill="url(#linearGradient-2)" points="9 -8.8817842e-16 12.496 10.446 19.287 -8.8817842e-16"></polygon>
                <polygon id="Fill-1" fill="url(#linearGradient-3)" points="19.287 -8.8817842e-16 26.541 10.446 30.111 -8.8817842e-16"></polygon>
                <polygon id="Fill-1" fill="url(#linearGradient-4)" points="19.287 -8.8817842e-16 12.496 10.446 26.541 10.446"></polygon>
                <polygon id="Fill-1" fill="url(#linearGradient-5)" points="30.111 -8.8817842e-16 26.541 10.446 39.49 10.446"></polygon>
                <polygon id="Fill-1" fill="url(#linearGradient-6)" points="-6.09290396e-13 10.446 19.238 34.619 12.491 10.446"></polygon>
                <polygon id="Fill-1" fill="url(#linearGradient-7)" points="12.496 10.446 19.238 34.619 26.541 10.446"></polygon>
                <polygon id="Fill-1" fill="url(#linearGradient-8)" points="26.541 10.446 19.238 34.619 39.49 10.446"></polygon>
            </g>
        </g>
    </g>
</svg>