<?xml version="1.0" encoding="UTF-8"?>
<svg width="43px" height="33px" viewBox="0 0 43 33" version="1.1" xmlns="http://www.w3.org/2000/svg" xmlns:xlink="http://www.w3.org/1999/xlink">
    <!-- Generator: Sketch 61.1 (89650) - https://sketch.com -->
    <desc>Created with Sketch.</desc>
    <defs>
        <polygon id="path-1" points="0 -8.16117499e-05 22.2523589 -8.16117499e-05 22.2523589 32.2516771 0 32.2516771"></polygon>
        <linearGradient x1="66.7097061%" y1="17.001051%" x2="35.9853002%" y2="58.4139588%" id="linearGradient-3">
            <stop stop-color="#FFFFFF" offset="0%"></stop>
            <stop stop-color="#9AB8FA" offset="100%"></stop>
        </linearGradient>
        <linearGradient x1="55.6161614%" y1="17.001051%" x2="45.289635%" y2="58.4139588%" id="linearGradient-4">
            <stop stop-color="#FFFFFF" offset="0%"></stop>
            <stop stop-color="#9AB8FA" offset="100%"></stop>
        </linearGradient>
        <linearGradient x1="58.7752521%" y1="17.001051%" x2="42.6400546%" y2="58.4139588%" id="linearGradient-5">
            <stop stop-color="#FFFFFF" offset="0%"></stop>
            <stop stop-color="#9AB8FA" offset="100%"></stop>
        </linearGradient>
        <polygon id="path-6" points="0 0 8.79069767 0 8.79069767 24.1744186 0 24.1744186"></polygon>
        <linearGradient x1="54.6414557%" y1="17.001051%" x2="46.1071363%" y2="58.4139588%" id="linearGradient-8">
            <stop stop-color="#FFFFFF" offset="0%"></stop>
            <stop stop-color="#9AB8FA" offset="100%"></stop>
        </linearGradient>
    </defs>
    <g id="页面-1" stroke="none" stroke-width="1" fill="none" fill-rule="evenodd">
        <g id="导航栏" transform="translate(-49.000000, -1572.000000)">
            <g id="编组-15备份" transform="translate(49.000000, 1572.000000)">
            <g id="编组" transform="translate(25.273256, 3.296512)">
                    <path d="M6.08098144,20.877907 C5.65541165,20.877907 5.22984185,20.7135334 4.90202671,20.3839211 C4.23712657,19.7151801 4.2253286,18.619933 4.87674533,17.9373501 C6.83689451,15.8826802 7.75376567,13.8790528 7.600392,11.9818355 C7.38465761,9.3129276 5.1110194,7.54115338 5.08826616,7.5238509 C4.33572393,6.96152021 4.17055229,5.87924992 4.7191581,5.10669408 C5.26776391,4.33413823 6.3219972,4.1645739 7.07369672,4.72776971 C7.21864326,4.83591022 10.6139318,7.42436162 10.9594439,11.6954795 C11.1979315,14.6394969 9.96082961,17.5541001 7.28521754,20.3579674 C6.95487426,20.704017 6.5183492,20.877907 6.08098144,20.877907" id="Fill-1" fill="url(#linearGradient-4)"></path>
                    <path d="M1.54014138,17.5813953 C1.15122966,17.5813953 0.762317944,17.4255667 0.462740403,17.1130893 C-0.144886024,16.4791128 -0.155667735,15.4408019 0.439636736,14.793703 C0.860893587,14.3352388 1.3537718,13.6520532 1.3121852,13.0000334 C1.26674799,12.2947038 0.622925823,11.7468431 0.616764845,11.741102 C-0.0493908694,11.1924212 -0.188012868,10.1680529 0.317957426,9.45124118 C0.823927721,8.73360929 1.76578719,8.57450005 2.44734535,9.10349727 C2.62755395,9.2429229 4.21015509,10.5313797 4.3803521,12.7113403 C4.49895092,14.2318998 3.91365804,15.7048905 2.64064602,17.0884848 C2.33875812,17.4165451 1.93983481,17.5813953 1.54014138,17.5813953" id="Fill-3" fill="url(#linearGradient-5)"></path>
                    <g transform="translate(8.790698, 0.729254)">
                        <mask id="mask-7" fill="white">
                            <use xlink:href="#path-6"></use>
                        </mask>
                        <g id="Clip-6"></g>
                        <path d="M1.82064636,24.1744186 C1.37904007,24.1744186 0.936523254,24.027155 0.586880338,23.7284203 C-0.152468746,23.0989736 -0.199816225,22.0336266 0.482169569,21.3503235 C3.76553508,18.0600339 5.32982292,14.7024237 5.13223825,11.3717418 C4.83631651,6.3950736 0.671559482,2.98949763 0.629675174,2.95583737 C-0.12697395,2.34658682 -0.209832037,1.28460587 0.445748431,0.583631128 C1.10223943,-0.118185123 2.24677366,-0.198969727 3.00797543,0.406073299 C3.22650225,0.579423596 8.36279312,4.72804963 8.76524668,11.1428521 C9.03567363,15.4311682 7.14996925,19.6336506 3.16003368,23.6324886 C2.80128548,23.9918117 2.31142118,24.1744186 1.82064636,24.1744186" id="Fill-5" fill="url(#linearGradient-8)" mask="url(#mask-7)"></path>
                    </g>
                </g>
                <g id="编组">
                    <mask id="mask-2" fill="white">
                        <use xlink:href="#path-1"></use>
                    </mask>
                    <g id="Clip-2"></g>
                    <path d="M17.7060498,1.41801545 L9.69789068,8.58025636 L2.55870205,8.58025636 C2.55870205,8.58025636 -0.000100227273,8.60631545 -0.000100227273,11.1701291 L-0.000100227273,22.1530336 C-0.000100227273,22.1530336 -0.000100227273,24.3470086 2.85637705,24.3470086 L10.3523748,24.3470086 L18.2713316,31.1354018 C18.2713316,31.1354018 20.2367884,32.8182177 21.4064407,32.0514791 C21.9506748,31.69467 22.2523589,31.4350814 22.2523589,29.3523586 L22.2523589,2.03541545 C22.2523589,2.03541545 22.2403316,0.446813182 20.646718,0.0459040909 C19.7456748,-0.180609545 18.7744725,0.453829091 17.7060498,1.41801545" id="Fill-1" fill="url(#linearGradient-3)" mask="url(#mask-2)"></path>
                </g>
            </g>
        </g>
    </g>
</svg>