<?xml version="1.0" encoding="UTF-8"?>
<svg width="36px" height="35px" viewBox="0 0 36 35" version="1.1" xmlns="http://www.w3.org/2000/svg" xmlns:xlink="http://www.w3.org/1999/xlink">
    <title>编组 34</title>
    <defs>
        <linearGradient x1="36.7348967%" y1="91.2061943%" x2="72.460838%" y2="18.5420216%" id="linearGradient-1">
            <stop stop-color="#FFFFFF" offset="0%"></stop>
            <stop stop-color="#9AB8FA" offset="100%"></stop>
            <stop stop-color="#9AB8FA" offset="100%"></stop>
        </linearGradient>
        <linearGradient x1="-8.66357481%" y1="49.6424437%" x2="85.1015366%" y2="50.3548194%" id="linearGradient-2">
            <stop stop-color="#FFFFFF" offset="0%"></stop>
            <stop stop-color="#9AB8FA" offset="100%"></stop>
        </linearGradient>
        <linearGradient x1="-8.66357481%" y1="46.7900077%" x2="85.1015366%" y2="53.1854217%" id="linearGradient-3">
            <stop stop-color="#FFFFFF" offset="0%"></stop>
            <stop stop-color="#9AB8FA" offset="100%"></stop>
        </linearGradient>
        <linearGradient x1="-8.66357481%" y1="49.5407389%" x2="85.1015366%" y2="50.4557458%" id="linearGradient-4">
            <stop stop-color="#FFFFFF" offset="0%"></stop>
            <stop stop-color="#9AB8FA" offset="100%"></stop>
        </linearGradient>
    </defs>
    <g id="页面-1" stroke="none" stroke-width="1" fill="none" fill-rule="evenodd">
        <g id="编组-34" fill-rule="nonzero">
            <g id="编组-36" transform="translate(2.117647, 4.235294)" fill="url(#linearGradient-1)">
                <path d="M31.7647059,-2.48689958e-14 L31.7647059,20.1176471 L9.59232693e-13,20.1176471 L9.59232693e-13,-2.48689958e-14 L31.7647059,-2.48689958e-14 Z M7.47058824,13.7647059 L5.23529412,13.7647059 C4.68300937,13.7647059 4.23529412,14.2124211 4.23529412,14.7647059 L4.23529412,14.7647059 L4.23529412,19.0588235 L8.47058824,19.0588235 L8.47058824,14.7647059 C8.47058824,14.2124211 8.02287299,13.7647059 7.47058824,13.7647059 L7.47058824,13.7647059 Z M13.8235294,8.47058824 L11.5882353,8.47058824 C11.0359505,8.47058824 10.5882353,8.91830349 10.5882353,9.47058824 L10.5882353,9.47058824 L10.5882353,19.0588235 L14.8235294,19.0588235 L14.8235294,9.47058824 C14.8235294,8.91830349 14.3758142,8.47058824 13.8235294,8.47058824 L13.8235294,8.47058824 Z M20.1764706,2.11764706 L17.9411765,2.11764706 C17.3888917,2.11764706 16.9411765,2.56536231 16.9411765,3.11764706 L16.9411765,3.11764706 L16.9411765,19.0588235 L21.1764706,19.0588235 L21.1764706,3.11764706 C21.1764706,2.56536231 20.7287553,2.11764706 20.1764706,2.11764706 L20.1764706,2.11764706 Z M26.5294118,4.23529412 L24.2941176,4.23529412 C23.7418329,4.23529412 23.2941176,4.68300937 23.2941176,5.23529412 L23.2941176,5.23529412 L23.2941176,19.0588235 L27.5294118,19.0588235 L27.5294118,5.23529412 C27.5294118,4.68300937 27.0816965,4.23529412 26.5294118,4.23529412 L26.5294118,4.23529412 Z" id="形状结合"></path>
            </g>
            <rect id="矩形备份-19" fill="url(#linearGradient-2)" transform="translate(18.000000, 2.647059) scale(1, -1) translate(-18.000000, -2.647059) " x="0" y="1.05882353" width="36" height="3.17647059"></rect>
            <rect id="矩形备份-20" fill="url(#linearGradient-2)" transform="translate(18.000000, 25.941176) scale(1, -1) translate(-18.000000, -25.941176) " x="0" y="24.3529412" width="36" height="3.17647059"></rect>
            <path d="M12.4433451,32.4628547 L7.48115181,32.4651723 C6.37694764,32.4666223 5.48208634,33.3619016 5.48115203,34.4661064 L5.48115203,34.942175 L5.48115203,34.942175 L30.5408471,34.942175 L30.5408471,34.4661064 C30.5408471,33.3615369 29.6454166,32.4661064 28.5408471,32.4661064 L23.578654,32.4661064 L23.578654,32.4661064 L23.578654,29.3360165 C23.6111023,28.6566664 23.3777625,28.3169913 22.8786346,28.3169913 C22.011173,28.3169913 13.9933812,28.3169913 13.2943618,28.3169913 C12.5938218,28.3169913 12.4433451,28.8181922 12.4433451,29.2402416 C12.4433451,29.5216078 12.4433451,30.5958122 12.4433451,32.4628547 Z" id="路径-11" fill="url(#linearGradient-3)"></path>
            <path d="M13.7647059,0 L22.2352941,0 C22.8200662,1.14623715e-16 23.2941176,0.474051441 23.2941176,1.05882353 L23.2941176,1.05882353 L23.2941176,1.05882353 L12.7058824,1.05882353 C12.7058824,0.474051441 13.1799338,-1.14623715e-16 13.7647059,0 Z" id="矩形" fill="url(#linearGradient-4)"></path>
        </g>
    </g>
</svg>