<?xml version="1.0" encoding="UTF-8"?>
<svg width="22px" height="25px" viewBox="0 0 22 25" version="1.1" xmlns="http://www.w3.org/2000/svg" xmlns:xlink="http://www.w3.org/1999/xlink">
    <!-- Generator: Sketch 61.1 (89650) - https://sketch.com -->
    <desc>Created with Sketch.</desc>
    <g id="页面-1" stroke="none" stroke-width="1" fill="none" fill-rule="evenodd">
        <g id="导航栏" transform="translate(-125.000000, -2438.000000)">
            <g id="编组" transform="translate(126.000000, 2438.000000)">
                <line x1="6.760625" y1="5.0705" x2="12.829375" y2="5.0705" id="Stroke-1" stroke="rgb(153, 153, 153)" stroke-linecap="round" stroke-linejoin="round"></line>
                <line x1="6.5805625" y1="13.3706875" x2="10.5411875" y2="13.3706875" id="Stroke-2" stroke="rgb(153, 153, 153)" stroke-linecap="round" stroke-linejoin="round"></line>
                <line x1="6.760625" y1="17.5204375" x2="10.10125" y2="17.5204375" id="Stroke-3" stroke="rgb(153, 153, 153)" stroke-linecap="round" stroke-linejoin="round"></line>
                <g transform="translate(0.000000, 0.460000)">
                    <line x1="6.760625" y1="8.7603125" x2="12.829375" y2="8.7603125" id="Stroke-8" stroke="rgb(153, 153, 153)" stroke-linecap="round" stroke-linejoin="round"></line>
                    <path d="M14.9884375,20.5938125 L1.7890625,20.5938125 C0.8053125,20.5938125 0.0003125,19.7888125 0.0003125,18.8050625 L0.0003125,1.9544375 C0.0003125,0.9706875 0.8053125,0.1644375 1.7890625,0.1644375 L14.9884375,0.1644375 C15.9728125,0.1644375 16.7778125,0.9706875 16.7778125,1.9544375 L16.7778125,18.8050625 C16.7778125,19.7888125 15.9728125,20.5938125 14.9884375,20.5938125 Z" id="Stroke-14" stroke="rgb(153, 153, 153)" stroke-linecap="round" stroke-linejoin="round"></path>
                    <path d="M16.7776875,2.6958125 L17.8008125,2.6958125 C18.7851875,2.6958125 19.5901875,3.5008125 19.5901875,4.4851875 L19.5901875,21.3358125 C19.5901875,22.3195625 18.7851875,23.1251875 17.8008125,23.1251875 L4.6020625,23.1251875 C3.6176875,23.1251875 2.8126875,22.3195625 2.8126875,21.3358125" id="Stroke-16" stroke="rgb(153, 153, 153)" stroke-linecap="round" stroke-linejoin="round"></path>
                    <path d="M4.534625,4.6105 C4.534625,5.0705 4.1615,5.443625 3.7015,5.443625 C3.240875,5.443625 2.86775,5.0705 2.86775,4.6105 C2.86775,4.149875 3.240875,3.77675 3.7015,3.77675 C4.1615,3.77675 4.534625,4.149875 4.534625,4.6105" id="Fill-4" fill="#FFFFFF"></path>
                    <path d="M4.534625,12.9106875 C4.534625,13.3706875 4.1615,13.7438125 3.7015,13.7438125 C3.240875,13.7438125 2.86775,13.3706875 2.86775,12.9106875 C2.86775,12.4506875 3.240875,12.0769375 3.7015,12.0769375 C4.1615,12.0769375 4.534625,12.4506875 4.534625,12.9106875" id="Fill-6" fill="#FFFFFF"></path>
                    <path d="M4.534625,8.7603125 C4.534625,9.2203125 4.1615,9.5934375 3.7015,9.5934375 C3.240875,9.5934375 2.86775,9.2203125 2.86775,8.7603125 C2.86775,8.3003125 3.240875,7.9271875 3.7015,7.9271875 C4.1615,7.9271875 4.534625,8.3003125 4.534625,8.7603125" id="Fill-10" fill="#FFFFFF"></path>
                    <path d="M4.534625,17.0604375 C4.534625,17.5204375 4.1615,17.8941875 3.7015,17.8941875 C3.240875,17.8941875 2.86775,17.5204375 2.86775,17.0604375 C2.86775,16.6004375 3.240875,16.2273125 3.7015,16.2273125 C4.1615,16.2273125 4.534625,16.6004375 4.534625,17.0604375" id="Fill-12" fill="#FFFFFF"></path>
                </g>
            </g>
        </g>
    </g>
</svg>