<?xml version="1.0" encoding="UTF-8"?>
<svg width="25px" height="29px" viewBox="0 0 25 29" version="1.1" xmlns="http://www.w3.org/2000/svg" xmlns:xlink="http://www.w3.org/1999/xlink">
    <!-- Generator: Sketch 61.1 (89650) - https://sketch.com -->
    <desc>Created with Sketch.</desc>
    <g id="页面-1" stroke="none" stroke-width="1" fill="none" fill-rule="evenodd" stroke-linecap="round" stroke-linejoin="round">
        <g id="导航栏" transform="translate(-123.000000, -1899.000000)" stroke="#FFFFFF">
            <g id="编组" transform="translate(123.000000, 1900.000000)">
                <path d="M-0.000142857143,25.7582143 C-0.000142857143,25.7582143 4.31271429,23.7317857 6.09128571,22.4125 C6.46128571,22.1382143 6.86342857,21.7689286 6.86342857,20.7396429 L6.86342857,19.1096429 C6.86342857,19.1096429 4.56771429,16.4703571 4.67557143,14.6917857 C4.67557143,14.6917857 3.28414286,13.9996429 3.16414286,12.6753571 C3.03485714,11.2382143 3.12485714,10.8996429 3.207,10.3160714 C3.27914286,9.80678571 3.31985714,9.13321429 4.46128571,8.68607143 C4.46128571,8.68607143 4.122,7.00178571 4.26985714,5.75178571 C4.52771429,3.5725 5.52128571,0.153214286 11.5605714,0.00392857143 C17.9534286,-0.153214286 18.7827143,3.96464286 18.9598571,5.41321429 C19.1541429,7.00821429 18.9598571,8.90035714 18.9598571,8.90035714 C18.9598571,8.90035714 19.7398571,9.08535714 19.9241429,10.3160714 C20.132,11.7053571 20.0327143,12.4796429 19.9241429,13.1896429 C19.8291429,13.8082143 19.5591429,14.4903571 18.1448571,14.9489286" id="Stroke-1"></path>
                <polygon id="Stroke-3" points="15.1209286 21.4180714 18.5102143 21.4180714 19.8237857 18.0573571 20.9359286 21.4180714 24.5995 21.4180714 22.1223571 23.8380714 23.0659286 27.2366429 19.8887857 25.1823571 16.6916429 27.2366429 17.6373571 23.8380714"></polygon>
            </g>
        </g>
    </g>
</svg>