<?xml version="1.0" encoding="UTF-8"?>
<svg width="24px" height="31px" viewBox="0 0 24 31" version="1.1" xmlns="http://www.w3.org/2000/svg" xmlns:xlink="http://www.w3.org/1999/xlink">
    <!-- Generator: Sketch 61.1 (89650) - https://sketch.com -->
    <desc>Created with Sketch.</desc>
    <g id="页面-1" stroke="none" stroke-width="1" fill="none" fill-rule="evenodd" stroke-linecap="round" stroke-linejoin="round">
        <g id="导航栏" transform="translate(-123.000000, -632.000000)" stroke="#FFFFFF" stroke-width="0.92">
            <g id="编组" transform="translate(124.000000, 633.000000)">
                <path d="M16.0680968,2.43602975 L19.4542903,2.43602975 C21.0613226,2.43602975 22.3760323,3.74999749 22.3760323,5.35777168 L22.3760323,25.6311588 C22.3760323,27.238191 21.0613226,28.5521588 19.4542903,28.5521588 L2.92174194,28.5521588 C1.31470968,28.5521588 1.27471367e-13,27.238191 1.27471367e-13,25.6311588 L1.27471367e-13,5.35777168 C1.27471367e-13,3.74999749 1.31470968,2.43602975 2.92174194,2.43602975 L6.51493548,2.43602975" id="Stroke-1"></path>
                <path d="M5.77767419,4.19671685 C5.77767419,4.19671685 6.27848065,0.89065233 9.58454516,0.89065233 C9.58454516,0.89065233 10.9875452,-1.11331541 12.9915129,0.89065233 C12.9915129,0.89065233 15.796771,0.239232975 16.4979,4.19671685 L5.77767419,4.19671685 Z" id="Stroke-3"></path>
                <path d="M6.71451613,25.3165039 L5.33674194,25.3165039 C4.93683871,25.3165039 4.61112903,24.9907943 4.61112903,24.590891 L4.61112903,18.3148588 C4.61112903,17.9156975 4.93683871,17.5892459 5.33674194,17.5892459 L6.71451613,17.5892459 C7.11367742,17.5892459 7.44087097,17.9156975 7.44087097,18.3148588 L7.44087097,24.590891 C7.44087097,24.9907943 7.11367742,25.3165039 6.71451613,25.3165039 Z" id="Stroke-5"></path>
                <path d="M11.8769032,25.3165039 L10.499129,25.3165039 C10.0999677,25.3165039 9.77351613,24.9907943 9.77351613,24.590891 L9.77351613,20.6133749 C9.77351613,20.2142136 10.0999677,19.8885039 10.499129,19.8885039 L11.8769032,19.8885039 C12.2760645,19.8885039 12.6032581,20.2142136 12.6032581,20.6133749 L12.6032581,24.590891 C12.6032581,24.9907943 12.2760645,25.3165039 11.8769032,25.3165039 Z" id="Stroke-7"></path>
                <path d="M17.0396613,25.3165039 L15.6618871,25.3165039 C15.2619839,25.3165039 14.9362742,24.9907943 14.9362742,24.590891 L14.9362742,15.1853749 C14.9362742,14.7862136 15.2619839,14.4590201 15.6618871,14.4590201 L17.0396613,14.4590201 C17.4388226,14.4590201 17.7652742,14.7862136 17.7652742,15.1853749 L17.7652742,24.590891 C17.7652742,24.9907943 17.4388226,25.3165039 17.0396613,25.3165039 Z" id="Stroke-9"></path>
                <polyline id="Stroke-11" points="4.36517742 11.6110265 7.6475 9.29618781 11.0529839 12.8782523 18.0108548 7.94067168"></polyline>
            </g>
        </g>
    </g>
</svg>