<?xml version="1.0" encoding="UTF-8"?>
<svg width="34px" height="24px" viewBox="0 0 34 24" version="1.1" xmlns="http://www.w3.org/2000/svg" xmlns:xlink="http://www.w3.org/1999/xlink">
    <!-- Generator: Sketch 61.1 (89650) - https://sketch.com -->
    <desc>Created with Sketch.</desc>
    <g id="页面-1" stroke="none" stroke-width="1" fill="none" fill-rule="evenodd" stroke-linecap="round" stroke-linejoin="round">
        <g id="导航栏" transform="translate(-118.000000, -1098.000000)" stroke="#FFFFFF">
            <g id="编组" transform="translate(119.000000, 1098.000000)">
                <line x1="14.0420739" y1="5.1252587" x2="22.7791826" y2="5.1252587" id="Stroke-1"></line>
                <line x1="14.0420739" y1="8.38149783" x2="22.7791826" y2="8.38149783" id="Stroke-2"></line>
                <line x1="13.757987" y1="11.6378087" x2="19.0336826" y2="11.6378087" id="Stroke-3"></line>
                <path d="M7.61532391,23.0614043 C6.70638913,23.1424696 5.65756304,23.2177957 4.60299783,23.1790565 C-0.159045652,23.0032957 0.000932608696,20.4242739 0.000932608696,20.4242739 L0.000932608696,10.4059043 C0.000932608696,10.4059043 0.0353673913,8.08442609 5.2737587,8.08442609 C10.51215,8.08442609 10.5465848,10.7559913 10.5465848,10.7559913 L10.5465848,21.3339261 C10.5465848,21.3339261 10.1426935,22.8347087 7.61532391,23.0614043 Z" id="Stroke-4"></path>
                <path d="M0.000789130435,10.3200326 C0.000789130435,10.3200326 0.419745652,12.4420761 5.27361522,12.4420761 C10.1282022,12.4420761 10.5471587,10.6464457 10.5471587,10.6464457" id="Stroke-6"></path>
                <path d="M0.000789130435,17.7903 C0.000789130435,17.7903 0.55605,20.1046043 5.27361522,20.0601261 C6.64526739,20.047213 9.79389783,20.0608435 10.5471587,18.2960609" id="Stroke-8"></path>
                <path d="M0.000789130435,13.8705457 C0.000789130435,13.8705457 0.55605,16.18485 5.27361522,16.1403717 C6.64526739,16.1274587 9.79389783,16.1410891 10.5471587,14.3763065" id="Stroke-10"></path>
                <path d="M6.19668261,7.7517 L6.19668261,3.51263478 C6.19668261,1.6137 6.86672609,0.71696087 8.81874783,0.71696087 L26.0813348,0.71696087 C28.0333565,0.71696087 28.9092913,1.6137 28.9092913,3.51263478 L28.9092913,15.477287" id="Stroke-12"></path>
                <path d="M10.5213326,15.9435913 C14.31705,16.0232217 32.4900065,15.9435913 32.4900065,15.9435913 C32.4900065,15.9435913 31.77405,19.2163304 28.9087891,19.5599609 C28.0271152,19.6740261 18.5568326,19.6367217 10.7286587,19.5994174" id="Stroke-14"></path>
            </g>
        </g>
    </g>
</svg>