<?xml version="1.0" encoding="UTF-8"?>
<svg width="39px" height="39px" viewBox="0 0 39 39" version="1.1" xmlns="http://www.w3.org/2000/svg" xmlns:xlink="http://www.w3.org/1999/xlink">
    <!-- Generator: Sketch 61.1 (89650) - https://sketch.com -->
    <desc>Created with Sketch.</desc>
    <defs>
        <linearGradient x1="85.1010085%" y1="17.001051%" x2="20.5602186%" y2="58.4139588%" id="linearGradient-1">
            <stop stop-color="#FFFFFF" offset="0%"></stop>
            <stop stop-color="#9AB8FA" offset="100%"></stop>
        </linearGradient>
        <linearGradient x1="50%" y1="96.7518814%" x2="53.3702041%" y2="24.4368083%" id="linearGradient-2">
            <stop stop-color="#FFFFFF" offset="0%"></stop>
            <stop stop-color="#9AB8FA" offset="100%"></stop>
        </linearGradient>
    </defs>
    <g id="页面-1" stroke="none" stroke-width="1" fill="none" fill-rule="evenodd">
        <g id="导航栏" transform="translate(-52.000000, -2055.000000)">
            <g id="编组备份-4" transform="translate(52.000000, 2055.000000)">
                <path d="M23.7046846,33.6039092 C23.7046846,33.6039092 26.1142284,32.5460818 26.1862862,32.5646247 C26.2592228,32.5831676 26.9305909,32.3270992 27.5114474,32.7103188 C28.0923038,33.0935384 29.8164194,34.0780773 29.8164194,34.0780773 C29.8164194,34.0780773 30.7602013,34.4250941 31.2320922,34.0780773 C31.7048619,33.7319434 33.7374201,31.6348315 33.7374201,31.6348315 C33.7374201,31.6348315 34.5186325,30.9407978 34.1187994,30.0295475 C33.7189663,29.1174142 32.7751844,27.5668759 32.7751844,27.5668759 C32.7751844,27.5668759 32.158299,26.5999969 32.5212245,25.8344407 C32.8841499,25.0680014 33.4650064,23.6454973 33.537943,23.5907516 C33.6100008,23.536006 34.1003456,22.8790581 34.8631041,22.733364 C35.6249839,22.5876699 37.0951395,22.1867904 37.0951395,22.1867904 C37.0951395,22.1867904 38.3842718,21.6207909 38.3482429,20.8737776 C38.3113352,20.1249983 38.3491216,17.5175155 38.3491216,17.5175155 C38.3491216,17.5175155 38.2032484,16.4588051 37.1320472,16.1859598 C36.0617247,15.9122315 34.5722365,15.4928091 34.5722365,15.4928091 C34.5722365,15.4928091 33.7919029,15.4195206 33.4650064,14.6901671 C33.1381098,13.9608137 32.4307128,12.2831242 32.4307128,12.2831242 C32.4307128,12.2831242 32.37623,11.5343448 32.7031266,10.8420771 C33.0291443,10.1489265 34.0107127,8.52509959 34.0107127,8.52509959 C34.0107127,8.52509959 34.409667,7.41252652 33.8463856,6.71937585 C33.2831043,6.02710816 31.4139943,4.34853563 31.4139943,4.34853563 C31.4139943,4.34853563 30.7602013,3.74721638 29.6898788,4.2575872 C28.6186775,4.76795801 27.6028378,5.53351424 27.6028378,5.53351424 C27.6028378,5.53351424 26.7855965,6.15425937 25.8593897,5.78958264 C24.9340616,5.42490592 23.6994121,4.7865009 23.6994121,4.7865009 C23.6994121,4.7865009 22.8461419,4.40328129 22.7196013,3.67392783 L22.1361086,1.10706284 C22.1361086,1.10706284 21.9981442,0.0298095573 20.933973,0.0298095573 C19.868923,0.0298095573 17.6825828,0.1030981 17.6825828,0.0298095573 C17.6825828,-0.0434789857 16.6175329,-0.0770327765 16.0973104,1.13178669 C15.577088,2.34060615 15.4145185,3.41079548 15.3820046,3.41874243 C15.3494907,3.42668938 15.2932504,4.40681326 14.601671,4.70085043 C13.9109702,4.9948876 12.3423942,5.72159207 12.3177891,5.73042201 C12.2940627,5.73836896 11.489124,6.00768228 10.7008815,5.54234418 C9.91263911,5.07612309 8.53914646,4.24345928 8.53914646,4.24345928 C8.53914646,4.24345928 7.71751138,3.70483264 6.88005873,4.43948406 C6.04348483,5.17501847 4.63747828,6.7432167 4.63747828,6.7432167 C4.63747828,6.7432167 3.79211684,7.51053891 4.35276195,8.59662214 C4.91340706,9.68270537 5.63662168,10.858854 5.63662168,10.858854 C5.63662168,10.858854 6.09269506,11.7409655 5.74295093,12.4349992 C5.3932068,13.1290329 4.90549828,14.3219584 4.90549828,14.3219584 C4.90549828,14.3219584 4.63747828,15.2526346 3.68666635,15.4981071 C2.73585442,15.7426966 1.38608813,16.0614576 1.33775665,16.0932454 C1.28854642,16.1267992 0.0943196062,16.4040595 0.0292918032,17.5881551 C-0.036614754,18.7722507 0.0292918032,20.5779744 0.0292918032,20.5779744 C0.0292918032,20.5779744 0.0943196062,21.8512525 1.03722275,22.096725 C1.97924714,22.3413144 3.47488661,22.8313764 3.47488661,22.8313764 C3.47488661,22.8313764 4.52324024,23.052125 4.75874634,23.6649232 C4.99513119,24.2768384 5.6612268,25.8450366 5.63662168,25.8697604 C5.61289532,25.8944843 6.05139362,26.7677658 5.64540922,27.5112472 C5.23854608,28.2538456 4.48281756,29.5933482 4.48281756,29.5933482 C4.48281756,29.5933482 3.81672195,30.7368261 4.48281756,31.4723605 C5.14979191,32.2070119 6.81590968,33.7752101 6.84051479,33.791104 C6.86424115,33.8078809 7.65248358,34.5593093 8.60329551,34.0445235 C9.55410744,33.5306207 10.7580005,32.7871393 10.7817269,32.7783094 C10.806332,32.7712454 11.489124,32.199065 12.3907257,32.5584437 C13.2932061,32.9178225 14.2765319,33.2772012 14.2765319,33.2772012 C14.2765319,33.2772012 15.1464985,33.6198031 15.4470324,34.5266385 C15.7475663,35.4334738 16.1219155,37.1323552 16.1219155,37.1323552 C16.1219155,37.1323552 16.3899355,38.3491216 17.6333726,38.3491216 L20.8118261,38.3491216 C20.8118261,38.3491216 21.738033,38.3402917 22.0552632,37.31955 C22.3716147,36.2988084 22.8355968,34.5593093 22.8355968,34.5593093 L23.7046846,33.6039092" id="Fill-1" fill="url(#linearGradient-1)"></path>
                <path d="M28.0265761,18.9438894 C28.0265761,23.9600155 23.9591387,28.0265761 18.9438894,28.0265761 C13.9268865,28.0265761 9.8612027,23.9600155 9.8612027,18.9438894 C9.8612027,13.9277633 13.9268865,9.8612027 18.9438894,9.8612027 C23.9591387,9.8612027 28.0265761,13.9277633 28.0265761,18.9438894" id="Fill-1" fill="url(#linearGradient-2)"></path>
            </g>
        </g>
    </g>
</svg>