<?xml version="1.0" encoding="UTF-8"?>
<svg width="25px" height="30px" viewBox="0 0 25 30" version="1.1" xmlns="http://www.w3.org/2000/svg" xmlns:xlink="http://www.w3.org/1999/xlink">
    <!-- Generator: Sketch 61.1 (89650) - https://sketch.com -->
    <desc>Created with Sketch.</desc>
    <g id="页面-1" stroke="none" stroke-width="1" fill="none" fill-rule="evenodd" stroke-linecap="round" stroke-linejoin="round">
        <g id="导航栏" transform="translate(-123.000000, -1826.000000)" stroke="#FFFFFF">
            <path d="M123,1855 C123,1855 127.66264,1852.79725 129.585777,1851.36317 C129.985851,1851.06501 130.42068,1850.66359 130.42068,1849.54475 L130.42068,1847.77292 C130.42068,1847.77292 127.939139,1844.90398 128.055763,1842.97065 C128.055763,1842.97065 126.551237,1842.21828 126.421484,1840.77876 C126.280917,1839.21657 126.379005,1838.84854 126.467824,1838.21419 C126.545831,1837.66059 126.589854,1836.92841 127.82406,1836.44236 C127.82406,1836.44236 127.456424,1834.61152 127.617072,1833.25275 C127.895888,1830.88384 128.970218,1827.16703 135.500386,1827.00476 C142.412864,1826.83394 143.309555,1831.31011 143.500324,1832.88472 C143.711174,1834.61851 143.500324,1836.67529 143.500324,1836.67529 C143.500324,1836.67529 144.344496,1836.87639 144.542989,1838.21419 C144.767741,1839.72436 144.661157,1840.56602 144.542989,1841.3378 C144.440267,1842.01019 144.149093,1842.75169 142.61908,1843.25017 C142.61908,1843.25017 141.777225,1846.15404 140.161482,1847.63316 C140.161482,1847.63316 140.132133,1849.20777 140.161482,1849.73109 C140.181563,1850.09058 140.303593,1850.57508 140.999475,1851.20089 C141.513084,1851.66365 146.221292,1854.20881 148,1855" id="Stroke-1"></path>
        </g>
    </g>
</svg>