<?xml version="1.0" standalone="no"?><!DOCTYPE svg PUBLIC "-//W3C//DTD SVG 1.1//EN" "http://www.w3.org/Graphics/SVG/1.1/DTD/svg11.dtd"><svg t="1597998100910" class="icon" viewBox="0 0 1024 1024" version="1.1" xmlns="http://www.w3.org/2000/svg" p-id="7883" xmlns:xlink="http://www.w3.org/1999/xlink" width="64" height="64"><defs><style type="text/css"></style></defs><path d="M511.958491 1023.897824a42.662409 42.662409 0 0 1-17.7049-3.839617l-184.301608-85.324819A367.110032 367.110032 0 0 1 96 602.819844V149.318433a42.662409 42.662409 0 0 1 38.182856-42.66241A1032.216993 1032.216993 0 0 0 492.760407 4.692865a42.662409 42.662409 0 0 1 38.396168 0A1033.496866 1033.496866 0 0 0 889.734125 106.656023 42.662409 42.662409 0 0 1 927.916982 149.318433v453.501411a367.110032 367.110032 0 0 1-213.312047 332.980104l-184.301608 85.324819a42.662409 42.662409 0 0 1-18.344836 2.773057zM181.324819 187.074665v415.745179a281.571901 281.571901 0 0 0 164.036963 255.974455l166.596709 75.512465 166.596708-76.152401a281.571901 281.571901 0 0 0 164.036964-255.974456V187.074665a1110.929139 1110.929139 0 0 1-330.633672-96.843669A1110.929139 1110.929139 0 0 1 181.324819 187.074665z" fill="#90FF3C" p-id="7884" data-spm-anchor-id="a313x.7781069.0.i20" class=""></path><path d="M676.422079 408.919193a32.210119 32.210119 0 0 0-45.222154 0l-119.454746 119.454746-76.579025-76.792336a31.996807 31.996807 0 0 0-45.435466 45.222153L489.134102 597.27373a32.210119 32.210119 0 0 0 45.435466 0l141.852511-142.065823a31.783495 31.783495 0 0 0 0-46.288714z" fill="#A7A7A7" p-id="7885" data-spm-anchor-id="a313x.7781069.0.i19" class="selected"></path></svg>