<?xml version="1.0" encoding="UTF-8"?>
<svg width="42px" height="42px" viewBox="0 0 42 42" version="1.1" xmlns="http://www.w3.org/2000/svg" xmlns:xlink="http://www.w3.org/1999/xlink">
    <!-- Generator: Sketch 56.3 (81716) - https://sketch.com -->
    <title>icon_addimgcam</title>
    <desc>Created with Sketch.</desc>
    <g id="页面-1" stroke="none" stroke-width="1" fill="none" fill-rule="evenodd">
        <g id="切图" transform="translate(-122.000000, -94.000000)" fill-rule="nonzero">
            <g id="icon_addimgcam" transform="translate(119.000000, 91.000000)">
                <rect id="矩形" fill="#000000" opacity="0" x="0" y="0" width="48" height="48"></rect>
                <path d="M24,3.046875 C35.5734375,3.046875 44.953125,12.4265625 44.953125,24 C44.953125,35.5734375 35.5734375,44.953125 24,44.953125 C12.4265625,44.953125 3.046875,35.5734375 3.046875,24 C3.046875,12.4265625 12.4265625,3.046875 24,3.046875 Z M36.4828125,23.34375 C36.4828125,22.51875 35.8078125,21.84375 34.9828125,21.84375 L26.15625,21.84375 L26.15625,13.0171875 C26.15625,12.1921875 25.48125,11.5171875 24.65625,11.5171875 C23.83125,11.5171875 23.15625,12.1921875 23.15625,13.0171875 L23.15625,21.84375 L14.3296875,21.84375 C13.5046875,21.84375 12.8296875,22.51875 12.8296875,23.34375 C12.8296875,24.16875 13.5046875,24.84375 14.3296875,24.84375 L23.15625,24.84375 L23.15625,33.6703125 C23.15625,34.4953125 23.83125,35.1703125 24.65625,35.1703125 C25.48125,35.1703125 26.15625,34.4953125 26.15625,33.6703125 L26.15625,24.84375 L34.9828125,24.84375 C35.8078125,24.84375 36.4828125,24.16875 36.4828125,23.34375 Z" id="形状" fill="#81C1ED"></path>
            </g>
        </g>
    </g>
</svg>