<?xml version="1.0" encoding="UTF-8"?>
<svg width="40px" height="44px" viewBox="0 0 40 44" version="1.1" xmlns="http://www.w3.org/2000/svg" xmlns:xlink="http://www.w3.org/1999/xlink">
    <title>形状结合</title>
    <g id="页面-1" stroke="none" stroke-width="1" fill="none" fill-rule="evenodd">
        <path d="M19.9967594,0 C28.9607348,8.10945233 34.7839401,16.1013018 37.3739084,20.1051637 C37.4545949,20.2303682 39.6222374,23.3571276 39.8658527,25.6975579 C39.9698782,26.696064 41.0930424,33.3864572 34.4411894,36.44972 C31.646282,37.7368672 26.4098872,37.4833281 23.55252,33.38601 C26.0137901,31.7301802 26.926236,29.5985732 27.0002541,28.1216069 C27.0642698,26.8389313 27.136732,25.1332432 24.2491352,22.7150073 C22.766105,21.4727995 21.5215777,20.0825821 20.5597863,18.5278102 C19.2427968,16.3991097 18.8375863,14.7160032 18.7122223,12.2047582 C18.5404024,8.75537353 19.9674189,5.75806665 19.9914247,5.74062745 C19.4539597,6.12697284 17.5546051,7.69806604 16.2129429,9.96963384 C14.6201079,12.6666734 14.6607846,14.7830771 14.3111433,16.0460777 C14.0055128,17.1498897 12.3239895,18.1698594 11.2890691,18.8499883 C10.2539264,19.5301172 10.4450844,20.2699418 11.1923787,20.6681369 C11.6660504,20.9207817 11.8276456,21.0455391 11.9810165,21.1933251 C12.5369306,21.7303631 11.5751392,22.831045 11.2339444,23.1250521 C11.0007762,23.3260501 10.9749921,23.5487353 10.9761035,23.7081474 C10.9821049,24.5114686 12.1997368,24.9203955 12.1997368,24.9203955 C11.7858575,24.8370004 11.3315239,24.878139 11.1325863,25.3275338 C10.9574322,25.7228224 11.099467,25.9535564 11.5097899,26.2529294 C12.0072451,26.6157989 12.1768423,27.0115347 11.9238914,27.5669062 C11.6707182,28.1220541 11.5906986,28.4243336 11.5282388,28.7237065 C11.1830431,30.3766298 12.9174683,31.0370837 16.8366513,31.0370837 C18.918495,31.0370837 20.9058712,32.483196 21.3035242,34.363276 C21.776529,36.5999654 22.7392095,38.2886615 23.7127815,40.0518095 C25.2038137,42.751532 27.8104528,44 27.8104528,44 L27.8104528,44 L12.2066274,44 C15.1915814,42.4226466 16.9562362,39.3468633 17.6919721,37.2926148 C18.4281526,35.2381427 18.3601359,34.3051454 17.6552965,33.7947134 C16.8399855,33.2044635 16.2896283,33.6241222 16.0340101,33.9141048 C11.6958355,38.8409029 6.2571688,37.00375 4.49140257,35.9137999 C0.827615474,33.6520696 0.0120822057,30.5060824 3.94738755e-05,27.2451753 C-0.00992318906,24.4732365 1.86920416,21.3835913 1.9356649,21.273143 C8.48749336,10.4112034 19.9967594,0 19.9967594,0 Z M18.5127956,9.01937621 C18.468118,9.1231171 17.6139085,12.5631114 18.4185503,15.7687944 C18.9951361,18.0658503 19.9653739,20.1943272 21.4068384,22.0542851 C22.2897215,23.1931991 23.452451,24.1011555 24.35934,25.2181587 C25.2737864,26.3438815 25.9179444,27.6882651 25.7970258,29.2680779 C25.6987795,30.5507536 24.945706,31.7732863 23.8172071,32.3787396 C24.610735,31.4300918 25.0612899,30.5346558 24.8888032,29.4520839 C24.716761,28.3695119 23.8709981,27.1648655 23.16727,26.3275602 C21.7458104,24.6359577 20.0949612,23.4384658 18.7459639,20.9511438 C17.7070425,19.0361853 17.3929655,17.0338073 17.256043,15.7585097 C16.8501658,11.9744266 18.3667598,9.35876991 18.5127956,9.01937621 Z" id="形状结合" fill="#DDA877"></path>
    </g>
</svg>