<?xml version="1.0" encoding="UTF-8"?>
<svg width="27px" height="27px" viewBox="0 0 27 27" version="1.1" xmlns="http://www.w3.org/2000/svg" xmlns:xlink="http://www.w3.org/1999/xlink">
    <!-- Generator: Sketch 61.1 (89650) - https://sketch.com -->
    <title>编组</title>
    <desc>Created with Sketch.</desc>
    <g id="页面-1" stroke="none" stroke-width="1" fill="none" fill-rule="evenodd" stroke-linecap="round" stroke-linejoin="round">
        <g id="导航栏" transform="translate(-122.000000, -2753.000000)" stroke="#FFFFFF">
            <g id="编组" transform="translate(123.000000, 2753.000000)">
                <polyline id="Stroke-1" points="18.8841447 9.50526316 22.0084868 11.2296053 12.4361184 15.5032895 2.81440789 11.2296053 6.18809211 9.62960526"></polyline>
                <path d="M2.60032895,15.7790132 L2.60032895,20.7270395 C2.60032895,20.7270395 2.38914474,21.5770395 3.33914474,22.0263816 L12.4115132,25.6750658 L12.4115132,15.5033553" id="Stroke-2"></path>
                <path d="M22.0814474,15.8426316 L22.0814474,20.7268421 C22.0814474,20.7268421 22.2327632,21.5518421 21.6334211,21.8761842 L12.4110526,25.6748684" id="Stroke-4"></path>
                <path d="M3.76381579,6.03138158 L0.665131579,7.43072368 C0.665131579,7.43072368 -0.343421053,7.95572368 0.123026316,8.75572368 L2.81447368,11.2294079 L0.489473684,13.47875 C0.489473684,13.47875 -0.334868421,14.4050658 0.489473684,14.82875 L8.4875,18.42875 C8.4875,18.42875 9.08684211,18.9524342 9.78684211,18.1524342 L12.4361842,15.5030921 L15.1605263,18.0780921 C15.1605263,18.0780921 15.6256579,18.5984868 16.2098684,18.3708553 C17.5756579,17.8405921 24.3822368,14.82875 24.3822368,14.82875 C24.3822368,14.82875 25.3769737,14.3715132 24.5572368,13.5794079 C23.4453947,12.5044079 22.0078947,11.2294079 22.0078947,11.2294079 L24.6572368,8.65506579 C25.1322368,7.90572368 24.0578947,7.53072368 24.0578947,7.53072368 L21.1085526,6.03138158" id="Stroke-6"></path>
                <path d="M19.3306579,9.50526316 L5.41552632,9.50526316 C4.54776316,9.50526316 3.83723684,8.79539474 3.83723684,7.92763158 L3.83723684,2.23552632 C3.83723684,1.36776316 4.54776316,0.657894737 5.41552632,0.657894737 L19.3306579,0.657894737 C20.1984211,0.657894737 20.9082895,1.36776316 20.9082895,2.23552632 L20.9082895,7.92763158 C20.9082895,8.79539474 20.1984211,9.50526316 19.3306579,9.50526316 Z" id="Stroke-8"></path>
                <path d="M9.17927632,4.05703947 C9.17927632,4.05703947 9.44835526,2.78598684 8.14967105,2.69980263 C7.31611842,2.64453947 6.50164474,2.99388158 6.56480263,3.83532895 C6.62664474,4.65243421 7.20164474,5.06361842 7.99638158,5.22085526 C8.42730263,5.30572368 9.20230263,5.43927632 9.17927632,6.57743421 C9.16348684,7.36756579 8.21151316,7.43203947 7.75230263,7.43335648 C7.26611842,7.43401316 6.56151316,7.16822368 6.56940789,6.05046053" id="Stroke-10"></path>
                <path d="M11.1850658,2.63651316 L11.1850658,7.59835526 C11.1850658,7.59835526 13.7205921,7.82861842 13.7205921,5.06348684 C13.7205921,2.56480263 11.1850658,2.63651316 11.1850658,2.63651316 Z" id="Stroke-12"></path>
                <path d="M15.7148026,2.50164474 C15.7148026,2.50164474 15.6878289,7.60296053 15.7148026,7.60296053" id="Stroke-14"></path>
                <polyline id="Stroke-16" points="18.2221053 2.56460526 15.7148684 5.17710526 18.0892105 7.66197368"></polyline>
            </g>
        </g>
    </g>
</svg>