<?xml version="1.0" standalone="no"?><!DOCTYPE svg PUBLIC "-//W3C//DTD SVG 1.1//EN" "http://www.w3.org/Graphics/SVG/1.1/DTD/svg11.dtd"><svg t="1595154650201" class="icon" viewBox="0 0 1024 1024" version="1.1" xmlns="http://www.w3.org/2000/svg" p-id="2094" xmlns:xlink="http://www.w3.org/1999/xlink" width="200" height="200"><defs><style type="text/css"></style></defs><path d="M546.304 491.008V317.44h67.072a34.304 34.304 0 0 0 0-68.608h-67.072v-51.2h67.072a34.304 34.304 0 0 0 0-68.608h-67.072v-40.448a34.304 34.304 0 0 0-68.608 0v402.432c-122.368 16.896-217.088 121.856-217.088 248.832 0 138.752 112.64 251.392 251.392 251.392s251.392-112.64 251.392-251.392c0-126.976-94.72-231.936-217.088-248.832z m-34.304 431.616c-100.864 0-182.784-81.92-182.784-182.784 0-100.864 81.92-182.784 182.784-182.784 100.864 0 182.784 81.92 182.784 182.784 0.512 100.864-81.92 182.784-182.784 182.784z" p-id="2095" fill="#409EFF"></path></svg>