<?xml version="1.0" standalone="no"?><!DOCTYPE svg PUBLIC "-//W3C//DTD SVG 1.1//EN" "http://www.w3.org/Graphics/SVG/1.1/DTD/svg11.dtd"><svg t="1564390440562" class="icon" viewBox="0 0 1024 1024" version="1.1" xmlns="http://www.w3.org/2000/svg" p-id="1007" xmlns:xlink="http://www.w3.org/1999/xlink" width="200" height="200"><defs><style type="text/css"></style></defs><path d="M927 656v175c0 53-43 96-96 96H193c-53 0-96-43-96-96V193c0-53 43-96 96-96h175c8.8 0 16 7.2 16 16v32c0 8.8-7.2 16-16 16H193c-17.7 0-32 14.3-32 32v638c0 17.7 14.3 32 32 32h638c17.7 0 32-14.3 32-32V656c0-8.8 7.2-16 16-16h32c8.8 0 16 7.2 16 16z m-490.3-47.6c6.2 6.2 16.4 6.2 22.6 0l402.3-402.3V432c0 8.8 7.2 16 16 16h32c8.8 0 16-7.2 16-16V113c0-7.3-4.9-13.4-11.5-15.3-1.5-0.5-3.1-0.7-4.8-0.7H592c-8.8 0-16 7.2-16 16v32c0 8.8 7.2 16 16 16h224.3L414.1 563.2c-6.2 6.2-6.2 16.4 0 22.6l22.6 22.6z" p-id="1008"></path></svg>