<?xml version="1.0" standalone="no"?><!DOCTYPE svg PUBLIC "-//W3C//DTD SVG 1.1//EN" "http://www.w3.org/Graphics/SVG/1.1/DTD/svg11.dtd"><svg t="1597999363579" class="icon" viewBox="0 0 1024 1024" version="1.1" xmlns="http://www.w3.org/2000/svg" p-id="10210" xmlns:xlink="http://www.w3.org/1999/xlink" width="64" height="64"><defs><style type="text/css"></style></defs><path d="M136.704592 649.204586c0 9.79988 3.699955 19.59976 11.199863 26.99967l336.595881 336.595881c7.199912 7.199912 16.899793 11.199863 26.99967 11.199863 10.099876 0 19.899757-3.999951 26.99967-11.199863l337.595869-337.595869c14.899818-14.899818 14.899818-39.099522 0-54.099338s-39.19952-14.899818-54.099338 0L511.500006 931.701129 201.903794 622.104918c-14.899818-14.899818-39.19952-14.899818-54.099338 0-7.399909 7.499908-11.099864 17.299788-11.099864 27.099668z" p-id="10211" fill="#90ff3c"></path><path d="M136.704592 344.208318c0 9.79988 3.699955 19.59976 11.199863 26.99967l336.595881 336.595881c7.199912 7.199912 16.899793 11.199863 26.99967 11.199863 10.099876 0 19.899757-3.999951 26.99967-11.199863l337.595869-337.595869c14.899818-14.899818 14.899818-39.099522 0-54.099338s-39.19952-14.899818-54.099338 0L511.500006 626.704861 201.903794 317.208649c-14.899818-14.899818-39.19952-14.899818-54.099338 0-7.399909 7.499908-11.099864 17.19979-11.099864 26.999669z" p-id="10212" fill="#90ff3c"></path><path d="M136.704592 39.312049c0 9.79988 3.699955 19.59976 11.199863 26.99967l336.595881 336.595881c7.199912 7.199912 16.899793 11.199863 26.99967 11.199863 10.099876 0 19.899757-3.999951 26.99967-11.199863L876.095545 65.311731c14.899818-14.899818 14.899818-39.099522 0-54.099338s-39.19952-14.899818-54.099338 0L511.500006 321.808592 201.903794 12.212381c-14.899818-14.899818-39.19952-14.899818-54.099338 0-7.399909 7.499908-11.099864 17.299788-11.099864 27.099668z" p-id="10213" fill="#90ff3c"></path></svg>