<?xml version="1.0" encoding="UTF-8"?>
<svg width="27px" height="23px" viewBox="0 0 27 23" version="1.1" xmlns="http://www.w3.org/2000/svg" xmlns:xlink="http://www.w3.org/1999/xlink">
    <!-- Generator: Sketch 61.1 (89650) - https://sketch.com -->
    <title>编组</title>
    <desc>Created with Sketch.</desc>
    <g id="页面-1" stroke="none" stroke-width="1" fill="none" fill-rule="evenodd">
        <g id="导航栏" transform="translate(-122.000000, -2679.000000)">
            <g id="编组" transform="translate(123.000000, 2680.000000)">
                <path d="M17.2570625,8.496375 C17.2570625,13.18825 13.4533125,16.94575 8.7608125,16.992625 C6.3283125,17.016375 4.2626875,15.67325 4.2626875,15.67325 L0.0001875,17.192 L1.1720625,12.856375 C1.1720625,12.856375 0.2145625,10.551375 0.2651875,8.496375 C0.3795625,3.805125 4.0689375,0.000125 8.7608125,0.000125 C13.4533125,0.000125 17.2570625,3.803875 17.2570625,8.496375 Z" id="Stroke-1" stroke="#FFFFFF" stroke-linecap="round" stroke-linejoin="round"></path>
                <path d="M6.214875,6.2063125 C6.214875,6.2063125 6.347375,4.0838125 8.5455,4.0838125 C10.108,4.0838125 11.2305,5.0238125 11.2305,6.6381875 C11.2305,8.8231875 8.763625,9.4594375 8.763625,9.4594375 L8.763625,10.4250625" id="Stroke-3" stroke="#FFFFFF" stroke-linecap="round" stroke-linejoin="round"></path>
                <path d="M10.4864375,16.889875 C11.7058125,19.351125 14.2495625,21.037375 17.1908125,21.067375 C19.3301875,21.088625 21.1470625,19.907375 21.1470625,19.907375 L24.8951875,21.243 L23.8645625,17.42925 C23.8645625,17.42925 24.7064375,15.403 24.6626875,13.5955 C24.5620625,9.469875 21.3170625,6.123 17.1908125,6.123" id="Stroke-7" stroke="#FFFFFF" stroke-linecap="round" stroke-linejoin="round"></path>
                <path d="M9.8034375,13.0325 C9.8034375,13.556875 9.3784375,13.9825 8.8534375,13.9825 C8.3296875,13.9825 7.9040625,13.556875 7.9040625,13.0325 C7.9040625,12.508125 8.3296875,12.0825 8.8534375,12.0825 C9.3784375,12.0825 9.8034375,12.508125 9.8034375,13.0325" id="Fill-5" fill="#FFFFFF"></path>
            </g>
        </g>
    </g>
</svg>