<?xml version="1.0" encoding="UTF-8"?>
<svg width="37px" height="37px" viewBox="0 0 37 37" version="1.1" xmlns="http://www.w3.org/2000/svg" xmlns:xlink="http://www.w3.org/1999/xlink">
    <!-- Generator: Sketch 61.1 (89650) - https://sketch.com -->
    <title>编组 3</title>
    <desc>Created with Sketch.</desc>
    <defs>
        <polygon id="path-1" points="0 0 36.75 0 36.75 36.75 0 36.75"></polygon>
        <linearGradient x1="85.1010085%" y1="17.001051%" x2="20.5602186%" y2="58.4139588%" id="linearGradient-3">
            <stop stop-color="#FFFFFF" offset="0%"></stop>
            <stop stop-color="#9AB8FA" offset="100%"></stop>
        </linearGradient>
        <polygon id="path-4" points="0 0.69060787 13.3009293 0.69060787 13.3009293 18.0903599 0 18.0903599"></polygon>
    </defs>
    <g id="页面-1" stroke="none" stroke-width="1" fill="none" fill-rule="evenodd">
        <g id="导航栏" transform="translate(-53.000000, -2591.000000)">
            <g id="编组-3" transform="translate(53.000000, 2591.000000)">
                <g id="编组备份-5">
                    <mask id="mask-2" fill="white">
                        <use xlink:href="#path-1"></use>
                    </mask>
                    <g id="Clip-2"></g>
                    <path d="M36.75,18.375 C36.75,28.523401 28.5230012,36.75 18.375,36.75 C8.22699878,36.75 0,28.523401 0,18.375 C0,8.22659895 8.22699878,0 18.375,0 C28.5230012,0 36.75,8.22659895 36.75,18.375" id="Fill-1" fill="url(#linearGradient-3)" mask="url(#mask-2)"></path>
                </g>
                <g id="编组备份-6" transform="translate(11.000000, 6.000000)">
                    <g id="编组" transform="translate(0.000000, 0.127766)">
                        <mask id="mask-5" fill="white">
                            <use xlink:href="#path-4"></use>
                        </mask>
                        <g id="Clip-2"></g>
                        <path d="M13.2948763,7.16643696 C13.0012269,1.81367385 9.46598203,0.69060787 6.55320859,0.69060787 C1.86954086,0.69060787 0.068381876,4.61275016 0.000490779014,7.24905143 C-0.0224122417,8.14799499 0.683491574,8.89070723 1.58243514,8.92097194 C2.43802655,8.95123665 3.23472448,8.2436969 3.27071494,7.34475334 C3.2928,6.78035747 3.55863863,3.96246797 6.55320859,3.96246797 C9.59031272,3.96246797 9.9297682,5.56322552 10.027924,7.3455713 C10.07373,8.19380103 9.08153847,9.76347591 6.21947886,10.3597724 C5.46040731,10.5184576 4.91727854,11.1867351 4.91727854,11.9613479 L4.91727854,16.4544298 C4.91727854,17.3574632 5.64935723,18.0903599 6.55320859,18.0903599 C7.45624197,18.0903599 8.18913863,17.3574632 8.18913863,16.4544298 L8.18913863,13.2152883 C11.8462603,12.0047001 13.4134812,9.33486224 13.2948763,7.16643696" id="Fill-1" fill="#0A1E3E" mask="url(#mask-5)"></path>
                    </g>
                    <path d="M6.89650851,19.9926193 C5.6057597,19.9926193 4.55958243,21.0387966 4.55958243,22.3295454 C4.55958243,23.6202942 5.6057597,24.6664715 6.89650851,24.6664715 C8.18725731,24.6664715 9.23343458,23.6202942 9.23343458,22.3295454 C9.23343458,21.0387966 8.18725731,19.9926193 6.89650851,19.9926193" id="Fill-3" fill="#0A1E3E"></path>
                </g>
            </g>
        </g>
    </g>
</svg>