<?xml version="1.0" encoding="UTF-8"?>
<svg width="36px" height="21px" viewBox="0 0 36 21" version="1.1" xmlns="http://www.w3.org/2000/svg" xmlns:xlink="http://www.w3.org/1999/xlink">
    <!-- Generator: Sketch 61.1 (89650) - https://sketch.com -->
    <title>编组</title>
    <desc>Created with Sketch.</desc>
    <g id="页面-1" stroke="none" stroke-width="1" fill="none" fill-rule="evenodd" stroke-linecap="round" stroke-linejoin="round">
        <g id="导航栏" transform="translate(-117.000000, -1489.000000)" stroke="rgb(153, 153, 153)">
            <g id="编组" transform="translate(118.000000, 1490.000000)">
                <path d="M34.2333409,9.70096591 C34.2333409,4.34755682 30.2672045,0.000397727273 25.3823182,0.000397727273 L8.85197727,0.000397727273 C3.96629545,0.000397727273 0.000159090909,4.34755682 0.000159090909,9.70096591 C0.000159090909,15.0551705 3.96629545,19.4023295 8.85197727,19.4023295 L25.3823182,19.4023295 C30.2672045,19.4023295 34.2333409,15.0551705 34.2333409,9.70096591 Z" id="Stroke-1"></path>
                <path d="M9.89736364,0.766102273 L9.89736364,2.58053409 C9.89736364,3.27417045 10.5027045,3.83735227 11.2488409,3.83735227 L22.9841818,3.83735227 C23.7303182,3.83735227 24.3356591,3.27417045 24.3356591,2.58053409 L24.3356591,0.766102273" id="Stroke-3"></path>
                <polygon id="Stroke-5" points="17.4221591 8.01913636 15 11.62175 17.4221591 15.1241364 19.8395455 11.62175"></polygon>
                <path d="M8.29054545,9.29313636 C8.29054545,9.29313636 7.44577273,8.15643182 6.00281818,8.15643182 C4.55827273,8.15643182 4.20270455,9.61847727 4.62111364,10.8347273 C4.95043182,11.7908636 7.22463636,14.1493864 8.29054545,14.7006364 C8.29054545,14.7006364 11.0245227,12.0939318 11.6608864,10.8347273 C12.0936136,9.98120455 12.1882727,8.232 10.1471364,8.15802273 C9.00168182,8.11665909 8.29054545,9.29313636 8.29054545,9.29313636 Z" id="Stroke-7"></path>
                <path d="M26.2523319,13.0070341 C26.2523319,13.0070341 26.8505137,13.7746477 28.1781274,13.7746477 C29.5041501,13.7746477 30.0450592,12.3555568 29.6672183,11.4630568 C29.3673319,10.7551023 27.2323319,8.651125 26.2523319,8.15794318 C26.2523319,8.15794318 23.8254001,10.1497614 23.2399456,11.2777159 C22.8438092,12.0429432 22.7268774,13.708625 24.6025592,13.7746477 C25.655741,13.8120341 26.2523319,13.0070341 26.2523319,13.0070341 Z" id="Stroke-9"></path>
                <polyline id="Stroke-11" points="25.5807297 13.6813409 25.1662978 15.0391818 27.6194797 15.0391818 27.1883433 13.6813409"></polyline>
            </g>
        </g>
    </g>
</svg>