<?xml version="1.0" encoding="UTF-8"?>
<svg width="200px" height="200px" viewBox="0 0 200 200" version="1.1" xmlns="http://www.w3.org/2000/svg" xmlns:xlink="http://www.w3.org/1999/xlink">
    <title>编组</title>
    <defs>
        <path d="M74.6859079,30.2108935 C76.8987099,29.749893 78.4661113,28.4590919 79.3881121,26.33849 C80.0796127,24.7249886 80.425363,22.880987 80.425363,20.8064851 L80.425363,20.8064851 L80.425363,14.1680792 L81.4280389,14.1680792 C82.6266399,14.0989292 83.1913654,14.6406047 83.1222154,15.7931057 L83.1222154,15.7931057 L83.1222154,25.162939 C83.0761153,26.31544 82.5574899,26.9032155 81.566339,26.9262655 L81.566339,26.9262655 L80.6328132,26.9262655 L80.6328132,29.8651432 L81.7737892,29.8651432 C83.2028905,29.8651432 84.2862414,29.4502428 85.0238421,28.620442 C85.6692426,27.8597914 85.9919429,26.7418654 85.9919429,25.2666641 L85.9919429,25.2666641 L85.9919429,15.5510805 C85.9919429,13.868429 85.6231426,12.7159279 84.8855419,12.0935774 C84.2631914,11.4251268 83.1567904,11.1024265 81.566339,11.1254765 L81.566339,11.1254765 L80.425363,11.1254765 L80.425363,7.7025485 L85.9919429,7.7025485 L85.9919429,4.6599458 L82.9147652,4.6599458 C82.3846147,3.16169447 82.0964895,1.68649316 82.0503894,0.234341874 L82.0503894,0.234341874 L78.1088359,0.234341874 C78.177986,1.6173431 78.4776363,3.09254441 79.0077867,4.6599458 L79.0077867,4.6599458 L75.5848587,4.6599458 L75.5848587,7.7025485 L76.7949848,7.7025485 L76.7949848,21.1176604 C76.7949848,22.5006616 76.6336346,23.6185876 76.3109343,24.4714384 C75.965184,25.4164892 75.4235086,26.0849398 74.6859079,26.4767901 L74.6859079,26.4767901 L74.6859079,30.2108935 Z M86.8217437,8.98182463 C88.4582951,8.58997428 89.8297713,7.65644846 90.9361723,6.18124715 L90.9361723,6.18124715 L98.4043789,6.18124715 L98.4043789,3.24236954 L92.4574737,3.24236954 C92.7571239,2.41256881 92.9645741,1.40989292 93.0798242,0.234341874 L93.0798242,0.234341874 L89.414871,0.234341874 C89.2996209,1.502093 89.0806457,2.52781891 88.7579454,3.3115196 C88.366095,4.30267048 87.7206945,5.06332116 86.8217437,5.59347163 L86.8217437,5.59347163 L86.8217437,8.98182463 Z M74.824208,8.22117396 L74.824208,5.04027114 C73.9022072,4.87892099 73.1530815,4.36029553 72.576831,3.48439476 C72.0927806,2.67764404 71.8046553,1.59429308 71.7124553,0.234341874 L71.7124553,0.234341874 L68.2549522,0.234341874 C68.3702023,2.42409382 68.8773027,4.16437036 69.7762535,5.4551715 C70.8596045,7.137823 72.542256,8.05982381 74.824208,8.22117396 L74.824208,8.22117396 Z M74.9625081,17.1069568 L74.9625081,13.960629 C73.8561072,13.7301288 73.0263064,13.1538783 72.4731059,12.2318775 C72.0121055,11.4481768 71.7585553,10.4224509 71.7124553,9.15469979 L71.7124553,9.15469979 L68.2203772,9.15469979 C68.3817273,11.3444517 68.8888278,13.0616783 69.7416785,14.3063794 C70.8480795,16.0120809 72.588356,16.9456067 74.9625081,17.1069568 L74.9625081,17.1069568 Z M90.8670223,29.8651432 C92.2039234,29.8651432 93.1950743,29.4732928 93.8404749,28.6895921 C94.3936754,27.9750415 94.6702756,26.9262655 94.6702756,25.5432643 L94.6702756,25.5432643 L94.6702756,21.5325608 L98.8884294,21.5325608 L98.8884294,18.6282582 L94.6702756,18.6282582 L94.6702756,17.314407 L96.9522276,13.5803037 C97.5515282,12.5430528 97.7128783,11.621052 97.4362781,10.8143013 C97.0905278,10.0767006 96.3068271,9.70790028 95.085176,9.70790028 L95.085176,9.70790028 L87.9972947,9.70790028 L87.9972947,12.6467779 L93.1835493,12.6467779 C93.3448994,12.6467779 93.4486245,12.6813529 93.4947246,12.750503 C93.5408246,12.819653 93.5177746,12.9233781 93.4255745,13.0616783 L93.4255745,13.0616783 L91.0053224,16.9686567 L91.0053224,18.6282582 L87.0637689,18.6282582 L87.0637689,21.5325608 L91.0053224,21.5325608 L91.0053224,25.128364 C91.0283724,26.3730651 90.4982219,26.9838906 89.414871,26.9608406 L89.414871,26.9608406 L87.8244196,26.9608406 L87.8244196,29.8651432 L90.8670223,29.8651432 Z M68.2203772,30.2454685 C70.7558794,29.2082176 72.542256,27.3642159 73.5795069,24.7134636 C74.2018575,23.1460622 74.5937078,21.1291854 74.755058,18.6628332 L74.755058,18.6628332 L71.2284048,18.6628332 C71.1823048,20.3224347 70.9633296,21.774586 70.5714793,23.0192871 C70.0643788,24.6558385 69.2806781,25.8659646 68.2203772,26.6496653 L68.2203772,26.6496653 L68.2203772,30.2454685 Z M135.253678,29.8651432 L135.253678,26.8571155 L133.075451,26.8571155 C131.3467,26.7649154 130.205724,25.7507145 129.652523,23.8145128 L129.652523,23.8145128 L128.926448,20.63361 C132.522251,18.5821581 134.631328,15.9083558 135.253678,12.6122029 L135.253678,12.6122029 L131.8999,12.6122029 C131.41585,14.5023045 130.182674,16.138856 128.200372,17.5218572 L128.200372,17.5218572 L126.748221,11.0909015 L134.907928,9.67332525 L134.907928,6.56157249 L126.091295,8.08287383 L124.327969,0.234341874 L120.248115,0.234341874 L122.149742,8.77437445 L117.897013,9.50045009 L117.897013,12.6467779 L122.841242,11.7824021 L124.535419,19.3889089 C122.783617,20.1034595 120.44404,20.7719101 117.516688,21.3942606 L117.516688,21.3942606 L117.516688,24.6097385 C120.53624,23.9643379 123.106318,23.2267373 125.226919,22.3969365 L125.226919,22.3969365 L125.64182,24.1948381 C126.03367,26.0618898 126.713646,27.444891 127.681747,28.3438418 C128.788148,29.3580427 130.367074,29.8651432 132.418526,29.8651432 L132.418526,29.8651432 L135.253678,29.8651432 Z M132.902576,6.25039721 L132.902576,3.65726991 C131.796175,3.24236954 131.13925,2.41256881 130.931799,1.1678677 L130.931799,1.1678677 L127.474296,1.1678677 C127.727847,2.62001899 128.257997,3.73794498 129.064748,4.52164568 C129.940649,5.42059647 131.219925,5.99684698 132.902576,6.25039721 L132.902576,6.25039721 Z M118.104463,30.2454685 L118.104463,26.5459402 C116.006911,25.162939 114.358835,23.6531626 113.160234,22.0166112 C113.482934,21.4634107 113.782584,20.9102102 114.059184,20.3570097 C115.834036,16.5768064 116.871287,12.4623777 117.170937,8.01372377 C117.286187,6.14667212 116.963487,4.78672091 116.202836,3.93387016 C115.442186,2.9657693 114.128335,2.48171887 112.261283,2.48171887 L112.261283,2.48171887 L105.415427,2.48171887 L105.415427,5.52432157 L111.708082,5.52432157 C113.068034,5.50127155 113.667334,6.29649725 113.505984,7.90999868 C113.275484,12.1051024 112.514833,15.6432805 111.224032,18.5245331 C111.154882,18.432333 111.108782,18.3170829 111.085732,18.1787828 C109.887131,15.3436303 109.26478,11.690202 109.21868,7.21849807 L109.21868,7.21849807 L105.519152,7.21849807 C105.795752,12.2434025 106.567928,16.3117311 107.835679,19.4234839 C108.204479,20.3915848 108.64243,21.3020606 109.14953,22.1549113 C107.904829,23.8145128 106.429628,25.2666641 104.723926,26.5113652 L104.723926,26.5113652 L104.723926,30.2108935 C107.213328,28.8048422 109.345455,27.0415156 111.120307,24.9209138 C112.872108,26.9493156 115.20016,28.7241671 118.104463,30.2454685 L118.104463,30.2454685 Z" id="path-1"></path>
    </defs>
    <g id="页面-1" stroke="none" stroke-width="1" fill="none" fill-rule="evenodd">
        <g id="编组">
            <rect id="矩形" x="0" y="0" width="200" height="200"></rect>
            <g id="编组-2" transform="translate(32.000000, 10.000000)" fill-rule="nonzero">
                <path d="M91.7374462,24.8336389 C98.4171409,24.3943836 104.317753,25.609499 109.938008,30.1366083 C115.558262,34.6637177 118.926898,41.5641347 118.794638,48.8226789 C119.000614,59.0814045 112.039175,68.0710647 103.136109,71.3649813 C112.992387,73.624662 123.394443,84.3427601 123.394443,96.7964618 C123.394443,104.737972 120.800568,111.591394 115.438475,117.072461 C108.318951,124.349953 98.4613246,125.060649 95.1933396,125.084142 L94.8500566,125.084168 C94.3619963,125.080584 94.0920094,125.062431 94.0920094,125.062431 L49.4325073,125.062431 L49.4325073,119.756585 L54.3732301,119.756585 C58.2870417,119.756585 61.9001125,116.868558 61.9001125,112.747203 L61.9001125,112.747203 L61.9001125,106.63279 C66.1937151,105.607727 70.4931975,103.488966 74.3298617,100.907191 L74.3298617,100.907191 L74.3298617,112.747203 C74.3298617,116.576617 77.0405988,119.58858 81.4436384,119.756585 L81.4436384,119.756585 L95.150337,119.756585 C106.248599,119.756585 110.265157,105.794275 110.265157,96.7964618 C109.938008,91.0449445 109.007136,86.286669 106.233566,81.9745172 C103.459996,77.6623653 99.4426893,74.3382875 93.4671455,75.4642241 L93.4671455,75.4642241 L95.5973859,68.2270951 C102.392968,65.7993612 105.323782,56.1052557 105.323782,50.617029 C105.555379,41.9199178 103.463858,37.1477069 100.758737,33.3867082 C98.0536166,29.6257096 93.8121261,29.2591601 93.8121261,29.2591601 L74.3677177,29.2591601 C74.4016532,37.2300958 74.4196191,44.4222213 74.4216153,50.8355365 L74.4216153,53.204023 C74.4196191,59.4226357 74.4016532,64.8624381 74.3677177,69.5234302 C74.2595481,84.3803427 61.9001125,92.3090404 61.9001125,92.3090404 L61.9001125,92.3090404 L61.9003522,92.172116 C61.9004049,92.1419837 61.9004662,92.1069771 61.9005357,92.0671947 L61.901382,91.5828627 C61.9112898,85.9085407 61.9761698,48.62008 61.9886344,38.0805192 L61.9894341,37.3739725 C61.9895521,37.2640592 61.9896622,37.1581337 61.9897644,37.0562947 L61.990464,36.2527331 C61.9905167,36.1762984 61.9905609,36.1042454 61.9905964,36.0366726 L61.9907037,35.6857865 C62.0433737,32.411186 58.5796306,29.199274 55.2873899,29.2702831 C52.9405765,29.2798819 51.6091648,29.2885223 49.4325073,29.2591601 L49.4325073,29.2591601 L49.4325073,24.8336389 Z M52.62637,9.71428037e-05 C72.2687547,-0.0261068771 83.0988002,16.9258179 84.7458056,20.3235109 L84.7458056,20.3235109 L73.9713119,20.3235109 C73.1869341,18.2436176 69.433014,13.0837005 67.9240308,11.6619099 C64.5129339,8.44791455 60.0913989,4.35015501 52.5493351,4.35015501 C45.0072713,4.35015501 37.571002,9.40860518 32.149427,18.9862723 C26.7278519,28.5639394 24.3121302,39.7282151 24.3121302,51.3268049 C24.1950743,62.3305828 27.2484724,75.4654163 31.7853487,83.727672 C36.3222251,91.9899277 44.2057299,98.8774117 52.7180846,98.8774117 C56.5688469,98.8774117 65.1412395,97.1860976 72.2687547,86.0845383 C75.2900258,81.378716 78.3716945,73.6498717 79.4441299,68.0796824 C80.7329879,61.3854028 81.23547,56.1013749 81.1972179,49.6651929 C81.2054434,43.9234058 80.2576439,39.2396251 79.0758853,33.8899227 C79.3755555,33.8899227 79.6695072,33.8899981 79.9577403,33.8901488 L80.8052837,33.8908269 C86.3412013,33.8968548 89.5896814,33.9330223 90.5507239,33.9993293 C93.6499945,45.7422987 93.8419095,56.8529039 91.1264689,67.331145 C88.1984595,78.0854311 83.7758917,85.5583399 80.1146335,89.5179167 C76.4533753,93.4774935 68.0696911,103.205048 52.7686525,103.254009 C37.4676139,103.302299 27.1912944,92.8004099 21.8015192,84.8086035 C16.411744,76.8167971 12.1706014,63.4399231 12.5297127,51.7051797 C12.5297127,37.1355223 16.4748333,25.0687706 24.3121302,15.15918 C32.149427,5.24958937 42.139785,-0.0261068771 52.62637,9.71428037e-05 Z" id="形状结合备份-383" fill="#FF5722"></path>
                <g id="编组-42" transform="translate(0.000000, 148.749465)">
                    <g id="游戏">
                        <use fill="#111111" xlink:href="#path-1"></use>
                        <use fill="#FF5722" xlink:href="#path-1"></use>
                    </g>
                    <path d="M34.9591977,6.1494023e-13 L47.6367089,6.1494023e-13 C54.551715,6.1494023e-13 58.0092181,2.81722472 58.0092181,8.45167416 C58.0092181,11.4006656 57.0620946,13.5779268 55.1678475,14.9834577 C57.0620946,16.3870998 58.0092181,18.5643609 58.0092181,21.5133524 C58.0092181,27.0506562 54.6699115,29.8670434 47.9912983,29.9625142 L47.6367089,29.9650266 L34.9591977,29.9650266 L34.9591977,6.1494023e-13 Z M47.2525419,17.2875153 L38.8008677,17.2875153 L38.8008677,26.1233565 L47.2525419,26.1233565 C51.862546,26.1233565 54.167548,24.5866885 54.167548,21.5133524 C54.167548,18.6961277 51.862546,17.2875153 47.2525419,17.2875153 Z M47.2525419,4.22583708 L38.8008677,4.22583708 L38.8008677,13.0616783 L47.2525419,13.0616783 C51.862546,13.0616783 54.167548,11.5250102 54.167548,8.45167416 C54.167548,5.63444944 51.862546,4.22583708 47.2525419,4.22583708 Z" id="形状结合" fill="#FF5722"></path>
                    <path d="M13.0616783,-5.59691693e-13 C16.2950878,-5.59691693e-13 19.9122866,1.34767114 22.2816864,3.45750307 C25.0011441,6.32809824 26.1233565,10.4168106 26.1233565,14.9825133 C26.1233565,19.6183284 25.0761239,23.7623912 22.2816864,26.5075235 C19.9303969,28.667826 16.2339641,29.9650266 13.0616783,29.9650266 C9.7530611,29.9650266 5.86470437,28.5539339 3.45750307,26.1233565 C0.84670329,23.4822481 1.10497073e-13,19.4619484 1.10497073e-13,14.9825133 C1.10497073e-13,10.5404639 0.88602211,6.54991798 3.45750307,3.84167007 C5.87301357,1.43903052 9.72046839,-5.59691693e-13 13.0616783,-5.59691693e-13 Z M13.0616783,3.84167007 C10.7031772,3.84167007 7.98732671,4.91171841 6.53083913,6.53083913 C4.46709745,8.71212191 3.84167007,11.679451 3.84167007,14.9825133 C3.84167007,18.3133753 4.43934298,21.3028289 6.53083913,23.4341874 C7.98146139,25.0740825 10.7261838,26.1233565 13.0616783,26.1233565 C15.3009388,26.1233565 17.9101855,25.1587715 19.5925174,23.4341874 C21.5424634,21.5111405 22.2816864,18.4296579 22.2816864,14.9825133 C22.2816864,11.5875036 21.4895365,8.54717902 19.5925174,6.53083913 C17.8974018,4.84378451 15.344085,3.84167007 13.0616783,3.84167007 Z" id="形状结合备份-359" fill="#FF5722"></path>
                </g>
            </g>
        </g>
    </g>
</svg>